<svg width="104" height="30" viewBox="0 0 104 30" fill="none" xmlns="http://www.w3.org/2000/svg">
<g clip-path="url(#clip0_1_338)">
<path d="M0.419922 14.82C0.419922 12.2657 1.10564 10.2515 2.43421 8.72575C3.80564 7.20003 5.51992 6.43718 7.65421 6.43718C8.33992 6.43718 8.99135 6.51432 9.59992 6.70289C10.2085 6.85718 10.6628 7.08003 11.0056 7.35432C11.3485 7.6286 11.6571 7.85146 11.9228 8.11718C12.1885 8.38289 12.3771 8.57146 12.4971 8.7686L12.6085 9.03432H12.6856C12.6514 8.72575 12.6085 8.3486 12.6085 7.97146V0.462891H15.6942V22.86H12.7628V21.3343L12.7971 20.2715H12.7199C12.6856 20.3486 12.6085 20.46 12.5314 20.58C12.4542 20.7 12.2656 20.9572 11.9999 21.3C11.7342 21.6429 11.3913 21.9515 11.0056 22.2172C10.6285 22.4829 10.1314 22.7143 9.47992 22.9372C8.82849 23.1686 8.14278 23.2457 7.42278 23.2457C5.25421 23.2457 3.53992 22.4829 2.27992 20.9229C1.07135 19.3543 0.419922 17.34 0.419922 14.82ZM3.58278 14.82C3.58278 16.5686 4.00278 17.94 4.84278 19.0115C5.68278 20.04 6.77992 20.5715 8.11706 20.5715C9.41135 20.5715 10.5171 20.0743 11.4342 19.1229C12.3085 18.1715 12.7713 16.7229 12.7713 14.7772C12.7713 13.2172 12.3942 11.88 11.5885 10.7743C10.7914 9.63432 9.68564 9.06003 8.23706 9.06003C6.94278 9.06003 5.83706 9.55718 4.91992 10.5857C4.00278 11.6657 3.58278 13.0372 3.58278 14.82Z" fill="#B7B7B7"/>
<path d="M18.3257 3.59146V0.462891H21.4457V3.58289H18.3257V3.59146ZM18.36 22.86V6.78861H21.4457V22.86H18.36Z" fill="#B7B7B7"/>
<path d="M26.134 25.7572C27.4712 26.4772 28.954 26.8201 30.5483 26.8201C32.074 26.8201 33.2912 26.4429 34.2426 25.7144C35.1598 24.9944 35.6483 23.8458 35.6483 22.2858V21.103L35.6826 20.0744H35.6055C34.6112 21.7458 33.0169 22.5858 30.8483 22.5858C28.6798 22.5858 26.9226 21.8229 25.6283 20.2629C24.334 18.7029 23.6826 16.7572 23.6826 14.3572C23.6826 12.0001 24.2912 10.0544 25.5512 8.57152C26.8112 7.08866 28.5255 6.32581 30.694 6.32581C31.414 6.32581 32.0655 6.40295 32.674 6.55723C33.2826 6.71152 33.7798 6.90009 34.1226 7.16581C34.4655 7.39723 34.774 7.66295 35.0398 7.88581C35.3055 8.10866 35.4598 8.30581 35.5369 8.49438L35.6912 8.72581H35.7683C35.734 8.57152 35.734 8.41723 35.734 8.22866V6.74581H38.6655V22.1315C38.6655 23.3915 38.434 24.5315 37.9798 25.4829C37.5255 26.4772 36.9169 27.2315 36.1112 27.7715C35.314 28.3458 34.474 28.7658 33.5569 29.0315C32.6398 29.2972 31.6112 29.4515 30.5826 29.4515C28.6369 29.4515 26.8112 28.9972 25.0969 28.1144L26.134 25.7572ZM31.4226 20.0058C32.6826 20.0058 33.7112 19.5858 34.4655 18.7115C35.2626 17.8372 35.6483 16.4229 35.6483 14.4858C35.6483 10.9029 34.1226 9.07723 31.114 9.07723C29.7426 9.07723 28.6798 9.53152 27.874 10.4829C27.1112 11.4344 26.734 12.7287 26.734 14.3658C26.734 16.0372 27.154 17.4087 27.994 18.4372C28.834 19.4658 29.974 20.0058 31.4226 20.0058Z" fill="#B7B7B7"/>
<path d="M41.2114 3.59146V0.462891H44.3314V3.58289H41.2114V3.59146ZM41.2457 22.86V6.78861H44.3314V22.86H41.2457Z" fill="#B7B7B7"/>
<path d="M46.5771 14.82C46.5771 12.42 47.3743 10.44 49.0114 8.83713C50.6143 7.23428 52.6714 6.43713 55.1829 6.43713C56.3657 6.43713 57.4714 6.62571 58.4571 7.01142C59.4514 7.38856 60.1714 7.80856 60.5914 8.19428L61.2 8.76856L59.7514 10.9371C59.64 10.8257 59.4429 10.6286 59.1771 10.44C58.9457 10.2086 58.4143 9.94285 57.6514 9.59999C56.8886 9.25713 56.0914 9.10285 55.2943 9.10285C53.6914 9.10285 52.3629 9.63428 51.2914 10.7057C50.2286 11.7686 49.6886 13.14 49.6886 14.7771C49.6886 16.4143 50.22 17.7857 51.2914 18.8914C52.3543 19.9971 53.7257 20.5286 55.3629 20.5286C56.2371 20.5286 57.1114 20.34 57.9171 19.9971C58.7571 19.6543 59.3229 19.2771 59.7086 18.9343L60.2829 18.4028L61.5 20.6486C61.4229 20.7257 61.3457 20.8028 61.2343 20.9143C61.1229 21.0257 60.8571 21.2228 60.4714 21.5228C60.0514 21.8314 59.6314 22.0971 59.1771 22.2857C58.7229 22.5171 58.1143 22.7057 57.3857 22.8943C56.6657 23.0828 55.9029 23.16 55.0971 23.16C52.5857 23.16 50.5286 22.3628 48.9257 20.8028C47.3829 19.2771 46.5771 17.2628 46.5771 14.82Z" fill="#B7B7B7"/>
<path d="M61.9629 14.82C61.9629 12.3085 62.7257 10.2857 64.2515 8.72569C65.7772 7.16569 67.68 6.40283 70.0029 6.40283C72.1715 6.40283 73.8858 7.12283 75.1029 8.53712C76.32 9.94283 76.9286 11.7343 76.9286 13.9457L76.8515 15.2828H65.1686C65.2457 16.9543 65.82 18.2914 66.8829 19.2085C67.9115 20.1257 69.2057 20.58 70.6886 20.58C71.5286 20.58 72.3257 20.4257 73.1229 20.1257C73.92 19.8171 74.4943 19.5171 74.8715 19.2085L75.4457 18.7543L76.7057 21C76.5515 21.1543 76.2857 21.3771 75.9429 21.6514C75.6 21.9257 74.9143 22.26 73.8086 22.68C72.7458 23.1 71.64 23.3314 70.4915 23.3314C67.98 23.3314 65.9572 22.5343 64.3629 20.9314C62.7686 19.2428 61.9629 17.22 61.9629 14.82ZM65.2458 12.96H73.8172C73.7829 11.6228 73.3972 10.6028 72.6772 9.91712C71.9572 9.2314 71.04 8.88855 69.9772 8.88855C68.76 8.88855 67.7315 9.2314 66.8915 9.9514C65.9657 10.6714 65.4343 11.6657 65.2458 12.96Z" fill="#B7B7B7"/>
<path d="M79.1401 22.86V6.78857H82.1144V9.56572L82.0373 10.7829H82.1144C82.4916 9.56572 83.143 8.53714 84.0173 7.77429C84.9344 6.97714 85.963 6.59143 87.1801 6.59143L87.9773 6.66857V9.71143C87.7116 9.63429 87.403 9.63429 87.103 9.63429C86.1087 9.63429 85.2001 9.97714 84.3601 10.6629C83.5201 11.3486 82.9544 12.2657 82.5687 13.4057C82.303 14.2457 82.1916 15.1971 82.1916 16.3029V22.8514L79.1401 22.86Z" fill="#B7B7B7"/>
<path d="M91.9371 16.9971V9.49712H89.8457V7.01998H92.0143V2.37427H94.9886V7.01998H98.8714V9.49712H94.9886V16.62C94.9886 17.2286 95.0657 17.76 95.2543 18.2228C95.4086 18.6771 95.6314 19.02 95.8628 19.2857C96.0943 19.5514 96.3943 19.74 96.7028 19.8943C97.0457 20.0486 97.3114 20.1257 97.5771 20.16C97.8428 20.1943 98.1086 20.2371 98.3743 20.2371L99.0943 20.16V22.9028C98.7857 22.9371 98.4429 22.98 98.0314 22.98C97.5343 22.98 97.0371 22.9457 96.5828 22.9028C96.1286 22.8257 95.5886 22.6714 94.98 22.4486C94.3714 22.1828 93.8743 21.8743 93.4543 21.4543C93.0343 21.0343 92.6571 20.46 92.3486 19.7057C92.0914 18.9 91.9371 17.9828 91.9371 16.9971Z" fill="#B7B7B7"/>
<path d="M100.886 0.428589C99.5916 0.428589 98.563 1.45716 98.563 2.75145C98.563 4.04573 99.5916 5.0743 100.886 5.0743C102.18 5.0743 103.209 4.04573 103.209 2.75145C103.209 1.45716 102.18 0.428589 100.886 0.428589ZM100.886 4.62002C99.8573 4.62002 99.0173 3.78002 99.0173 2.75145C99.0173 1.72287 99.8573 0.882875 100.886 0.882875C101.914 0.882875 102.754 1.72287 102.754 2.75145C102.754 3.78002 101.914 4.62002 100.886 4.62002Z" fill="#B7B7B7"/>
<path d="M100.088 4.01144V1.45715H100.886C101.117 1.45715 101.263 1.49144 101.383 1.5343C101.503 1.57715 101.614 1.68858 101.691 1.80001C101.768 1.91144 101.803 2.06572 101.803 2.22001C101.803 2.3743 101.768 2.52858 101.691 2.64001C101.614 2.75144 101.503 2.87144 101.348 2.90572C101.383 2.94001 101.383 2.98287 101.426 3.01715L101.957 4.01144H101.537L101.006 2.98287H100.474V4.01144C100.466 4.01144 100.088 4.01144 100.088 4.01144ZM100.431 2.6743H100.963C101.117 2.6743 101.228 2.64001 101.306 2.56287C101.383 2.48572 101.417 2.3743 101.417 2.22001C101.417 2.03144 101.34 1.91144 101.228 1.84287C101.151 1.80858 101.04 1.76572 100.886 1.76572H100.466L100.431 2.6743Z" fill="#B7B7B7"/>
</g>
<defs>
<clipPath id="clip0_1_338">
<rect width="103.74" height="30" fill="white"/>
</clipPath>
</defs>
</svg>
