<svg width="70" height="69" viewBox="0 0 70 69" fill="none" xmlns="http://www.w3.org/2000/svg">
<path d="M42.599 44.5585L42.5988 44.5577C42.5635 44.3691 42.4621 44.1993 42.3128 44.0788C42.1639 43.9586 41.9771 43.8953 41.7858 43.9003H28.3398C28.1477 43.8968 27.9607 43.9616 27.8119 44.0831C27.6629 44.2047 27.562 44.3754 27.5271 44.5646L27.527 44.5652L26.3045 51.4032C26.3045 51.4033 26.3045 51.4034 26.3045 51.4036C26.2831 51.5181 26.2884 51.6361 26.3198 51.7483C26.3513 51.8607 26.4081 51.9644 26.486 52.0513L26.4862 52.0515C26.5659 52.1399 26.6642 52.2093 26.7741 52.2548C26.8832 52.2999 27.0009 52.3202 27.1188 52.3144H43.007C43.1252 52.3207 43.2434 52.3001 43.3527 52.2543C43.4629 52.2081 43.5611 52.1374 43.6398 52.0476C43.7186 51.9578 43.7759 51.8512 43.8074 51.736C43.8388 51.6209 43.8436 51.5002 43.8215 51.383C43.8214 51.3828 43.8214 51.3827 43.8214 51.3825L42.599 44.5585ZM28.1016 50.6649L29.0291 45.5498H41.0968L42.0243 50.6649H28.1016Z" fill="#2F80ED" stroke="#2F80ED" stroke-width="0.2"/>
<path d="M16.0938 61.8295L16.0942 61.83C16.1734 61.9191 16.2715 61.9895 16.3812 62.0361C16.4903 62.0823 16.6083 62.1038 16.7267 62.0991H32.6156C32.734 62.1049 32.8523 62.0839 32.9615 62.0377C33.0716 61.9911 33.1697 61.9201 33.2483 61.8301C33.327 61.7401 33.3842 61.6334 33.4156 61.5181C33.447 61.4029 33.4519 61.2821 33.4298 61.1647C33.4298 61.1646 33.4298 61.1645 33.4298 61.1644L32.2075 54.3417L32.2073 54.3409C32.1719 54.1525 32.0704 53.9829 31.921 53.8626L31.8583 53.9405L31.921 53.8626C31.7721 53.7427 31.5853 53.6797 31.3942 53.685H17.9484C17.7566 53.681 17.5696 53.7453 17.4208 53.8664C17.2716 53.9877 17.1705 54.1581 17.1355 54.3472L17.1354 54.3478L15.9129 61.1733C15.9129 61.1734 15.9128 61.1734 15.9128 61.1735C15.8916 61.2894 15.8968 61.4086 15.9281 61.5221C15.9594 61.6358 16.0161 61.7409 16.0938 61.8295ZM17.7102 60.4496L18.6376 55.3345H30.7052L31.6327 60.4496H17.7102Z" fill="#2F80ED" stroke="#2F80ED" stroke-width="0.2"/>
<path d="M37.9196 54.3472L37.9196 54.3472L37.9195 54.3478L36.6971 61.185C36.6971 61.1851 36.6971 61.1852 36.6971 61.1854C36.6757 61.3002 36.681 61.4184 36.7124 61.5308C36.7439 61.6434 36.8007 61.7473 36.8786 61.8344L36.8788 61.8346C36.9583 61.9232 37.0566 61.9928 37.1664 62.0386C37.2755 62.084 37.3933 62.1047 37.5113 62.0991H53.3996C53.5181 62.1049 53.6364 62.0839 53.7457 62.0377C53.8557 61.9911 53.9538 61.9202 54.0325 61.8302C54.1112 61.7402 54.1684 61.6335 54.1998 61.5182C54.2312 61.403 54.2361 61.2822 54.2141 61.1649C54.214 61.1647 54.214 61.1646 54.214 61.1644L52.9917 54.3417L52.9915 54.3409C52.9561 54.1524 52.8545 53.9828 52.7051 53.8625C52.5561 53.7426 52.3693 53.6797 52.1781 53.685H38.7324C38.5406 53.6811 38.3536 53.7454 38.2048 53.8665C38.0557 53.9878 37.9546 54.1582 37.9196 54.3472ZM39.4217 55.3345H51.4893L52.4168 60.4496H38.4942L39.4217 55.3345Z" fill="#2F80ED" stroke="#2F80ED" stroke-width="0.2"/>
<path d="M35.3941 37.788C37.6477 37.7879 39.8505 37.1197 41.7243 35.8676C43.598 34.6156 45.0583 32.8361 45.9207 30.7542C46.783 28.6722 47.0087 26.3812 46.569 24.171C46.1293 21.9608 45.0442 19.9306 43.4507 18.3372C41.8572 16.7437 39.827 15.6585 37.6168 15.2189C35.4066 14.7793 33.1156 15.0049 31.0337 15.8673C28.9517 16.7297 27.1722 18.1901 25.9202 20.0638C24.6682 21.9376 24 24.1405 24 26.394C24.0034 29.4148 25.205 32.311 27.3411 34.447C29.4771 36.5831 32.3733 37.7846 35.3941 37.788ZM35.3941 17.0192C37.2483 17.0193 39.0608 17.5691 40.6024 18.5992C42.1441 19.6294 43.3456 21.0935 44.0552 22.8065C44.7647 24.5196 44.9503 26.4045 44.5886 28.223C44.2268 30.0415 43.334 31.7119 42.0229 33.023C40.7118 34.3341 39.0414 35.2269 37.2228 35.5886C35.4043 35.9503 33.5194 35.7647 31.8064 35.0551C30.0934 34.3456 28.6292 33.144 27.5991 31.6023C26.569 30.0606 26.0192 28.2481 26.0192 26.394C26.0219 23.9084 27.0105 21.5254 28.7681 19.7679C30.5256 18.0103 32.9086 17.0217 35.3941 17.0189V17.0192Z" fill="#FFBD00"/>
<path d="M35.3944 31.1065C34.949 31.106 34.5221 30.9288 34.2071 30.614C33.8922 30.2991 33.7151 29.8721 33.7145 29.4268C33.7145 29.159 33.6082 28.9022 33.4188 28.7129C33.2295 28.5235 32.9727 28.4172 32.7049 28.4172C32.4372 28.4172 32.1804 28.5235 31.991 28.7129C31.8017 28.9022 31.6953 29.159 31.6953 29.4268C31.6965 30.2692 31.9847 31.0861 32.5126 31.7427C33.0404 32.3993 33.7763 32.8564 34.5988 33.0385V33.7664C34.5988 34.0342 34.7052 34.291 34.8945 34.4803C35.0838 34.6697 35.3406 34.7761 35.6084 34.7761C35.8762 34.7761 36.133 34.6697 36.3223 34.4803C36.5116 34.291 36.618 34.0342 36.618 33.7664V32.9167C37.4421 32.6277 38.1374 32.0565 38.5808 31.3041C39.0241 30.5517 39.1869 29.6667 39.0404 28.8058C38.8938 27.9449 38.4474 27.1636 37.7801 26.6003C37.1128 26.037 36.2677 25.7279 35.3944 25.7279C35.0622 25.7279 34.7374 25.6295 34.4611 25.4449C34.1849 25.2604 33.9696 24.9981 33.8424 24.6911C33.7153 24.3842 33.682 24.0465 33.7468 23.7207C33.8116 23.3948 33.9715 23.0955 34.2064 22.8606C34.4413 22.6257 34.7406 22.4657 35.0664 22.4009C35.3923 22.3361 35.73 22.3693 36.0369 22.4964C36.3439 22.6236 36.6062 22.8388 36.7908 23.1151C36.9753 23.3913 37.0739 23.716 37.0739 24.0483C37.0739 24.316 37.1802 24.5728 37.3696 24.7622C37.5589 24.9515 37.8157 25.0579 38.0835 25.0579C38.3512 25.0579 38.608 24.9515 38.7974 24.7622C38.9867 24.5728 39.0931 24.316 39.0931 24.0483C39.092 23.2518 38.8343 22.4768 38.3582 21.8383C37.8821 21.1998 37.2128 20.7317 36.4497 20.5035V19.8001C36.4497 19.5324 36.3434 19.2756 36.154 19.0862C35.9647 18.8969 35.7079 18.7905 35.4401 18.7905C35.1724 18.7905 34.9156 18.8969 34.7262 19.0862C34.5369 19.2756 34.4305 19.5324 34.4305 19.8001V20.4774C33.5651 20.7114 32.8142 21.2518 32.3173 21.9979C31.8204 22.7441 31.6115 23.6454 31.7293 24.5341C31.8472 25.4228 32.2838 26.2384 32.9579 26.8294C33.6321 27.4203 34.4979 27.7462 35.3944 27.7466C35.8398 27.7466 36.2671 27.9236 36.5821 28.2386C36.8971 28.5536 37.074 28.9808 37.074 29.4263C37.074 29.8718 36.8971 30.299 36.5821 30.614C36.2671 30.929 35.8398 31.1059 35.3944 31.1059V31.1065Z" fill="#FFBD00"/>
<rect x="1" y="10" width="68" height="58" rx="4" stroke="#2F80ED" stroke-width="2"/>
<rect x="21" y="1" width="28" height="9" rx="1" stroke="#2F80ED" stroke-width="2"/>
</svg>
