<svg width="61" height="36" viewBox="0 0 61 36" fill="none" xmlns="http://www.w3.org/2000/svg">
<path d="M36 18C36 27.9397 27.9397 36 18 36C8.06032 36 0 27.9397 0 18C0 8.06032 8.06032 0 18 0C27.9397 0 36 8.06032 36 18Z" fill="#ED1B2E"/>
<path d="M42.139 0C37.5033 0 33.2434 1.75406 30.0694 4.67749C29.4012 5.26218 28.8165 5.88863 28.2736 6.59861H31.907C32.4082 7.18329 32.8675 7.85151 33.2852 8.51972H26.8954C26.5195 9.14617 26.1854 9.77262 25.8513 10.4408H34.2875C34.5798 11.0673 34.8304 11.6937 35.0392 12.3619H25.0996C24.8907 12.9884 24.7237 13.6149 24.5566 14.2831H35.5822C35.8327 15.4942 35.9998 16.7889 35.9998 18.0835C35.9998 20.0882 35.6657 22.0093 35.081 23.8051H25.0996C25.3084 24.4733 25.559 25.0998 25.8513 25.7262H34.2875C33.9952 26.3944 33.6193 27.0209 33.2434 27.6473H26.8954C27.313 28.3155 27.7724 28.942 28.2736 29.5684H31.907C31.3223 30.1114 30.7376 30.7378 30.0694 31.3225C33.2434 34.2042 37.5033 35.9582 42.139 35.9582C52.0787 35.9582 60.139 27.8979 60.139 17.9582C60.139 8.06032 52.0787 0 42.139 0Z" fill="#FCB131"/>
<path d="M57.7588 28.0232C57.7588 27.6891 58.0094 27.4385 58.3435 27.4385C58.6776 27.4385 58.9282 27.6891 58.9282 28.0232C58.9282 28.3573 58.6776 28.6079 58.3435 28.6079C58.0094 28.6079 57.7588 28.3573 57.7588 28.0232ZM58.3435 28.4826C58.5941 28.4826 58.8029 28.2737 58.8029 28.0232C58.8029 27.7726 58.5941 27.5638 58.3435 27.5638C58.0929 27.5638 57.8841 27.7726 57.8841 28.0232C57.8841 28.2737 58.0929 28.4826 58.3435 28.4826ZM58.2599 28.2737H58.1347V27.7726H58.3435C58.3852 27.7726 58.427 27.7726 58.4688 27.8143C58.5105 27.8561 58.5523 27.8979 58.5523 27.9396C58.5523 27.9814 58.5105 28.0649 58.4688 28.0649L58.5523 28.2737H58.427L58.3435 28.0649H58.2599V28.2737ZM58.2599 27.9814H58.3435C58.3852 27.9814 58.3852 27.9814 58.427 27.9814L58.4688 27.9396C58.4688 27.9396 58.4688 27.8979 58.427 27.8979C58.3852 27.8979 58.3852 27.8979 58.3435 27.8979H58.2599V27.9814Z" fill="#FCB131"/>
<path d="M13.7817 19.9628C13.5729 19.921 13.4894 19.921 13.3641 19.921C12.2365 19.921 11.6936 20.2969 11.6936 21.0486C11.6936 21.508 11.9859 21.8004 12.4036 21.8004C13.1971 21.8004 13.74 21.0486 13.7817 19.9628ZM15.2017 23.2621C14.9511 23.2621 13.5729 23.2621 13.5729 23.2621L13.6147 22.5103C13.1135 23.1368 12.4453 23.3874 11.5683 23.3874C10.5242 23.3874 9.77246 22.5521 9.77246 21.341C9.77246 19.5451 11.0254 18.4593 13.1971 18.4593C13.4059 18.4593 13.6982 18.4593 13.9906 18.5011C14.0323 18.2505 14.0741 18.1669 14.0741 17.9999C14.0741 17.4987 13.74 17.3317 12.8212 17.3317C11.8606 17.3317 11.0671 17.5405 10.733 17.6658C10.733 17.5405 10.9836 15.9953 10.9836 15.9953C11.9442 15.7029 12.6124 15.6194 13.3223 15.6194C14.9929 15.6194 15.8699 16.3711 15.8699 17.7911C15.8699 18.1669 15.8281 18.6263 15.7029 19.2528C15.6193 20.4222 15.2435 22.7192 15.2017 23.2621Z" fill="#003473"/>
<path d="M8.97918 23.2619H7.0163L8.14391 16.2456L5.63811 23.2619H4.30168L4.13463 16.2874L2.96526 23.2619H1.16943L2.67291 14.1575H5.47106L5.63811 19.2526L7.35041 14.1575H10.4827L8.97918 23.2619Z" fill="#003473"/>
<path d="M44.5615 19.9628C44.3527 19.921 44.2692 19.921 44.1439 19.921C43.0163 19.921 42.4734 20.2969 42.4734 21.0486C42.4734 21.508 42.7657 21.8004 43.1833 21.8004C43.9351 21.8004 44.5198 21.0486 44.5615 19.9628ZM45.9815 23.2621C45.7309 23.2621 44.3527 23.2621 44.3527 23.2621L44.3945 22.5103C43.8933 23.1368 43.2251 23.3874 42.3481 23.3874C41.304 23.3874 40.5522 22.5521 40.5522 21.341C40.5522 19.5451 41.8051 18.4593 43.9768 18.4593C44.1857 18.4593 44.478 18.4593 44.7703 18.5011C44.8121 18.2505 44.8539 18.1669 44.8539 17.9999C44.8539 17.4987 44.5198 17.3317 43.601 17.3317C42.6404 17.3317 41.8469 17.5405 41.5128 17.6658C41.5546 17.5405 41.8051 15.9953 41.8051 15.9953C42.7657 15.7029 43.4339 15.6194 44.1439 15.6194C45.8144 15.6194 46.6915 16.3711 46.6915 17.7911C46.6915 18.1669 46.6497 18.6263 46.5244 19.2528C46.3991 20.4222 46.0232 22.7192 45.9815 23.2621Z" fill="#003473"/>
<path d="M23.8885 23.1366C23.3456 23.3037 22.928 23.3872 22.4686 23.3872C21.4663 23.3872 20.9233 22.8025 20.9233 21.7584C20.9233 21.4243 21.0486 20.5473 21.1739 19.7956C21.2992 19.0856 22.0092 14.7422 22.0092 14.7422H23.9303L23.7215 15.8698H24.8909L24.6403 17.6656H23.4709C23.2621 19.0856 22.928 20.8396 22.928 21.0485C22.928 21.4243 23.1368 21.5914 23.5962 21.5914C23.805 21.5914 23.9721 21.5496 24.1391 21.5078L23.8885 23.1366Z" fill="#003473"/>
<path d="M29.8611 23.095C29.1929 23.3038 28.5664 23.3873 27.8564 23.3873C25.6847 23.3873 24.5571 22.2597 24.5571 20.088C24.5571 17.5405 26.0188 15.7029 27.94 15.7029C29.527 15.7029 30.571 16.747 30.571 18.3757C30.571 18.9187 30.4875 19.4616 30.3205 20.2133H26.4365C26.3112 21.2992 26.9794 21.7586 28.107 21.7586C28.817 21.7586 29.4434 21.6333 30.1117 21.2992L29.8611 23.095ZM28.7335 18.7098C28.7335 18.5428 28.9423 17.3734 27.8147 17.3734C27.1882 17.3734 26.7706 17.8328 26.5618 18.7098H28.7335Z" fill="#003473"/>
<path d="M16.3711 18.2085C16.3711 19.1273 16.8305 19.7955 17.8746 20.2967C18.6681 20.6725 18.7934 20.7978 18.7934 21.1319C18.7934 21.5913 18.4593 21.8001 17.6658 21.8001C17.0811 21.8001 16.5382 21.7166 15.9117 21.5078C15.9117 21.5078 15.6611 23.1366 15.6611 23.2201C16.1205 23.3036 16.4964 23.3871 17.7075 23.4289C19.7539 23.4289 20.7145 22.6354 20.7145 20.9649C20.7145 19.9625 20.2969 19.3361 19.3363 18.8767C18.501 18.5008 18.4175 18.4173 18.4175 18.0832C18.4175 17.6656 18.7516 17.4567 19.3781 17.4567C19.7539 17.4567 20.2969 17.4985 20.798 17.582L21.0904 15.8697C20.5892 15.7862 19.8375 15.7445 19.3781 15.7445C17.1229 15.6609 16.3711 16.8303 16.3711 18.2085Z" fill="#003473"/>
<path d="M39.3411 15.87C39.884 15.87 40.3852 15.9952 41.0952 16.3711L41.4293 14.4082C41.1369 14.2829 40.1346 13.6565 39.2993 13.6565C38.0047 13.6565 36.8771 14.3247 36.1253 15.3688C34.9977 14.9929 34.5383 15.7447 33.9536 16.4964L33.4107 16.5799C33.4525 16.3293 33.4942 16.0788 33.4525 15.8282H31.6567C31.4061 18.1252 30.9884 20.4639 30.6543 22.7609L30.5708 23.2621H32.5337C32.8678 21.1321 33.0348 19.7957 33.1601 18.8769L33.9119 18.4593C34.0372 18.0416 34.3713 17.9164 35.0395 17.9164C34.956 18.4175 34.9142 18.9187 34.9142 19.4198C34.9142 21.8421 36.2089 23.3456 38.3388 23.3456C38.8817 23.3456 39.3411 23.2621 40.0511 23.095L40.3852 21.0068C39.717 21.3409 39.2158 21.4662 38.7147 21.4662C37.587 21.4662 36.8771 20.631 36.8771 19.2528C36.8771 17.2899 37.8794 15.87 39.3411 15.87Z" fill="#003473"/>
<path d="M55.8796 14.1575L55.462 16.7886C54.919 16.0786 54.3344 15.5774 53.5826 15.5774C52.5803 15.5774 51.7033 16.3292 51.1186 17.415C50.2833 17.248 49.448 16.9556 49.448 16.9556C49.5316 16.3292 49.5316 15.9533 49.5316 15.828H47.7358C47.4852 18.125 47.0675 20.4637 46.7334 22.7607L46.6499 23.2619H48.6128C48.8634 21.5496 49.0722 20.1296 49.2392 19.002C49.9074 18.4173 50.2416 17.8744 50.9098 17.9162C50.6174 18.6261 50.4504 19.4614 50.4504 20.3384C50.4504 22.176 51.3692 23.4289 52.7891 23.4289C53.4991 23.4289 54.042 23.1784 54.5849 22.5937L54.5014 23.3036H56.339L57.8425 14.1575H55.8796ZM53.4573 21.5496C52.7891 21.5496 52.455 21.0484 52.455 20.0879C52.455 18.6261 53.0815 17.5821 53.9585 17.5821C54.6267 17.5821 55.0026 18.0832 55.0026 19.0438C55.0026 20.5055 54.3344 21.5496 53.4573 21.5496Z" fill="#003473"/>
<path d="M9.56391 22.7192H7.60103L8.72864 15.7029L6.22284 22.7192H4.88642L4.71936 15.7447L3.54999 22.7192H1.7124L3.25765 13.6147H6.05579L6.13932 19.2528L8.01867 13.6147H11.0674L9.56391 22.7192Z" fill="white"/>
<path d="M14.3667 19.4195C14.1579 19.3778 14.0744 19.3778 13.9491 19.3778C12.8215 19.3778 12.2785 19.7536 12.2785 20.5054C12.2785 20.9648 12.5709 21.2571 12.9885 21.2571C13.7403 21.2571 14.3249 20.5054 14.3667 19.4195ZM15.7867 22.7188C15.5361 22.7188 14.1579 22.7188 14.1579 22.7188L14.1996 21.9671C13.6985 22.5936 13.0303 22.8441 12.1532 22.8441C11.1092 22.8441 10.3574 22.0089 10.3574 20.7977C10.3574 19.0019 11.6103 17.9578 13.782 17.9578C13.9908 17.9578 14.2832 17.9578 14.5755 17.9996C14.6173 17.749 14.659 17.6655 14.659 17.4984C14.659 16.9973 14.3249 16.8302 13.4061 16.8302C12.4456 16.8302 11.6521 17.039 11.318 17.1643C11.318 17.039 11.5686 15.4938 11.5686 15.4938C12.5291 15.2014 13.1973 15.1179 13.9073 15.1179C15.5778 15.1179 16.4549 15.8697 16.4549 17.2896C16.4549 17.6655 16.4131 18.1249 16.2878 18.7513C16.2043 19.8789 15.8284 22.1759 15.7867 22.7188Z" fill="white"/>
<path d="M41.9721 13.8649L41.638 15.8278C40.928 15.4937 40.4269 15.3266 39.8839 15.3266C38.4222 15.3266 37.4199 16.7466 37.4199 18.7512C37.4199 20.1294 38.0881 20.9647 39.2575 20.9647C39.7587 20.9647 40.2598 20.7976 40.928 20.5053L40.5939 22.5935C39.8839 22.8023 39.4245 22.844 38.8816 22.844C36.7935 22.844 35.457 21.3406 35.457 18.9183C35.457 15.6608 37.2529 13.3638 39.8422 13.3638C40.6774 13.3638 41.6798 13.7396 41.9721 13.8649Z" fill="white"/>
<path d="M45.1045 19.4195C44.8957 19.3778 44.8122 19.3778 44.6869 19.3778C43.5593 19.3778 43.0163 19.7536 43.0163 20.5054C43.0163 20.9648 43.3087 21.2571 43.7263 21.2571C44.5198 21.2571 45.1045 20.5054 45.1045 19.4195ZM46.5244 22.7188C46.2739 22.7188 44.8957 22.7188 44.8957 22.7188L44.9374 21.9671C44.4363 22.5936 43.7681 22.8441 42.891 22.8441C41.847 22.8441 41.0952 22.0089 41.0952 20.7977C41.0952 19.0019 42.3481 17.9578 44.5198 17.9578C44.7286 17.9578 45.021 17.9578 45.3133 17.9996C45.3551 17.749 45.3968 17.6655 45.3968 17.4984C45.3968 16.9973 45.0627 16.8302 44.1439 16.8302C43.1834 16.8302 42.3899 17.039 42.0558 17.1643C42.0558 17.039 42.3064 15.4938 42.3064 15.4938C43.2669 15.2014 43.9351 15.1179 44.6451 15.1179C46.3156 15.1179 47.1927 15.8697 47.1927 17.2896C47.1927 17.6655 47.1509 18.1249 47.0256 18.7513C46.9421 19.8789 46.608 22.1759 46.5244 22.7188Z" fill="white"/>
<path d="M24.4735 22.5936C23.9306 22.7607 23.5129 22.8442 23.0535 22.8442C22.0512 22.8442 21.5083 22.2595 21.5083 21.2155C21.5083 20.8814 21.6336 20.0043 21.7589 19.2526C21.8842 18.5426 22.5941 14.1992 22.5941 14.1992H24.5153L24.3064 15.3268H25.3088L25.0582 17.0809H24.0559C23.847 18.5008 23.5129 20.2549 23.5129 20.4637C23.5129 20.8396 23.7218 21.0066 24.1812 21.0066C24.39 21.0066 24.557 20.9649 24.7241 20.9231L24.4735 22.5936Z" fill="white"/>
<path d="M30.404 22.5518C29.7358 22.7606 29.1094 22.8441 28.3994 22.8441C26.2277 22.8441 25.1001 21.7165 25.1001 19.5448C25.1001 16.9973 26.5618 15.1597 28.4829 15.1597C30.0699 15.1597 31.114 16.2038 31.114 17.8325C31.114 18.3754 31.0305 18.9184 30.8634 19.6701H26.9794C26.8542 20.756 27.5224 21.2154 28.65 21.2154C29.36 21.2154 29.9864 21.0901 30.6546 20.756L30.404 22.5518ZM29.3182 18.1666C29.3182 17.9996 29.527 16.8302 28.3994 16.8302C27.773 16.8302 27.3553 17.2896 27.1465 18.1666H29.3182Z" fill="white"/>
<path d="M16.9561 17.6654C16.9561 18.5841 17.4155 19.2524 18.4596 19.7535C19.2531 20.1294 19.3783 20.2547 19.3783 20.5888C19.3783 21.0482 19.0442 21.257 18.2507 21.257C17.666 21.257 17.1231 21.1735 16.4967 20.9647C16.4967 20.9647 16.2461 22.5934 16.2461 22.677C16.7055 22.7605 17.0814 22.844 18.2925 22.8858C20.3389 22.8858 21.2995 22.0923 21.2995 20.4217C21.2995 19.4194 20.8818 18.793 19.9213 18.3336C19.086 17.9577 19.0025 17.8742 19.0025 17.5401C19.0025 17.1224 19.3366 16.9136 19.963 16.9136C20.3389 16.9136 20.8818 16.9554 21.383 17.0389L21.6753 15.3266C21.1742 15.2431 20.4224 15.2013 19.963 15.2013C17.7078 15.1596 16.9561 16.2872 16.9561 17.6654Z" fill="white"/>
<path d="M56.8818 22.7189H55.0442L55.1277 22.0089C54.5848 22.5936 54.0419 22.8442 53.3319 22.8442C51.912 22.8442 50.9932 21.6331 50.9932 19.7537C50.9932 17.2897 52.4549 15.2015 54.1672 15.2015C54.9189 15.2015 55.5036 15.4939 56.0465 16.2038L56.4642 13.5728H58.3853L56.8818 22.7189ZM54.0001 21.0066C54.9189 21.0066 55.5454 19.9625 55.5454 18.5008C55.5454 17.5403 55.1695 17.0391 54.5013 17.0391C53.6243 17.0391 52.9978 18.0832 52.9978 19.5449C52.9978 20.5055 53.3319 21.0066 54.0001 21.0066Z" fill="white"/>
<path d="M48.3202 15.2852C48.0696 17.5821 47.652 19.9209 47.3179 22.2179L47.2344 22.719H49.1973C49.9072 18.1668 50.0743 17.2898 51.1601 17.4151C51.3272 16.4963 51.6613 15.661 51.9119 15.2434C51.0766 15.0763 50.6172 15.5357 50.0325 16.4128C50.0743 16.0369 50.1578 15.661 50.1578 15.2852H48.3202Z" fill="white"/>
<path d="M32.2416 15.2852C31.991 17.5821 31.5734 19.9209 31.2393 22.2179L31.1558 22.719H33.1186C33.8286 18.1668 33.9957 17.2898 35.0815 17.4151C35.2486 16.4963 35.5827 15.661 35.8333 15.2434C34.998 15.0763 34.5386 15.5357 33.9539 16.4128C33.9957 16.0369 34.0792 15.661 34.0792 15.2852H32.2416Z" fill="white"/>
<path d="M57.7588 22.1345C57.7588 21.8004 58.0094 21.5498 58.3435 21.5498C58.6776 21.5498 58.9282 21.8004 58.9282 22.1345C58.9282 22.4686 58.6776 22.7192 58.3435 22.7192C58.0094 22.7192 57.7588 22.4686 57.7588 22.1345ZM58.3017 22.5939C58.5523 22.5939 58.7611 22.3851 58.7611 22.1345C58.7611 21.8839 58.5523 21.6751 58.3017 21.6751C58.0511 21.6751 57.8423 21.8839 57.8423 22.1345C57.8841 22.3851 58.0929 22.5939 58.3017 22.5939ZM58.2599 22.3851H58.1347V21.8839H58.3435C58.3852 21.8839 58.427 21.8839 58.4688 21.9257C58.5105 21.9674 58.5523 22.0092 58.5523 22.051C58.5523 22.0927 58.5105 22.1763 58.4688 22.1763L58.5523 22.3851H58.427L58.3435 22.1763H58.2599V22.3851ZM58.2599 22.0927H58.3435C58.3852 22.0927 58.3852 22.0927 58.427 22.0927L58.4688 22.051C58.4688 22.051 58.4688 22.0092 58.427 22.0092C58.427 22.0092 58.3852 22.0092 58.3435 22.0092H58.2599V22.0927Z" fill="white"/>
</svg>
