<svg width="147" height="20" viewBox="0 0 147 20" fill="none" xmlns="http://www.w3.org/2000/svg">
<g clip-path="url(#clip0_1_394)">
<path d="M4.47642 19.5956C4.2573 19.5956 4.0397 19.5273 3.854 19.393C3.50807 19.1423 3.34648 18.7114 3.44063 18.2956L4.72728 12.6278L0.36377 8.80115C0.0430226 8.52114 -0.0795084 8.07771 0.0521781 7.67197C0.183865 7.26699 0.54215 6.98027 0.966355 6.94105L6.73981 6.4169L9.02243 1.07512C9.19074 0.682654 9.57405 0.429199 9.99993 0.429199C10.4258 0.429199 10.8091 0.682654 10.9774 1.0742L13.2601 6.4169L19.0326 6.94105C19.4577 6.97936 19.816 7.26699 19.9477 7.67197C20.0794 8.07695 19.9576 8.52114 19.6369 8.80115L15.2733 12.6271L16.56 18.2946C16.6543 18.7114 16.4926 19.1423 16.1468 19.3922C15.8018 19.6422 15.3417 19.6614 14.9784 19.4431L9.99993 16.468L5.02148 19.4447C4.85317 19.5447 4.66563 19.5956 4.47642 19.5956ZM6.69571 6.52021L6.6948 6.52188L6.69571 6.52021ZM13.3025 6.51776L13.3034 6.51944L13.3025 6.51776Z" fill="#FFBD00"/>
</g>
<g clip-path="url(#clip1_1_394)">
<path d="M36.1429 19.5956C35.9238 19.5956 35.7062 19.5273 35.5205 19.393C35.1746 19.1423 35.013 18.7114 35.1071 18.2956L36.3938 12.6278L32.0303 8.80115C31.7095 8.52114 31.587 8.07771 31.7187 7.67197C31.8504 7.26699 32.2087 6.98027 32.6329 6.94105L38.4063 6.4169L40.6889 1.07512C40.8572 0.682654 41.2406 0.429199 41.6664 0.429199C42.0923 0.429199 42.4756 0.682654 42.6439 1.0742L44.9266 6.4169L50.6991 6.94105C51.1242 6.97936 51.4825 7.26699 51.6142 7.67197C51.7459 8.07695 51.6241 8.52114 51.3034 8.80115L46.9399 12.6271L48.2265 18.2946C48.3208 18.7114 48.1591 19.1423 47.8133 19.3922C47.4683 19.6422 47.0082 19.6614 46.6449 19.4431L41.6664 16.468L36.688 19.4447C36.5197 19.5447 36.3321 19.5956 36.1429 19.5956ZM38.3622 6.52021L38.3613 6.52188L38.3622 6.52021ZM44.969 6.51776L44.9699 6.51944L44.969 6.51776Z" fill="#FFBD00"/>
</g>
<g clip-path="url(#clip2_1_394)">
<path d="M67.8099 19.5956C67.5908 19.5956 67.3732 19.5273 67.1875 19.393C66.8416 19.1423 66.68 18.7114 66.7741 18.2956L68.0608 12.6278L63.6973 8.80115C63.3765 8.52114 63.254 8.07771 63.3857 7.67197C63.5174 7.26699 63.8756 6.98027 64.2999 6.94105L70.0733 6.4169L72.3559 1.07512C72.5242 0.682654 72.9075 0.429199 73.3334 0.429199C73.7593 0.429199 74.1426 0.682654 74.3109 1.0742L76.5935 6.4169L82.3661 6.94105C82.7912 6.97936 83.1495 7.26699 83.2812 7.67197C83.4129 8.07695 83.2911 8.52114 82.9704 8.80115L78.6068 12.6271L79.8935 18.2946C79.9878 18.7114 79.826 19.1423 79.4803 19.3922C79.1353 19.6422 78.6752 19.6614 78.3119 19.4431L73.3334 16.468L68.355 19.4447C68.1867 19.5447 67.9991 19.5956 67.8099 19.5956ZM70.0292 6.52021L70.0283 6.52188L70.0292 6.52021ZM76.636 6.51776L76.6369 6.51944L76.636 6.51776Z" fill="#FFBD00"/>
</g>
<g clip-path="url(#clip3_1_394)">
<path d="M99.4764 19.5956C99.2573 19.5956 99.0397 19.5273 98.854 19.393C98.5081 19.1423 98.3465 18.7114 98.4406 18.2956L99.7273 12.6278L95.3638 8.80115C95.043 8.52114 94.9205 8.07771 95.0522 7.67197C95.1839 7.26699 95.5421 6.98027 95.9664 6.94105L101.74 6.4169L104.022 1.07512C104.191 0.682654 104.574 0.429199 105 0.429199C105.426 0.429199 105.809 0.682654 105.977 1.0742L108.26 6.4169L114.033 6.94105C114.458 6.97936 114.816 7.26699 114.948 7.67197C115.079 8.07695 114.958 8.52114 114.637 8.80115L110.273 12.6271L111.56 18.2946C111.654 18.7114 111.493 19.1423 111.147 19.3922C110.802 19.6422 110.342 19.6614 109.978 19.4431L105 16.468L100.021 19.4447C99.8532 19.5447 99.6656 19.5956 99.4764 19.5956ZM101.696 6.52021L101.695 6.52188L101.696 6.52021ZM108.302 6.51776L108.303 6.51944L108.302 6.51776Z" fill="#FFBD00"/>
</g>
<g clip-path="url(#clip4_1_394)">
<path d="M131.143 19.5956C130.924 19.5956 130.706 19.5273 130.521 19.393C130.175 19.1423 130.013 18.7114 130.107 18.2956L131.394 12.6278L127.03 8.80115C126.71 8.52114 126.587 8.07771 126.719 7.67197C126.85 7.26699 127.209 6.98027 127.633 6.94105L133.406 6.4169L135.689 1.07512C135.857 0.682654 136.241 0.429199 136.666 0.429199C137.092 0.429199 137.476 0.682654 137.644 1.0742L139.927 6.4169L145.699 6.94105C146.124 6.97936 146.483 7.26699 146.614 7.67197C146.746 8.07695 146.624 8.52114 146.303 8.80115L141.94 12.6271L143.227 18.2946C143.321 18.7114 143.159 19.1423 142.813 19.3922C142.468 19.6422 142.008 19.6614 141.645 19.4431L136.666 16.468L131.688 19.4447C131.52 19.5447 131.332 19.5956 131.143 19.5956ZM133.362 6.52021L133.361 6.52188L133.362 6.52021ZM139.969 6.51776L139.97 6.51944L139.969 6.51776Z" fill="#FFBD00"/>
</g>
<defs>
<clipPath id="clip0_1_394">
<rect width="20" height="20" fill="white"/>
</clipPath>
<clipPath id="clip1_1_394">
<rect width="20" height="20" fill="white" transform="translate(31.6665)"/>
</clipPath>
<clipPath id="clip2_1_394">
<rect width="20" height="20" fill="white" transform="translate(63.3335)"/>
</clipPath>
<clipPath id="clip3_1_394">
<rect width="20" height="20" fill="white" transform="translate(95)"/>
</clipPath>
<clipPath id="clip4_1_394">
<rect width="20" height="20" fill="white" transform="translate(126.667)"/>
</clipPath>
</defs>
</svg>
