<svg width="99" height="100" viewBox="0 0 99 100" fill="none" xmlns="http://www.w3.org/2000/svg">
<path d="M98.4759 63.1422L94.7344 60.3357L96.8898 56.1809C96.9839 56.0001 97.0345 55.7999 97.0377 55.5962C97.0408 55.3924 96.9964 55.1907 96.908 55.0071C96.8196 54.8236 96.6897 54.6632 96.5285 54.5388C96.3673 54.4144 96.1793 54.3294 95.9795 54.2905L91.3938 53.3978L91.54 48.7117C91.5465 48.508 91.5054 48.3057 91.4201 48.1207C91.3347 47.9357 91.2074 47.7732 91.0483 47.6462C90.8892 47.5191 90.7027 47.431 90.5036 47.3889C90.3045 47.3467 90.0983 47.3517 89.9014 47.4034L85.3751 48.5905L83.4733 44.3025C83.3902 44.1168 83.2652 43.9529 83.1081 43.8237C82.951 43.6945 82.7661 43.6035 82.5679 43.558C82.3754 43.5136 82.1751 43.5158 81.9837 43.5645C81.7922 43.6132 81.6151 43.7069 81.4671 43.8379L78.4501 46.4379V1.1742C78.4501 0.516975 77.8455 0 77.1892 0H23.6341C23.3188 6.65246e-09 23.0165 0.125403 22.7936 0.348623C22.5707 0.571842 22.4454 0.874593 22.4454 1.19027C22.4454 1.50595 22.5707 1.8087 22.7936 2.03192C23.0165 2.25514 23.3188 2.38055 23.6341 2.38055H76.0728V45.2829L74.3394 43.8368C74.1807 43.7051 73.9941 43.6114 73.7937 43.563C73.5934 43.5146 73.3846 43.5127 73.1834 43.5574C72.9842 43.6029 72.7981 43.6938 72.6396 43.8231C72.4811 43.9523 72.3545 44.1164 72.2696 44.3025L70.3678 48.5895L70.13 48.5274V9.8257C70.13 9.16827 69.5908 8.72867 68.9345 8.72867H15.3788C15.2265 8.72245 15.0745 8.74683 14.9317 8.80036C14.789 8.85389 14.6584 8.93548 14.5476 9.04034C14.4368 9.1452 14.3481 9.2712 14.2867 9.41092C14.2254 9.55064 14.1925 9.70125 14.1902 9.85387L13.7854 62.0926H1.24193C0.919191 62.0947 0.609773 62.2217 0.378332 62.4469C0.146892 62.6722 0.0113387 62.9783 0 63.3013V66.8703C0 74.048 5.54698 79.9268 12.2826 80.2641V80.3434H56.4603V80.2502C56.6584 80.2682 57.0021 80.2807 57.2797 80.2807C59.7629 80.2841 62.1899 79.5402 64.2459 78.1456L64.1965 79.6796C64.1899 79.8833 64.2309 80.0857 64.3161 80.2707C64.4013 80.4557 64.5285 80.6182 64.6875 80.7454C64.8465 80.8725 65.033 80.9607 65.232 81.003C65.4311 81.0453 65.6372 81.0405 65.8341 80.9889L66.324 80.8604L61.3926 92.85C61.2195 93.2708 61.1702 93.7323 61.2507 94.1802C61.3311 94.6281 61.5379 95.0436 61.8465 95.3776C62.1552 95.7116 62.5528 95.9501 62.9925 96.0651C63.4322 96.1801 63.8956 96.1667 64.3279 96.0264L68.9107 94.544L70.9161 98.6607C71.1086 99.0638 71.4117 99.4038 71.7899 99.641C72.1681 99.8781 72.6059 100.003 73.0521 100C73.0796 100 73.1072 100 73.1351 99.9986C73.5953 99.9868 74.042 99.8401 74.4198 99.5767C74.7976 99.3134 75.09 98.9448 75.2608 98.5167L77.9382 91.9503L80.474 98.1584C80.6447 98.5865 80.9371 98.9551 81.3149 99.2185C81.6928 99.4819 82.1394 99.6285 82.5996 99.6403C82.6274 99.6413 82.6551 99.6417 82.6826 99.6417C83.1289 99.6443 83.5667 99.5198 83.9449 99.2827C84.3231 99.0455 84.6261 98.7056 84.8186 98.3024L86.8286 94.1835L91.407 95.6684C91.8394 95.8085 92.3027 95.8219 92.7424 95.7069C93.1821 95.5919 93.5797 95.3533 93.8884 95.0193C94.197 94.6853 94.4038 94.2698 94.4842 93.8219C94.5647 93.3741 94.5154 92.9125 94.3424 92.4917L89.5761 80.9036L89.9018 80.9891C90.0986 81.0407 90.3047 81.0456 90.5037 81.0034C90.7027 80.9612 90.8892 80.8731 91.0482 80.7461C91.2072 80.6191 91.3345 80.4567 91.4198 80.2718C91.5051 80.0869 91.5462 79.8846 91.5398 79.681L91.3936 74.9945L95.9789 74.1006C96.1787 74.0619 96.3666 73.977 96.5278 73.8527C96.689 73.7284 96.819 73.5681 96.9075 73.3847C96.996 73.2012 97.0405 72.9996 97.0375 72.7959C97.0345 72.5922 96.9841 72.392 96.8902 72.2113L94.7337 68.0544L98.4779 65.2375C98.6402 65.1153 98.7719 64.9571 98.8625 64.7752C98.9531 64.5933 99.0002 64.3927 99 64.1894C98.9998 63.9861 98.9523 63.7857 98.8614 63.6039C98.7704 63.4222 98.6384 63.2642 98.4759 63.1424V63.1422ZM12.9023 77.9629C7.12806 77.9629 2.37728 72.9522 2.37728 66.8703V64.4731H44.3758V66.8703C44.3758 71.4382 46.6257 75.3839 49.9773 77.9629H12.9023ZM57.2492 77.9002C51.4752 77.9002 46.7531 72.9522 46.7531 66.8703V63.3013C46.7589 63.1466 46.7338 62.9924 46.6794 62.8476C46.625 62.7027 46.5424 62.5702 46.4363 62.4577C46.3302 62.3451 46.2028 62.2549 46.0615 62.1922C45.9202 62.1295 45.7679 62.0957 45.6134 62.0926H16.1627L16.5589 11.1092H67.7524V47.9041L65.8365 47.4026C65.6395 47.3508 65.4332 47.3457 65.2339 47.3878C65.0347 47.4298 64.8479 47.5178 64.6886 47.6447C64.5292 47.7717 64.4016 47.9341 64.3158 48.1191C64.2301 48.304 64.1887 48.5065 64.1948 48.7103L64.3406 53.3968L59.7554 54.2895C59.5557 54.3283 59.3677 54.4132 59.2065 54.5375C59.0453 54.6618 58.9153 54.822 58.8268 55.0055C58.7383 55.1889 58.6938 55.3905 58.6968 55.5942C58.6998 55.7979 58.7503 55.9981 58.8441 56.1789L60.9999 60.3347L57.2569 63.1418C57.0945 63.2637 56.9627 63.4219 56.8719 63.6037C56.7811 63.7855 56.7339 63.986 56.7339 64.1892C56.7339 64.3925 56.7811 64.5929 56.8719 64.7748C56.9627 64.9566 57.0945 65.1147 57.2569 65.2367L61.0011 68.0525L58.8441 72.2103C58.7505 72.391 58.7002 72.5911 58.6973 72.7947C58.6944 72.9983 58.7389 73.1997 58.8274 73.383C58.9159 73.5664 59.0458 73.7265 59.2069 73.8507C59.368 73.9749 59.5558 74.0598 59.7554 74.0986L64.3412 74.9925L64.3283 75.0148C62.4344 76.8638 59.8942 77.8991 57.2492 77.9002ZM73.0517 97.616L71.0465 93.4993C70.7932 92.9845 70.3637 92.5779 69.8363 92.3534C69.3089 92.1289 68.7185 92.1015 68.1725 92.2761L63.5896 93.7556L69.2049 80.1036L70.3588 79.8008L72.2607 84.0876C72.3432 84.2738 72.4679 84.4382 72.625 84.5676C72.7821 84.697 72.9672 84.788 73.1655 84.8332C73.3639 84.8784 73.57 84.8767 73.7676 84.8281C73.9651 84.7795 74.1487 84.6855 74.3035 84.5534L74.757 84.167L76.6517 88.8037L73.0517 97.616ZM92.1393 93.4027L87.5608 91.9178C87.0149 91.7433 86.4246 91.7708 85.8972 91.9953C85.3699 92.2198 84.9404 92.6263 84.6871 93.141L82.6743 97.2568L76.6624 82.5434L77.8669 81.517L81.4298 84.5522C81.6673 84.7539 81.9687 84.8646 82.2801 84.8645C82.3767 84.8645 82.473 84.8537 82.5672 84.8323C82.7654 84.7867 82.9504 84.6957 83.1076 84.5664C83.2647 84.437 83.3898 84.2729 83.4729 84.087L85.3747 79.8L86.6937 80.146L92.1393 93.4027ZM92.5814 66.6949C92.3331 66.8805 92.159 67.1487 92.0902 67.4512C92.0214 67.7537 92.0626 68.0709 92.2062 68.3458L94.1207 72.0367L90.0474 72.8302C89.7418 72.8883 89.4671 73.054 89.2729 73.2974C89.0787 73.5407 88.9779 73.8456 88.9888 74.157L89.1187 78.3215L85.0972 77.2669C84.7971 77.1875 84.4786 77.2179 84.199 77.3527C83.9194 77.4875 83.6969 77.7178 83.5717 78.0021L81.8819 81.811L78.7142 79.1134C78.4781 78.9109 78.1775 78.7996 77.8667 78.7996C77.5558 78.7996 77.2552 78.9109 77.0192 79.1134L73.8524 81.8114L72.1618 78.0007C72.0363 77.7167 71.8138 77.4867 71.5342 77.3521C71.2546 77.2176 70.9363 77.1873 70.6364 77.2667L66.6148 78.3213L66.7448 74.157C66.7557 73.8458 66.6551 73.5411 66.4612 73.2978C66.2673 73.0544 65.9929 72.8886 65.6875 72.8302L61.6129 72.0367L63.5273 68.3458C63.6709 68.0709 63.712 67.7538 63.6433 67.4513C63.5745 67.1488 63.4005 66.8807 63.1523 66.6949L59.8242 64.1916L63.1507 61.6958C63.3995 61.5103 63.574 61.242 63.643 60.9392C63.712 60.6364 63.6709 60.3189 63.5271 60.0437L61.6126 56.3539L65.6863 55.5603C65.9918 55.5022 66.2665 55.3364 66.4606 55.0931C66.6547 54.8498 66.7554 54.545 66.7446 54.2338L66.6146 50.0692L70.6362 51.1238C70.9364 51.2031 71.255 51.1725 71.5347 51.0377C71.8144 50.9029 72.037 50.6726 72.1624 50.3882L73.8524 46.5793L77.0186 49.2773C77.2547 49.4801 77.5554 49.5915 77.8665 49.5915C78.1775 49.5915 78.4783 49.4801 78.7144 49.2773L81.8813 46.5793L83.5712 50.3882C83.6963 50.6729 83.9189 50.9034 84.1988 51.0383C84.4787 51.1732 84.7975 51.2035 85.0978 51.1238L89.1193 50.0692L88.9894 54.2328C88.9784 54.5439 89.079 54.8487 89.273 55.0921C89.4669 55.3354 89.7414 55.5012 90.0469 55.5595L94.1215 56.3531L92.2064 60.0445C92.0627 60.3196 92.0217 60.637 92.0907 60.9396C92.1597 61.2423 92.3342 61.5104 92.5828 61.6958L95.9096 64.191L92.5814 66.6949Z" fill="#2F80ED"/>
<path d="M77.867 51.519C75.3633 51.519 72.9158 52.2625 70.834 53.6554C68.7523 55.0483 67.1298 57.0281 66.1716 59.3444C65.2135 61.6607 64.9628 64.2095 65.4513 66.6685C65.9397 69.1275 67.1454 71.3862 68.9157 73.159C70.6861 74.9318 72.9418 76.1392 75.3974 76.6283C77.853 77.1174 80.3983 76.8664 82.7114 75.9069C85.0245 74.9475 87.0016 73.3227 88.3926 71.2381C89.7836 69.1535 90.526 66.7026 90.526 64.1954C90.522 60.8347 89.187 57.6127 86.8138 55.2363C84.4407 52.8599 81.2231 51.5231 77.867 51.519ZM77.867 74.4929C75.8335 74.4929 73.8456 73.889 72.1548 72.7577C70.464 71.6264 69.1461 70.0184 68.3679 68.1371C67.5897 66.2558 67.3861 64.1856 67.7828 62.1884C68.1796 60.1912 69.1588 58.3567 70.5967 56.9168C72.0347 55.4769 73.8667 54.4963 75.8611 54.099C77.8556 53.7017 79.9229 53.9056 81.8016 54.6849C83.6804 55.4642 85.2862 56.7838 86.4159 58.477C87.5457 60.1701 88.1487 62.1607 88.1487 64.197C88.1449 66.9264 87.0604 69.5428 85.133 71.4726C83.2056 73.4023 80.5926 74.4879 77.867 74.4913V74.4929Z" fill="#2F80ED"/>
<path d="M77.5588 59.4741C77.7569 59.5271 77.9654 59.5264 78.1631 59.4721C78.5995 59.5425 78.9966 59.766 79.2835 60.1028C79.5704 60.4395 79.7284 60.8674 79.7291 61.3101C79.7291 61.6257 79.8543 61.9285 80.0772 62.1517C80.3002 62.3749 80.6025 62.5003 80.9177 62.5003C81.233 62.5003 81.5353 62.3749 81.7582 62.1517C81.9811 61.9285 82.1064 61.6257 82.1064 61.3101C82.1048 60.3907 81.8055 59.4967 81.2534 58.7622C80.7014 58.0277 79.9264 57.4922 79.0446 57.2362V56.3397C79.0446 56.024 78.9194 55.7213 78.6965 55.498C78.4736 55.2748 78.1713 55.1494 77.856 55.1494C77.5408 55.1494 77.2384 55.2748 77.0155 55.498C76.7926 55.7213 76.6674 56.024 76.6674 56.3397V57.2419C75.6907 57.5311 74.8507 58.1629 74.3013 59.0216C73.7518 59.8803 73.5295 60.9085 73.6752 61.9178C73.8209 62.9272 74.3248 63.8503 75.0946 64.518C75.8644 65.1858 76.8486 65.5535 77.8671 65.554C78.3396 65.5528 78.7949 65.7318 79.1405 66.0545C79.486 66.3772 79.696 66.8195 79.7278 67.2916C79.7596 67.7637 79.6108 68.2302 79.3116 68.5965C79.0125 68.9628 78.5853 69.2013 78.1169 69.2637C77.948 69.2247 77.7725 69.224 77.6032 69.2615C77.1602 69.1978 76.755 68.9765 76.4616 68.638C76.1682 68.2996 76.0064 67.8667 76.0057 67.4185C76.0057 67.1029 75.8805 66.8001 75.6576 66.5769C75.4346 66.3537 75.1323 66.2283 74.8171 66.2283C74.5018 66.2283 74.1995 66.3537 73.9766 66.5769C73.7536 66.8001 73.6284 67.1029 73.6284 67.4185C73.6297 68.3341 73.9263 69.2247 74.4738 69.9578C75.0214 70.691 75.7907 71.2275 76.6674 71.4875V72.4084C76.6674 72.724 76.7926 73.0268 77.0155 73.25C77.2384 73.4732 77.5408 73.5986 77.856 73.5986C78.1713 73.5986 78.4736 73.4732 78.6965 73.25C78.9194 73.0268 79.0446 72.724 79.0446 72.4084V71.4932C80.0255 71.2095 80.8711 70.5807 81.4258 69.7223C81.9806 68.864 82.2071 67.834 82.0638 66.8217C81.9206 65.8094 81.4171 64.883 80.646 64.2129C79.8749 63.5428 78.8881 63.174 77.8671 63.1744C77.3999 63.1753 76.9495 63.0001 76.6055 62.6836C76.2614 62.3672 76.0488 61.9327 76.01 61.4665C75.9711 61.0003 76.1089 60.5366 76.3959 60.1674C76.6828 59.7983 77.098 59.5507 77.5588 59.4741Z" fill="#FFBD00"/>
<path d="M24.0465 25.7892H40.0411C40.3563 25.7892 40.6586 25.6638 40.8816 25.4406C41.1045 25.2174 41.2297 24.9146 41.2297 24.599C41.2297 24.2833 41.1045 23.9805 40.8816 23.7573C40.6586 23.5341 40.3563 23.4087 40.0411 23.4087H24.0465C23.7313 23.4087 23.429 23.5341 23.2061 23.7573C22.9831 23.9805 22.8579 24.2833 22.8579 24.599C22.8579 24.9146 22.9831 25.2174 23.2061 25.4406C23.429 25.6638 23.7313 25.7892 24.0465 25.7892Z" fill="#2F80ED"/>
<path d="M24.0465 37.6921H56.551C56.8663 37.6921 57.1686 37.5667 57.3915 37.3434C57.6144 37.1202 57.7397 36.8175 57.7397 36.5018C57.7397 36.1861 57.6144 35.8834 57.3915 35.6601C57.1686 35.4369 56.8663 35.3115 56.551 35.3115H24.0465C23.8905 35.3115 23.7359 35.3423 23.5917 35.4021C23.4475 35.4619 23.3164 35.5496 23.2061 35.6601C23.0957 35.7707 23.0081 35.9019 22.9484 36.0463C22.8887 36.1907 22.8579 36.3455 22.8579 36.5018C22.8579 36.6581 22.8887 36.8129 22.9484 36.9573C23.0081 37.1017 23.0957 37.2329 23.2061 37.3434C23.3164 37.454 23.4475 37.5416 23.5917 37.6015C23.7359 37.6613 23.8905 37.6921 24.0465 37.6921Z" fill="#2F80ED"/>
<path d="M57.7397 49.5946C57.7397 49.2789 57.6144 48.9761 57.3915 48.7529C57.1686 48.5297 56.8663 48.4043 56.551 48.4043H24.0465C23.7313 48.4043 23.429 48.5297 23.2061 48.7529C22.9831 48.9761 22.8579 49.2789 22.8579 49.5946C22.8579 49.9102 22.9831 50.213 23.2061 50.4362C23.429 50.6594 23.7313 50.7848 24.0465 50.7848H56.551C56.8663 50.7848 57.1686 50.6594 57.3915 50.4362C57.6144 50.213 57.7397 49.9102 57.7397 49.5946Z" fill="#2F80ED"/>
<circle cx="77.6089" cy="64" r="11.5" stroke="#FFBD00" stroke-width="3"/>
</svg>
