<svg width="47" height="80" viewBox="0 0 47 80" fill="none" xmlns="http://www.w3.org/2000/svg">
<path d="M47 7.59773C47 5.58269 46.2005 3.65017 44.7775 2.22532C43.3544 0.800473 41.4243 0 39.4118 0H7.58823C5.57571 0 3.64561 0.800473 2.22254 2.22532C0.799472 3.65017 0 5.58269 0 7.59773V72.4023C0 74.4173 0.799472 76.3498 2.22254 77.7747C3.64561 79.1995 5.57571 80 7.58823 80H39.4118C41.4243 80 43.3544 79.1995 44.7775 77.7747C46.2005 76.3498 47 74.4173 47 72.4023V7.59773ZM45.0552 62.3124H1.94483V14.929H45.0552V62.3124ZM39.4014 77.8905H7.5986C6.8612 77.8983 6.12954 77.7601 5.44568 77.4837C4.76183 77.2074 4.13928 76.7984 3.61384 76.2804C3.08841 75.7623 2.67046 75.1453 2.38403 74.4649C2.09759 73.7845 1.94833 73.0541 1.94483 72.3158V64.2596H45.0552V72.3158C45.0517 73.0541 44.9024 73.7845 44.616 74.4649C44.3295 75.1453 43.9116 75.7623 43.3862 76.2804C42.8607 76.7984 42.2382 77.2074 41.5543 77.4837C40.8705 77.7601 40.1388 77.8983 39.4014 77.8905ZM45.0552 12.9817H1.94483V7.52195C1.94833 6.78359 2.09759 6.05321 2.38403 5.37282C2.67046 4.69243 3.08841 4.07545 3.61384 3.55737C4.13928 3.03928 4.76183 2.63032 5.44568 2.354C6.12954 2.07767 6.8612 1.93945 7.5986 1.94726H39.4014C40.1388 1.93945 40.8705 2.07767 41.5543 2.354C42.2382 2.63032 42.8607 3.03928 43.3862 3.55737C43.9116 4.07545 44.3295 4.69243 44.616 5.37282C44.9024 6.05321 45.0517 6.78359 45.0552 7.52195V12.9817Z" fill="#2F80ED"/>
<path d="M29.1295 6.00391H17.8709C17.7432 6.00391 17.6167 6.02909 17.4987 6.07802C17.3807 6.12695 17.2735 6.19867 17.1833 6.28908C17.093 6.37949 17.0213 6.48682 16.9725 6.60494C16.9236 6.72307 16.8984 6.84968 16.8984 6.97754C16.8984 7.1054 16.9236 7.232 16.9725 7.35013C17.0213 7.46826 17.093 7.57559 17.1833 7.666C17.2735 7.75641 17.3807 7.82813 17.4987 7.87705C17.6167 7.92598 17.7432 7.95117 17.8709 7.95117H29.1295C29.3874 7.95117 29.6347 7.84859 29.8171 7.666C29.9994 7.48341 30.1019 7.23576 30.1019 6.97754C30.1019 6.71931 29.9994 6.47167 29.8171 6.28908C29.6347 6.10648 29.3874 6.00391 29.1295 6.00391Z" fill="#2F80ED"/>
<path d="M23.5001 66.6938C22.6226 66.6938 21.7649 66.9544 21.0353 67.4425C20.3057 67.9306 19.737 68.6244 19.4012 69.4361C19.0654 70.2478 18.9775 71.141 19.1487 72.0027C19.3199 72.8644 19.7425 73.6559 20.3629 74.2771C20.9834 74.8984 21.7739 75.3215 22.6346 75.4929C23.4952 75.6643 24.3873 75.5763 25.1979 75.2401C26.0086 74.9039 26.7015 74.3345 27.189 73.604C27.6765 72.8735 27.9368 72.0146 27.9368 71.136C27.9354 69.9583 27.4676 68.8292 26.6358 67.9964C25.8041 67.1636 24.6764 66.6952 23.5001 66.6938ZM23.5001 73.631C23.0073 73.631 22.5255 73.4846 22.1157 73.2105C21.706 72.9363 21.3866 72.5467 21.198 72.0908C21.0094 71.6349 20.96 71.1333 21.0562 70.6493C21.1523 70.1653 21.3897 69.7208 21.7381 69.3719C22.0866 69.0229 22.5306 68.7853 23.014 68.6891C23.4974 68.5928 23.9984 68.6422 24.4537 68.831C24.909 69.0199 25.2982 69.3396 25.572 69.7499C25.8458 70.1602 25.9919 70.6426 25.9919 71.136C25.9912 71.7975 25.7284 72.4316 25.2612 72.8993C24.7941 73.367 24.1607 73.6301 23.5001 73.6308V73.631Z" fill="#2F80ED"/>
<path d="M23.3376 23.0426C23.5955 23.0426 23.8429 22.9401 24.0252 22.7575C24.2076 22.5749 24.3101 22.3272 24.3101 22.069V17.5254C24.3101 17.2672 24.2076 17.0195 24.0252 16.8369C23.8429 16.6543 23.5955 16.5518 23.3376 16.5518C23.0797 16.5518 22.8324 16.6543 22.65 16.8369C22.4677 17.0195 22.3652 17.2672 22.3652 17.5254V22.069C22.3652 22.3272 22.4677 22.5749 22.65 22.7575C22.8324 22.9401 23.0797 23.0426 23.3376 23.0426Z" fill="#2F80ED"/>
<path d="M38.9011 29.7838C39.0288 29.784 39.1553 29.7589 39.2733 29.71C39.3913 29.661 39.4985 29.5892 39.5887 29.4987L42.8337 26.2495C42.926 26.1596 42.9995 26.0522 43.0501 25.9335C43.1006 25.8149 43.127 25.6874 43.1279 25.5584C43.1288 25.4295 43.1041 25.3016 43.0552 25.1823C43.0063 25.0629 42.9342 24.9545 42.8432 24.8633C42.7521 24.7721 42.6438 24.7 42.5246 24.651C42.4055 24.602 42.2778 24.5773 42.149 24.5781C42.0202 24.579 41.8928 24.6055 41.7743 24.6561C41.6558 24.7066 41.5485 24.7802 41.4587 24.8727L38.2136 28.1217C38.0776 28.2578 37.9849 28.4313 37.9474 28.6202C37.9099 28.809 37.9291 29.0048 38.0027 29.1827C38.0763 29.3606 38.2009 29.5127 38.3608 29.6197C38.5207 29.7267 38.7088 29.7838 38.9011 29.7838Z" fill="#2F80ED"/>
<path d="M4.08596 26.304L7.3309 29.553C7.51377 29.7331 7.76031 29.8336 8.01684 29.8326C8.27337 29.8315 8.51909 29.729 8.70048 29.5474C8.88187 29.3658 8.98424 29.1198 8.98529 28.8629C8.98633 28.6061 8.88597 28.3592 8.70606 28.1761L5.46095 24.927C5.27807 24.7469 5.03151 24.6464 4.77498 24.6475C4.51845 24.6485 4.27274 24.7511 4.09137 24.9327C3.91 25.1144 3.80766 25.3604 3.80665 25.6172C3.80563 25.8741 3.90603 26.1209 4.08596 26.304Z" fill="#2F80ED"/>
<path d="M13.6206 24.7842C13.6718 24.9026 13.7459 25.0096 13.8387 25.099C13.9315 25.1884 14.0411 25.2585 14.1612 25.3051C14.2812 25.3518 14.4094 25.3741 14.5381 25.3708C14.6668 25.3674 14.7937 25.3385 14.9112 25.2857C15.0287 25.2329 15.1345 25.1573 15.2226 25.0632C15.3106 24.9691 15.3791 24.8584 15.4241 24.7376C15.4691 24.6168 15.4897 24.4882 15.4847 24.3593C15.4796 24.2305 15.4491 24.1039 15.3948 23.987L13.5169 19.7949C13.465 19.6776 13.3905 19.5717 13.2977 19.4833C13.2048 19.3949 13.0954 19.3258 12.9758 19.2799C12.8562 19.2339 12.7287 19.2121 12.6006 19.2157C12.4725 19.2193 12.3464 19.2482 12.2296 19.3007C12.1127 19.3532 12.0073 19.4283 11.9195 19.5217C11.8317 19.6152 11.7632 19.725 11.718 19.845C11.6727 19.965 11.6516 20.0928 11.6558 20.221C11.66 20.3492 11.6895 20.4753 11.7425 20.5921L13.6206 24.7842Z" fill="#2F80ED"/>
<path d="M30.8383 24.809C30.9577 24.8546 31.0848 24.8762 31.2125 24.8725C31.3402 24.8689 31.4659 24.84 31.5825 24.7877C31.699 24.7353 31.8041 24.6604 31.8917 24.5674C31.9794 24.4743 32.0478 24.3648 32.0931 24.2452L33.725 19.9507C33.7715 19.831 33.7939 19.7032 33.7909 19.5748C33.7879 19.4464 33.7595 19.3198 33.7074 19.2024C33.6553 19.085 33.5805 18.9791 33.4874 18.8907C33.3942 18.8024 33.2845 18.7334 33.1646 18.6877C33.0447 18.642 32.9169 18.6205 32.7887 18.6245C32.6604 18.6285 32.5342 18.6578 32.4174 18.7108C32.3005 18.7639 32.1953 18.8395 32.1077 18.9334C32.0202 19.0274 31.9521 19.1377 31.9073 19.2581L30.2755 23.5528C30.1838 23.7941 30.1916 24.062 30.2971 24.2976C30.4027 24.5332 30.5973 24.7171 30.8383 24.809Z" fill="#2F80ED"/>
<path d="M11.3445 52.0893H35.4928C35.7507 52.0893 35.998 51.9868 36.1804 51.8042C36.3627 51.6216 36.4652 51.3739 36.4652 51.1157C36.4652 50.8575 36.3627 50.6098 36.1804 50.4273C35.998 50.2447 35.7507 50.1421 35.4928 50.1421H32.3162C34.1121 48.3856 35.3444 46.1331 35.8558 43.6721C36.3672 41.2111 36.1345 38.6534 35.1873 36.3255C34.2402 33.9976 32.6217 32.0051 30.5383 30.6025C28.455 29.1998 26.0014 28.4507 23.4909 28.4507C20.9804 28.4507 18.5268 29.1998 16.4435 30.6025C14.3602 32.0051 12.7416 33.9976 11.7945 36.3255C10.8473 38.6534 10.6146 41.2111 11.126 43.6721C11.6374 46.1331 12.8697 48.3856 14.6656 50.1421H11.3445C11.0866 50.1421 10.8392 50.2447 10.6569 50.4273C10.4745 50.6098 10.3721 50.8575 10.3721 51.1157C10.3721 51.3739 10.4745 51.6216 10.6569 51.8042C10.8392 51.9868 11.0866 52.0893 11.3445 52.0893ZM12.8059 41.0873C12.806 39.2267 13.2908 37.3982 14.2124 35.7824C15.1339 34.1667 16.4604 32.8195 18.0608 31.8739C19.6613 30.9282 21.4804 30.4169 23.3385 30.3902C25.1967 30.3636 27.0296 30.8226 28.6565 31.7219C30.2833 32.6213 31.6478 33.9299 32.6152 35.5186C33.5826 37.1072 34.1195 38.921 34.1728 40.7809C34.2262 42.6408 33.7942 44.4825 32.9195 46.1242C32.0448 47.7658 30.7576 49.1507 29.185 50.1421H23.8745C24.0084 50.0534 24.1183 49.9329 24.1943 49.7913C24.2703 49.6497 24.3101 49.4915 24.31 49.3307V48.409C25.2765 48.2064 26.1336 47.6522 26.7158 46.8536C27.298 46.055 27.5639 45.0687 27.4621 44.0853C27.3603 43.1019 26.8981 42.1911 26.1647 41.5291C25.4313 40.867 24.4789 40.5006 23.4914 40.5007C23.0866 40.5007 22.6908 40.3805 22.3542 40.1553C22.0177 39.9301 21.7553 39.6101 21.6004 39.2356C21.4455 38.8611 21.405 38.449 21.484 38.0515C21.5629 37.654 21.7579 37.2888 22.0442 37.0022C22.3304 36.7156 22.6951 36.5205 23.0922 36.4414C23.4892 36.3623 23.9008 36.403 24.2748 36.5581C24.6488 36.7132 24.9684 36.9759 25.1933 37.3129C25.4182 37.65 25.5382 38.0462 25.5382 38.4515C25.5382 38.7098 25.6406 38.9574 25.823 39.14C26.0053 39.3226 26.2527 39.4252 26.5106 39.4252C26.7685 39.4252 27.0158 39.3226 27.1982 39.14C27.3805 38.9574 27.483 38.7098 27.483 38.4515C27.4818 37.5342 27.166 36.6451 26.5884 35.933C26.0108 35.2209 25.2065 34.7291 24.31 34.5398V33.7526C24.31 33.4944 24.2076 33.2468 24.0252 33.0642C23.8428 32.8816 23.5955 32.779 23.3376 32.779C23.0797 32.779 22.8323 32.8816 22.65 33.0642C22.4676 33.2468 22.3652 33.4944 22.3652 33.7526V34.6179C21.4442 34.8891 20.6518 35.4836 20.1331 36.2924C19.6144 37.1011 19.4042 38.07 19.541 39.0213C19.6779 39.9727 20.1526 40.8428 20.8781 41.4721C21.6036 42.1015 22.5314 42.4479 23.4914 42.448C23.8962 42.448 24.2919 42.5682 24.6285 42.7933C24.9651 43.0185 25.2274 43.3386 25.3824 43.7131C25.5373 44.0875 25.5778 44.4996 25.4988 44.8971C25.4199 45.2946 25.2249 45.6598 24.9387 45.9464C24.6524 46.233 24.2877 46.4282 23.8907 46.5073C23.4937 46.5863 23.0821 46.5457 22.7081 46.3906C22.3341 46.2355 22.0145 45.9729 21.7896 45.6358C21.5647 45.2988 21.4446 44.9026 21.4446 44.4973C21.4446 44.2391 21.3422 43.9914 21.1598 43.8088C20.9774 43.6262 20.7301 43.5237 20.4722 43.5237C20.2143 43.5237 19.967 43.6262 19.7846 43.8088C19.6022 43.9914 19.4998 44.2391 19.4998 44.4973C19.501 45.3601 19.7806 46.1995 20.297 46.8903C20.8133 47.5811 21.5387 48.0863 22.3652 48.3308V49.3307C22.3651 49.4915 22.4049 49.6497 22.4809 49.7913C22.5569 49.9329 22.6667 50.0534 22.8007 50.1421H17.7977C16.2649 49.1829 15.0018 47.8478 14.1283 46.2633C13.2547 44.6788 12.7996 42.8972 12.8059 41.0873Z" fill="#FFBD00"/>
</svg>
