<svg width="106" height="28" viewBox="0 0 106 28" fill="none" xmlns="http://www.w3.org/2000/svg">
<path fill-rule="evenodd" clip-rule="evenodd" d="M13.447 0C16.8847 0 20.0337 1.86317 19.6139 6.50797C19.089 12.0187 16.1499 15.0628 11.4789 15.089H7.41143C6.83411 15.089 6.54545 15.5614 6.388 16.5586L5.60075 21.5708C5.46954 22.3318 5.10215 22.6992 4.52483 22.6992H0.71977C0.116209 22.6992 -0.0937255 22.3055 0.0374835 21.4396L3.1865 1.36457C3.34395 0.367385 3.71134 0 4.39362 0H13.447ZM7.28022 10.7329H10.3768C12.2924 10.6542 13.5783 9.31584 13.7095 6.92783C13.7882 5.43205 12.791 4.38238 11.1902 4.38238L8.27741 4.40862L7.28022 10.7329ZM29.9007 21.1246C30.2418 20.8097 30.6092 20.6523 30.5567 21.0459L30.4255 21.9644C30.373 22.4367 30.5567 22.6992 31.0028 22.6992H34.3618C34.9391 22.6992 35.2015 22.463 35.3327 21.597L37.4058 8.58107C37.5108 7.92502 37.3533 7.61012 36.8547 7.61012H33.1546C32.8135 7.61012 32.656 7.79381 32.5773 8.31865L32.4461 9.13215C32.3674 9.55202 32.1837 9.63074 32 9.21087C31.3702 7.71509 29.7694 7.05904 27.5389 7.11153C22.343 7.2165 18.8529 11.1528 18.4855 16.2174C18.1968 20.075 20.9784 23.1453 24.6785 23.1453C27.3552 23.1453 28.5623 22.358 29.9007 21.1246ZM27.0928 19.1303C24.8622 19.1303 23.314 17.3458 23.6289 15.1678C23.9438 12.9897 26.0431 11.2052 28.2737 11.2052C30.5042 11.2052 32.0525 12.9897 31.7376 15.1678C31.3964 17.3458 29.3233 19.1303 27.0928 19.1303ZM44.0187 7.58388H40.6073C39.8988 7.58388 39.6101 8.10872 39.8463 8.76476L44.0712 21.1771L39.8988 27.0553C39.5576 27.5539 39.8201 28 40.3186 28H44.1499C44.7273 28 44.9897 27.8426 45.2783 27.4489L58.2943 8.76476C58.6879 8.18744 58.5042 7.58388 57.8482 7.58388H54.2268C53.597 7.58388 53.3608 7.82006 52.9934 8.34489L47.5614 16.2174L45.1471 8.31865C45.0159 7.82006 44.6748 7.58388 44.0187 7.58388Z" fill="#113984"/>
<path fill-rule="evenodd" clip-rule="evenodd" d="M71.8876 0C75.3253 0 78.4743 1.86317 78.0544 6.50797C77.5296 12.0187 74.5905 15.0628 69.9195 15.089H65.852C65.2747 15.089 64.986 15.5614 64.8286 16.5586L64.0413 21.5708C63.9101 22.3318 63.5427 22.6992 62.9654 22.6992H59.1866C58.583 22.6992 58.3731 22.3055 58.5043 21.4396L61.6271 1.39082C61.7845 0.393627 62.1519 0.0262418 62.8342 0.0262418H71.8876V0ZM65.7208 10.7329H68.8173C70.733 10.6542 72.0188 9.31584 72.15 6.92783C72.2287 5.43205 71.2316 4.38238 69.6308 4.38238L66.718 4.40862L65.7208 10.7329ZM88.3412 21.1246C88.6824 20.8097 89.0497 20.6523 88.9973 21.0459L88.866 21.9644C88.8136 22.4367 88.9972 22.6992 89.4434 22.6992H92.8023C93.3796 22.6992 93.642 22.463 93.7733 21.597L95.8464 8.58107C95.9513 7.92502 95.7939 7.61012 95.2953 7.61012H91.5952C91.254 7.61012 91.0966 7.79381 91.0179 8.31865L90.8867 9.13215C90.8079 9.55202 90.6242 9.63074 90.4406 9.21087C89.8108 7.71509 88.21 7.05904 85.9794 7.11153C80.7836 7.2165 77.2934 11.1528 76.926 16.2174C76.6374 20.1275 79.4452 23.1978 83.1191 23.1978C85.7958 23.1453 86.9766 22.358 88.3412 21.1246ZM85.5071 19.1303C83.2765 19.1303 81.7283 17.3458 82.0432 15.1678C82.3581 12.9897 84.4574 11.2052 86.688 11.2052C88.9185 11.2052 90.4668 12.9897 90.1519 15.1678C89.837 17.3458 87.7376 19.1303 85.5071 19.1303ZM101.042 22.7254H97.1585C96.8436 22.7254 96.6336 22.4892 96.6861 22.2006L100.098 0.57732C100.15 0.28866 100.439 0.0524836 100.754 0.0524836H104.637C104.952 0.0524836 105.162 0.28866 105.11 0.57732L101.698 22.2006C101.646 22.4892 101.331 22.7254 101.042 22.7254Z" fill="#009EE3"/>
</svg>
