<svg width="105" height="35" viewBox="0 0 105 35" fill="none" xmlns="http://www.w3.org/2000/svg">
<path d="M96.3679 -0.000130391H8.34284C8.02198 -0.000130391 7.70497 -0.000130391 7.38496 0.00161961C7.11707 0.00336961 6.85133 0.00845336 6.58087 0.0127321C5.99332 0.0196462 5.40716 0.0713363 4.82746 0.167353C4.24858 0.265461 3.68784 0.450421 3.16419 0.715978C2.64119 0.983782 2.1633 1.33177 1.74787 1.74731C1.33026 2.16168 0.982155 2.64063 0.716931 3.16576C0.450975 3.68984 0.26656 4.25144 0.170056 4.83116C0.0726346 5.41016 0.0202111 5.99583 0.0132562 6.58291C0.00513625 6.85119 0.00427875 7.12036 0 7.38867V27.6136C0.00427875 27.8853 0.00513625 28.1485 0.0132562 28.4203C0.0202132 29.0074 0.0726367 29.593 0.170056 30.172C0.266294 30.752 0.45072 31.314 0.716931 31.8382C0.982035 32.3617 1.33019 32.8387 1.74787 33.2507C2.16173 33.6681 2.63992 34.0163 3.16419 34.2821C3.68783 34.5484 4.24852 34.7344 4.82746 34.8341C5.40725 34.9293 5.99336 34.981 6.58087 34.9888C6.85133 34.9947 7.11707 34.9981 7.38496 34.9981C7.70496 34.9999 8.022 34.9999 8.34284 34.9999H96.3679C96.6824 34.9999 97.002 34.9999 97.3164 34.9981C97.583 34.9981 97.8565 34.9947 98.1231 34.9888C98.7095 34.9814 99.2945 34.9297 99.8731 34.8341C100.454 34.7337 101.017 34.5477 101.543 34.2821C102.067 34.0162 102.544 33.668 102.958 33.2507C103.374 32.8371 103.723 32.3604 103.992 31.8382C104.256 31.3136 104.439 30.7517 104.533 30.172C104.631 29.5929 104.685 29.0074 104.696 28.4203C104.699 28.1485 104.699 27.8853 104.699 27.6136C104.706 27.2958 104.706 26.9796 104.706 26.6566V8.34398C104.706 8.02355 104.706 7.70568 104.699 7.38867C104.699 7.12036 104.699 6.85119 104.696 6.58288C104.685 5.99574 104.631 5.4102 104.533 4.83113C104.438 4.25174 104.256 3.69018 103.992 3.16572C103.452 2.11317 102.595 1.25639 101.543 0.7159C101.017 0.450991 100.454 0.26608 99.8731 0.167275C99.2946 0.0708345 98.7095 0.0191264 98.1231 0.0126096C97.8565 0.00833961 97.583 0.00321211 97.3164 0.00150586C97.002 -0.000244141 96.6824 -0.000244141 96.3679 -0.000244141V-0.000130391Z" fill="#A6A6A6"/>
<path d="M7.38901 34.2344C7.12242 34.2344 6.86226 34.231 6.59776 34.225C6.04982 34.2179 5.50316 34.1702 4.96226 34.0823C4.4579 33.9954 3.96932 33.8339 3.51262 33.6029C3.0601 33.3738 2.64737 33.0735 2.29024 32.7134C1.92794 32.3575 1.62631 31.9447 1.39729 31.4914C1.16576 31.0352 1.00552 30.5462 0.922169 30.0414C0.832153 29.499 0.783451 28.9505 0.776482 28.4008C0.770934 28.2162 0.763672 27.6018 0.763672 27.6018V7.3888C0.763672 7.3888 0.771407 6.78381 0.776526 6.60608C0.783198 6.05717 0.831618 5.50957 0.921364 4.96801C1.00487 4.46184 1.16523 3.97141 1.39689 3.51368C1.62506 3.0607 1.92502 2.64763 2.28514 2.29047C2.64485 1.92992 3.0589 1.62803 3.51219 1.39581C3.96784 1.16558 4.4555 1.00514 4.95884 0.919861C5.50151 0.831107 6.05007 0.783122 6.59991 0.776309L7.38944 0.765625H97.3119L98.1109 0.776738C98.6557 0.783212 99.1993 0.830769 99.737 0.919004C100.245 1.00535 100.738 1.16691 101.199 1.39837C102.107 1.86636 102.846 2.60677 103.312 3.51581C103.54 3.97038 103.698 4.45682 103.78 4.95862C103.871 5.50462 103.922 6.05652 103.933 6.60993C103.935 6.85773 103.935 7.1239 103.935 7.3888C103.942 7.71692 103.942 8.02924 103.942 8.34411V26.6567C103.942 26.9746 103.942 27.2848 103.935 27.5975C103.935 27.8821 103.935 28.1427 103.932 28.411C103.921 28.9545 103.871 29.4966 103.782 30.0328C103.7 30.5412 103.541 31.0341 103.31 31.4941C103.079 31.9424 102.779 32.3516 102.421 32.7065C102.064 33.0686 101.65 33.3707 101.196 33.6012C100.737 33.834 100.245 33.9961 99.737 34.0823C99.1961 34.1706 98.6494 34.2183 98.1014 34.225C97.8451 34.231 97.5768 34.2344 97.3162 34.2344L96.3677 34.2361L7.38901 34.2344Z" fill="black"/>
<path d="M21.6727 17.763C21.6822 17.0327 21.8761 16.3166 22.2367 15.6814C22.5972 15.0462 23.1125 14.5125 23.7347 14.13C23.3395 13.5655 22.818 13.1009 22.2118 12.7732C21.6056 12.4454 20.9313 12.2636 20.2425 12.242C18.7731 12.0878 17.3487 13.1212 16.5999 13.1212C15.8367 13.1212 14.6839 12.2573 13.4425 12.2829C12.6395 12.3088 11.857 12.5423 11.1711 12.9606C10.4852 13.3789 9.91935 13.9677 9.52869 14.6697C7.83644 17.5996 9.09871 21.9055 10.7197 24.2738C11.5308 25.4335 12.4786 26.7289 13.7189 26.683C14.9326 26.6326 15.3859 25.909 16.8509 25.909C18.3023 25.909 18.7276 26.683 19.993 26.6538C21.2954 26.6326 22.1159 25.4889 22.8985 24.3183C23.4812 23.4919 23.9296 22.5787 24.2271 21.6123C23.4705 21.2923 22.8248 20.7566 22.3706 20.0721C21.9163 19.3876 21.6736 18.5845 21.6727 17.763Z" fill="white"/>
<path d="M19.2826 10.6844C19.9927 9.83199 20.3425 8.73633 20.2578 7.63013C19.173 7.74407 18.1709 8.26256 17.4512 9.08229C17.0993 9.48274 16.8298 9.94863 16.6581 10.4533C16.4864 10.958 16.4158 11.4915 16.4505 12.0235C16.9931 12.0291 17.5299 11.9115 18.0205 11.6795C18.5111 11.4476 18.9426 11.1073 19.2826 10.6844Z" fill="white"/>
<path d="M37.0146 23.747H32.8729L31.8783 26.6839H30.124L34.047 15.8181H35.8696L39.7926 26.6839H38.0084L37.0146 23.747ZM33.3019 22.3917H36.5849L34.9665 17.6254H34.9212L33.3019 22.3917Z" fill="white"/>
<path d="M48.265 22.7233C48.265 25.1851 46.9474 26.7667 44.959 26.7667C44.4553 26.7931 43.9544 26.677 43.5136 26.4319C43.0727 26.1868 42.7099 25.8225 42.4665 25.3807H42.4288V29.3046H40.8027V18.7618H42.3767V20.0795H42.4066C42.6612 19.6398 43.0302 19.2774 43.4744 19.0308C43.9186 18.7842 44.4213 18.6626 44.9291 18.679C46.9397 18.679 48.265 20.2683 48.265 22.7233ZM46.5937 22.7233C46.5937 21.1194 45.7648 20.0649 44.5001 20.0649C43.2577 20.0649 42.422 21.1416 42.422 22.7233C42.422 24.3195 43.2577 25.3884 44.5001 25.3884C45.7648 25.3884 46.5937 24.3417 46.5937 22.7233Z" fill="white"/>
<path d="M56.9843 22.7233C56.9843 25.1851 55.6667 26.7667 53.6782 26.7667C53.1746 26.7931 52.6736 26.677 52.2328 26.4319C51.792 26.1868 51.4291 25.8225 51.1857 25.3807H51.1481V29.3045H49.522V18.7618H51.0959V20.0795H51.1258C51.3804 19.6398 51.7494 19.2774 52.1936 19.0308C52.6378 18.7842 53.1405 18.6626 53.6483 18.679C55.659 18.679 56.9843 20.2683 56.9843 22.7233ZM55.3129 22.7233C55.3129 21.1194 54.484 20.0649 53.2194 20.0649C51.977 20.0649 51.1413 21.1416 51.1413 22.7233C51.1413 24.3195 51.977 25.3884 53.2194 25.3884C54.484 25.3884 55.3129 24.3417 55.3129 22.7233H55.3129Z" fill="white"/>
<path d="M62.7466 23.6564C62.8671 24.7339 63.9139 25.4414 65.3443 25.4414C66.7149 25.4414 67.701 24.7339 67.701 23.7623C67.701 22.919 67.1062 22.414 65.698 22.0679L64.2898 21.7286C62.2946 21.2467 61.3683 20.3136 61.3683 18.7994C61.3683 16.9247 63.0021 15.637 65.3221 15.637C67.6181 15.637 69.192 16.9247 69.245 18.7994H67.6035C67.5053 17.7151 66.6089 17.0606 65.299 17.0606C63.989 17.0606 63.0927 17.7228 63.0927 18.6867C63.0927 19.4548 63.6652 19.9069 65.0657 20.2529L66.2628 20.5469C68.4922 21.0741 69.4185 21.9696 69.4185 23.5589C69.4185 25.5918 67.7992 26.865 65.2238 26.865C62.8141 26.865 61.1871 25.6217 61.082 23.6563L62.7466 23.6564Z" fill="white"/>
<path d="M72.9282 16.8872V18.762H74.4347V20.0497H72.9282V24.417C72.9282 25.0955 73.2299 25.4116 73.8921 25.4116C74.0709 25.4085 74.2495 25.3959 74.427 25.374V26.654C74.1293 26.7097 73.8266 26.7349 73.5238 26.7292C71.9199 26.7292 71.2944 26.1268 71.2944 24.5904V20.0497H70.1426V18.762H71.2944V16.8872H72.9282Z" fill="white"/>
<path d="M75.3071 22.7234C75.3071 20.2308 76.7751 18.6646 79.0643 18.6646C81.3612 18.6646 82.8224 20.2308 82.8224 22.7234C82.8224 25.2228 81.3689 26.7822 79.0643 26.7822C76.7606 26.7822 75.3071 25.2228 75.3071 22.7234ZM81.1655 22.7234C81.1655 21.0135 80.382 20.0044 79.0643 20.0044C77.7467 20.0044 76.964 21.0212 76.964 22.7234C76.964 24.4401 77.7467 25.4415 79.0643 25.4415C80.382 25.4415 81.1655 24.4401 81.1655 22.7234H81.1655Z" fill="white"/>
<path d="M84.1631 18.7618H85.714V20.1101H85.7516C85.8565 19.689 86.1033 19.3168 86.4503 19.0562C86.7973 18.7956 87.2235 18.6623 87.6571 18.6789C87.8445 18.6782 88.0314 18.6986 88.2143 18.7395V20.2605C87.9777 20.1882 87.7309 20.1551 87.4836 20.1623C87.2474 20.1527 87.0119 20.1943 86.7933 20.2844C86.5747 20.3744 86.3781 20.5107 86.2172 20.6838C86.0562 20.857 85.9346 21.0629 85.8607 21.2875C85.7868 21.5121 85.7624 21.75 85.7892 21.9849V26.6838H84.1631L84.1631 18.7618Z" fill="white"/>
<path d="M95.7115 24.3572C95.4928 25.7953 94.0923 26.7822 92.3004 26.7822C89.9958 26.7822 88.5654 25.2382 88.5654 22.761C88.5654 20.2761 90.0035 18.6646 92.2321 18.6646C94.4238 18.6646 95.8021 20.1702 95.8021 22.5721V23.1293H90.2069V23.2275C90.1811 23.5191 90.2176 23.8128 90.314 24.0892C90.4104 24.3655 90.5645 24.6182 90.7661 24.8304C90.9676 25.0427 91.212 25.2096 91.4831 25.3201C91.7541 25.4306 92.0455 25.4822 92.338 25.4714C92.7223 25.5074 93.1079 25.4184 93.4375 25.2177C93.7672 25.0169 94.0232 24.7151 94.1675 24.3572L95.7115 24.3572ZM90.2146 21.9928H94.1752C94.1898 21.7306 94.15 21.4683 94.0584 21.2223C93.9668 20.9762 93.8254 20.7517 93.6429 20.5629C93.4605 20.3741 93.2409 20.2251 92.9982 20.1252C92.7554 20.0252 92.4945 19.9765 92.2321 19.9822C91.9673 19.9806 91.7048 20.0315 91.4597 20.1319C91.2147 20.2323 90.992 20.3802 90.8044 20.5671C90.6168 20.7541 90.4681 20.9763 90.3669 21.221C90.2657 21.4657 90.2139 21.728 90.2146 21.9928V21.9928Z" fill="white"/>
<path d="M33.0978 7.63947C33.4387 7.61501 33.7808 7.66651 34.0994 7.79026C34.418 7.91402 34.7051 8.10694 34.9402 8.35511C35.1752 8.60328 35.3522 8.90052 35.4584 9.22538C35.5646 9.55024 35.5974 9.89463 35.5544 10.2337C35.5544 11.9017 34.653 12.8605 33.0978 12.8605H31.2119V7.63947H33.0978ZM32.0228 12.1221H33.0072C33.2508 12.1367 33.4946 12.0967 33.7208 12.0052C33.947 11.9136 34.15 11.7728 34.3149 11.5929C34.4799 11.4131 34.6026 11.1987 34.6742 10.9654C34.7459 10.7321 34.7646 10.4858 34.729 10.2443C34.762 10.0039 34.7414 9.75906 34.6687 9.52748C34.5959 9.2959 34.4729 9.08328 34.3083 8.90484C34.1438 8.7264 33.9418 8.58657 33.7168 8.49536C33.4919 8.40415 33.2496 8.36383 33.0072 8.37728H32.0228V12.1221Z" fill="white"/>
<path d="M36.4702 10.8888C36.4454 10.6299 36.4751 10.3686 36.5572 10.1218C36.6393 9.87502 36.7721 9.64809 36.947 9.45561C37.122 9.26312 37.3352 9.10933 37.5731 9.00409C37.811 8.89885 38.0682 8.84448 38.3283 8.84448C38.5884 8.84448 38.8457 8.89885 39.0835 9.00409C39.3214 9.10933 39.5346 9.26312 39.7096 9.45561C39.8845 9.64809 40.0173 9.87502 40.0994 10.1218C40.1815 10.3686 40.2112 10.6299 40.1864 10.8888C40.2116 11.148 40.1824 11.4096 40.1005 11.6568C40.0186 11.904 39.8859 12.1314 39.7109 12.3242C39.5359 12.5171 39.3225 12.6712 39.0844 12.7767C38.8463 12.8822 38.5887 12.9366 38.3283 12.9366C38.0679 12.9366 37.8103 12.8822 37.5722 12.7767C37.3341 12.6712 37.1207 12.5171 36.9457 12.3242C36.7707 12.1314 36.638 11.904 36.5561 11.6568C36.4742 11.4096 36.445 11.148 36.4702 10.8888ZM39.3866 10.8888C39.3866 10.0348 39.0029 9.5353 38.3296 9.5353C37.6537 9.5353 37.2735 10.0348 37.2735 10.8888C37.2735 11.7497 37.6537 12.2453 38.3296 12.2453C39.0029 12.2453 39.3866 11.7463 39.3866 10.8888H39.3866Z" fill="white"/>
<path d="M45.1265 12.8605H44.3198L43.5055 9.95861H43.444L42.6331 12.8605H41.8341L40.748 8.92041H41.5367L42.2426 11.9269H42.3007L43.1107 8.92041H43.8567L44.6668 11.9269H44.7283L45.4307 8.92041H46.2083L45.1265 12.8605Z" fill="white"/>
<path d="M47.1216 8.92051H47.8701V9.54642H47.9282C48.0268 9.32162 48.1931 9.13317 48.4038 9.00734C48.6146 8.88151 48.8593 8.82457 49.104 8.84445C49.2957 8.83004 49.4882 8.85895 49.6672 8.92903C49.8463 8.99912 50.0072 9.10858 50.1382 9.24932C50.2692 9.39006 50.3668 9.55846 50.4239 9.74205C50.4809 9.92565 50.4959 10.1197 50.4678 10.3099V12.8605H49.6902V10.5052C49.6902 9.87199 49.415 9.55711 48.84 9.55711C48.7098 9.55105 48.5799 9.5732 48.4591 9.62205C48.3383 9.6709 48.2295 9.7453 48.1401 9.84013C48.0507 9.93497 47.9829 10.048 47.9414 10.1715C47.8998 10.295 47.8854 10.426 47.8992 10.5556V12.8606H47.1216L47.1216 8.92051Z" fill="white"/>
<path d="M51.707 7.38232H52.4846V12.8605H51.707V7.38232Z" fill="white"/>
<path d="M53.5654 10.8886C53.5407 10.6297 53.5703 10.3684 53.6524 10.1216C53.7346 9.8748 53.8674 9.64786 54.0423 9.45537C54.2173 9.26289 54.4306 9.10909 54.6685 9.00385C54.9063 8.8986 55.1636 8.84424 55.4237 8.84424C55.6838 8.84424 55.9411 8.8986 56.179 9.00385C56.4169 9.10909 56.6301 9.26289 56.8051 9.45537C56.9801 9.64786 57.1129 9.8748 57.195 10.1216C57.2771 10.3684 57.3068 10.6297 57.282 10.8886C57.3072 11.1478 57.2779 11.4095 57.196 11.6567C57.1141 11.9039 56.9814 12.1312 56.8064 12.3241C56.6313 12.5169 56.4179 12.671 56.1798 12.7765C55.9417 12.882 55.6841 12.9364 55.4237 12.9364C55.1633 12.9364 54.9057 12.882 54.6676 12.7765C54.4295 12.671 54.2161 12.5169 54.0411 12.3241C53.8661 12.1312 53.7333 11.9039 53.6514 11.6567C53.5695 11.4095 53.5402 11.1478 53.5654 10.8886ZM56.4818 10.8886C56.4818 10.0346 56.0981 9.53513 55.4248 9.53513C54.7489 9.53513 54.3687 10.0346 54.3687 10.8887C54.3687 11.7496 54.7489 12.2452 55.4248 12.2452C56.0981 12.2451 56.4818 11.7461 56.4818 10.8886H56.4818Z" fill="white"/>
<path d="M58.1006 11.7463C58.1006 11.0371 58.6287 10.6282 59.566 10.5701L60.6333 10.5086V10.1685C60.6333 9.75237 60.3582 9.51739 59.8267 9.51739C59.3926 9.51739 59.0918 9.67676 59.0055 9.95532H58.2527C58.3322 9.27856 58.9688 8.84448 59.8626 8.84448C60.8503 8.84448 61.4075 9.33623 61.4075 10.1685V12.8606H60.6589V12.3069H60.5974C60.4725 12.5055 60.2972 12.6674 60.0893 12.7761C59.8813 12.8848 59.6483 12.9363 59.4139 12.9255C59.2485 12.9427 59.0814 12.9251 58.9232 12.8737C58.765 12.8223 58.6194 12.7384 58.4956 12.6273C58.3719 12.5162 58.2728 12.3804 58.2048 12.2287C58.1367 12.0769 58.1012 11.9126 58.1006 11.7463ZM60.6333 11.4097V11.0803L59.6711 11.1418C59.1285 11.1781 58.8824 11.3627 58.8824 11.71C58.8824 12.0646 59.1901 12.271 59.6131 12.271C59.737 12.2835 59.8622 12.271 59.9812 12.2342C60.1002 12.1974 60.2106 12.137 60.3058 12.0566C60.401 11.9762 60.479 11.8776 60.5353 11.7664C60.5916 11.6553 60.6249 11.5339 60.6333 11.4097Z" fill="white"/>
<path d="M62.4297 10.8887C62.4297 9.64375 63.0697 8.85505 64.0652 8.85505C64.3114 8.84371 64.5558 8.90269 64.7698 9.02509C64.9837 9.1475 65.1584 9.32828 65.2734 9.5463H65.3316V7.38232H66.1091V12.8605H65.364V12.238H65.3025C65.1786 12.4545 64.9978 12.6331 64.7797 12.7542C64.5616 12.8754 64.3145 12.9346 64.0652 12.9254C63.0629 12.9254 62.4297 12.1367 62.4297 10.8887ZM63.2329 10.8887C63.2329 11.7244 63.6269 12.2273 64.2857 12.2273C64.9411 12.2273 65.3461 11.7172 65.3461 10.8922C65.3461 10.071 64.9368 9.5536 64.2857 9.5536C63.6311 9.5536 63.2329 10.0599 63.2329 10.8887H63.2329Z" fill="white"/>
<path d="M69.3262 10.8888C69.3014 10.6299 69.331 10.3686 69.4131 10.1218C69.4952 9.87502 69.628 9.64809 69.803 9.45561C69.9779 9.26312 70.1912 9.10933 70.429 9.00409C70.6669 8.89885 70.9242 8.84448 71.1843 8.84448C71.4444 8.84448 71.7016 8.89885 71.9395 9.00409C72.1774 9.10933 72.3906 9.26312 72.5655 9.45561C72.7405 9.64809 72.8733 9.87502 72.9554 10.1218C73.0375 10.3686 73.0671 10.6299 73.0424 10.8888C73.0676 11.148 73.0383 11.4096 72.9564 11.6568C72.8745 11.904 72.7418 12.1314 72.5668 12.3242C72.3918 12.5171 72.1784 12.6712 71.9403 12.7767C71.7022 12.8822 71.4447 12.9366 71.1843 12.9366C70.9238 12.9366 70.6663 12.8822 70.4282 12.7767C70.1901 12.6712 69.9767 12.5171 69.8017 12.3242C69.6267 12.1314 69.494 11.904 69.4121 11.6568C69.3302 11.4096 69.3009 11.148 69.3262 10.8888ZM72.2425 10.8888C72.2425 10.0348 71.8589 9.5353 71.1855 9.5353C70.5096 9.5353 70.1294 10.0348 70.1294 10.8888C70.1294 11.7497 70.5097 12.2453 71.1855 12.2453C71.8589 12.2453 72.2425 11.7463 72.2425 10.8888Z" fill="white"/>
<path d="M74.0854 8.92051H74.834V9.54642H74.8921C74.9907 9.32162 75.1569 9.13317 75.3677 9.00734C75.5784 8.88151 75.8232 8.82457 76.0679 8.84445C76.2596 8.83004 76.4521 8.85895 76.6311 8.92903C76.8101 8.99912 76.9711 9.10858 77.1021 9.24932C77.233 9.39006 77.3307 9.55846 77.3877 9.74205C77.4448 9.92565 77.4598 10.1197 77.4316 10.3099V12.8605H76.6541V10.5052C76.6541 9.87199 76.3789 9.55711 75.8038 9.55711C75.6737 9.55105 75.5437 9.5732 75.4229 9.62205C75.3021 9.6709 75.1933 9.7453 75.104 9.84013C75.0146 9.93497 74.9468 10.048 74.9052 10.1715C74.8636 10.295 74.8493 10.426 74.863 10.5556V12.8606H74.0854V8.92051Z" fill="white"/>
<path d="M81.8258 7.93945V8.93835H82.6795V9.59333H81.8258V11.6193C81.8258 12.032 81.9959 12.2128 82.3829 12.2128C82.482 12.2125 82.581 12.2065 82.6795 12.1948V12.8425C82.5398 12.8675 82.3983 12.8808 82.2565 12.8823C81.3917 12.8823 81.0474 12.5781 81.0474 11.8184V9.59329H80.4219V8.93832H81.0474V7.93945H81.8258Z" fill="white"/>
<path d="M83.7412 7.38232H84.512V9.55359H84.5735C84.6768 9.32669 84.8477 9.13717 85.0627 9.01087C85.2776 8.88456 85.5263 8.82761 85.7749 8.84778C85.9656 8.8374 86.1562 8.86925 86.3332 8.94103C86.5102 9.01282 86.6692 9.12278 86.7988 9.26308C86.9284 9.40337 87.0254 9.57054 87.083 9.75266C87.1406 9.93478 87.1572 10.1274 87.1318 10.3167V12.8605H86.3534V10.5085C86.3534 9.87915 86.0603 9.56042 85.5109 9.56042C85.3773 9.54946 85.2428 9.56783 85.117 9.61425C84.9912 9.66067 84.8771 9.73402 84.7826 9.82917C84.6881 9.92431 84.6155 10.039 84.57 10.1651C84.5244 10.2912 84.507 10.4257 84.5188 10.5593V12.8605H83.7412L83.7412 7.38232Z" fill="white"/>
<path d="M91.6657 11.7966C91.5601 12.1567 91.3312 12.4682 91.0191 12.6765C90.707 12.8849 90.3315 12.9769 89.9585 12.9365C89.6989 12.9433 89.4409 12.8936 89.2025 12.7908C88.964 12.6879 88.7508 12.5344 88.5777 12.3409C88.4045 12.1474 88.2755 11.9186 88.1996 11.6702C88.1238 11.4219 88.1029 11.16 88.1384 10.9028C88.1038 10.6448 88.1251 10.3823 88.2008 10.1332C88.2764 9.88413 88.4048 9.65421 88.577 9.45902C88.7493 9.26383 88.9615 9.10793 89.1992 9.00188C89.437 8.89582 89.6947 8.84208 89.955 8.8443C91.0513 8.8443 91.7127 9.5933 91.7127 10.8306V11.1019H88.9305V11.1455C88.9183 11.29 88.9365 11.4356 88.9839 11.5727C89.0312 11.7099 89.1067 11.8356 89.2055 11.9419C89.3043 12.0482 89.4242 12.1326 89.5576 12.1899C89.6909 12.2471 89.8347 12.2758 89.9798 12.2742C90.1658 12.2965 90.3543 12.263 90.5212 12.178C90.6881 12.0929 90.8259 11.9602 90.9172 11.7965L91.6657 11.7966ZM88.9305 10.5268H90.9206C90.9304 10.3946 90.9124 10.2617 90.8678 10.1369C90.8232 10.012 90.753 9.89781 90.6617 9.80168C90.5704 9.70556 90.4599 9.6296 90.3375 9.5787C90.215 9.5278 90.0833 9.50307 89.9507 9.50611C89.8163 9.50442 89.6828 9.52967 89.5582 9.58037C89.4336 9.63107 89.3205 9.7062 89.2254 9.80133C89.1303 9.89645 89.0552 10.0096 89.0046 10.1342C88.9539 10.2588 88.9287 10.3923 88.9305 10.5268H88.9305Z" fill="white"/>
</svg>
