<svg width="72" height="46" viewBox="0 0 72 46" fill="none" xmlns="http://www.w3.org/2000/svg">
<path d="M0.250488 0H71.6497V45.4604H0.269759L0.250488 0Z" fill="white"/>
<path d="M71.3797 25.2837C71.3797 25.2837 51.8774 39.0432 16.1489 45.21H71.3797V25.2837Z" fill="#F58220"/>
<path d="M37.6555 11.4084C34.7263 11.4084 32.356 13.7017 32.356 16.5153C32.356 19.5216 34.6299 21.757 37.6555 21.757C40.604 21.757 42.955 19.483 42.955 16.5731C42.955 13.6824 40.6232 11.4084 37.6555 11.4084Z" fill="url(#paint0_radial_1_161)"/>
<path d="M7.53496 11.6013H4.66357V21.5452H7.51569C9.01883 21.5452 10.1173 21.179 11.0616 20.3889C12.1986 19.4446 12.873 18.0378 12.873 16.5732C12.873 13.6441 10.6761 11.6013 7.53496 11.6013ZM9.78967 19.0592C9.173 19.6181 8.38289 19.8493 7.13027 19.8493H6.60995V13.2779H7.13027C8.38289 13.2779 9.15373 13.5092 9.78967 14.0873C10.4642 14.6847 10.8689 15.6097 10.8689 16.554C10.8689 17.5175 10.4642 18.4811 9.78967 19.0592Z" fill="black"/>
<path d="M15.7057 11.6013H13.7593V21.5452H15.7057V11.6013Z" fill="black"/>
<path d="M20.4464 15.4169C19.2901 14.9929 18.9432 14.7038 18.9432 14.1642C18.9432 13.5283 19.5599 13.0658 20.3886 13.0658C20.9667 13.0658 21.4485 13.297 21.9495 13.8752L22.9709 12.5455C22.1422 11.8132 21.1401 11.447 20.0417 11.447C18.288 11.447 16.939 12.6804 16.939 14.2991C16.939 15.6674 17.5557 16.3804 19.3865 17.0356C20.1573 17.3054 20.5427 17.4789 20.7354 17.5945C21.1209 17.845 21.3136 18.2112 21.3136 18.6159C21.3136 19.4252 20.6776 20.0226 19.8104 20.0226C18.8854 20.0226 18.1338 19.5601 17.6906 18.6929L16.438 19.907C17.3245 21.2174 18.4036 21.7956 19.8875 21.7956C21.911 21.7956 23.3178 20.4466 23.3178 18.5195C23.3178 16.9393 22.6625 16.207 20.4464 15.4169Z" fill="black"/>
<path d="M23.9346 16.573C23.9346 19.5022 26.2278 21.7762 29.1956 21.7762C30.0242 21.7762 30.7565 21.6028 31.6237 21.1981V18.9048C30.8529 19.6757 30.1591 20.0033 29.2727 20.0033C27.3263 20.0033 25.9195 18.5772 25.9195 16.573C25.9195 14.6652 27.3455 13.1621 29.1763 13.1621C30.1013 13.1621 30.7951 13.4897 31.6044 14.2798V11.9673C30.7565 11.5433 30.0435 11.3506 29.2148 11.3506C26.2856 11.3699 23.9346 13.6824 23.9346 16.573Z" fill="black"/>
<path d="M47.349 18.2691L44.6896 11.6013H42.5698L46.7902 21.7957H47.8308L52.1283 11.6013H50.0277L47.349 18.2691Z" fill="black"/>
<path d="M53.0146 21.5452H58.5262V19.8686H54.961V17.1707H58.3913V15.4941H54.961V13.2779H58.5262V11.6013H53.0146V21.5452Z" fill="black"/>
<path d="M66.2154 14.5305C66.2154 12.6612 64.9242 11.6013 62.6888 11.6013H59.8174V21.5452H61.7638V17.5368H62.0143L64.693 21.5452H67.0826L63.9414 17.3441C65.406 17.055 66.2154 16.0529 66.2154 14.5305ZM62.3226 16.1686H61.7638V13.1623H62.3612C63.5752 13.1623 64.2305 13.6633 64.2305 14.6461C64.2112 15.629 63.556 16.1686 62.3226 16.1686Z" fill="black"/>
<path d="M67.5835 12.3335C67.5835 12.1601 67.4678 12.0637 67.2559 12.0637H66.9668V12.9309H67.1788V12.584L67.4293 12.9309H67.6798L67.3908 12.5648C67.5064 12.5455 67.5835 12.4491 67.5835 12.3335ZM67.2173 12.4491H67.1788V12.2179H67.2173C67.3137 12.2179 67.3715 12.2564 67.3715 12.3335C67.3715 12.4106 67.3137 12.4491 67.2173 12.4491Z" fill="black"/>
<path d="M67.2943 11.7361C66.8703 11.7361 66.5234 12.083 66.5234 12.5069C66.5234 12.9309 66.8703 13.2778 67.2943 13.2778C67.7182 13.2778 68.0458 12.9309 68.0458 12.5069C68.0458 12.083 67.699 11.7361 67.2943 11.7361ZM67.2943 13.1236C66.9474 13.1236 66.6776 12.8345 66.6776 12.4877C66.6776 12.1408 66.9474 11.8517 67.2943 11.8517C67.6219 11.8517 67.8917 12.1408 67.8917 12.4877C67.8917 12.8538 67.6219 13.1236 67.2943 13.1236Z" fill="black"/>
<path d="M22.0654 24.166L24.667 26.8832V24.3009H25.0332V27.789L22.4316 25.0718V27.6348H22.0654V24.166Z" fill="black"/>
<path d="M22.0459 24.166V27.6733H22.4891C22.4891 27.6733 22.4891 25.3222 22.4891 25.168C22.6048 25.2837 25.0907 27.8853 25.0907 27.8853V24.2816H24.6475C24.6475 24.2816 24.6475 26.6519 24.6475 26.8061C24.5319 26.6905 22.0459 24.0889 22.0459 24.0889V24.166ZM22.1037 24.243C22.2193 24.3587 24.7053 26.9603 24.7053 26.9603C24.7053 26.9603 24.7053 24.3972 24.7053 24.3201C24.7631 24.3201 24.9558 24.3201 25.0136 24.3201C25.0136 24.3779 25.0136 27.5191 25.0136 27.6733C24.898 27.5577 22.412 24.9561 22.412 24.9561C22.412 24.9561 22.412 27.4998 22.412 27.5769C22.3542 27.5769 22.1615 27.5769 22.1037 27.5769C22.1037 27.5384 22.1037 24.4165 22.1037 24.243Z" fill="black"/>
<path d="M26.8447 24.3008H28.5791V24.6477H27.2301V25.6305H28.5406V25.9774H27.2301V27.2878H28.5791V27.6347H26.8447V24.3008Z" fill="black"/>
<path d="M28.5598 24.2622H26.8062V27.6732H28.5984V27.2492C28.5984 27.2492 27.3072 27.2492 27.2494 27.2492C27.2494 27.1914 27.2494 26.0737 27.2494 26.0159C27.3072 26.0159 28.5598 26.0159 28.5598 26.0159V25.6112C28.5598 25.6112 27.3072 25.6112 27.2494 25.6112C27.2494 25.5534 27.2494 24.744 27.2494 24.6862C27.3072 24.6862 28.5984 24.6862 28.5984 24.6862V24.2622H28.5598ZM28.5213 24.3393C28.5213 24.3971 28.5213 24.5705 28.5213 24.6091C28.4635 24.6091 27.1723 24.6091 27.1723 24.6091V25.669C27.1723 25.669 28.4249 25.669 28.4827 25.669C28.4827 25.7268 28.4827 25.9002 28.4827 25.9388C28.4249 25.9388 27.1723 25.9388 27.1723 25.9388V27.307C27.1723 27.307 28.4635 27.307 28.5213 27.307C28.5213 27.3648 28.5213 27.5383 28.5213 27.5768C28.4635 27.5768 26.9218 27.5768 26.864 27.5768C26.864 27.519 26.864 24.3778 26.864 24.32C26.941 24.3393 28.4635 24.3393 28.5213 24.3393Z" fill="black"/>
<path d="M31.1804 27.6347H30.8143V24.6477H30.0049V24.3008H31.9898V24.6477H31.1804V27.6347Z" fill="black"/>
<path d="M31.9898 24.2622H29.9663V24.6862C29.9663 24.6862 30.6986 24.6862 30.7757 24.6862C30.7757 24.744 30.7757 27.6732 30.7757 27.6732H31.2189C31.2189 27.6732 31.2189 24.7633 31.2189 24.6862C31.2767 24.6862 32.0283 24.6862 32.0283 24.6862V24.2622H31.9898ZM31.9705 24.3393C31.9705 24.3971 31.9705 24.5705 31.9705 24.6091C31.9127 24.6091 31.1611 24.6091 31.1611 24.6091C31.1611 24.6091 31.1611 27.519 31.1611 27.5961C31.1033 27.5961 30.9106 27.5961 30.8528 27.5961C30.8528 27.5383 30.8528 24.6091 30.8528 24.6091C30.8528 24.6091 30.1205 24.6091 30.0434 24.6091C30.0434 24.5513 30.0434 24.3778 30.0434 24.3393C30.1012 24.3393 31.8934 24.3393 31.9705 24.3393Z" fill="black"/>
<path d="M34.476 26.8061L35.5552 24.1274L36.6343 26.8061L37.5015 24.3202H37.9062L36.6343 27.8275L35.5552 25.1488L34.476 27.8275L33.2041 24.3202H33.6088L34.476 26.8061Z" fill="black"/>
<path d="M35.5163 24.1083C35.5163 24.1083 34.5335 26.5365 34.4757 26.6907C34.4179 26.5365 33.6278 24.2625 33.6278 24.2625H33.146L34.4757 27.9047C34.4757 27.9047 35.4971 25.361 35.5549 25.2261C35.6127 25.3802 36.6341 27.9047 36.6341 27.9047L37.9638 24.2625H37.482C37.482 24.2625 36.6919 26.5365 36.6341 26.6907C36.5762 26.5365 35.5549 24.0312 35.5549 24.0312L35.5163 24.1083ZM34.5142 26.8063C34.5142 26.8063 35.4971 24.3589 35.5549 24.224C35.6127 24.3781 36.6341 26.9026 36.6341 26.9026C36.6341 26.9026 37.5205 24.3974 37.5398 24.3396C37.5783 24.3396 37.7903 24.3396 37.8674 24.3396C37.8289 24.4359 36.6919 27.5579 36.6341 27.712C36.5762 27.5579 35.5549 25.0333 35.5549 25.0333C35.5549 25.0333 34.5335 27.5579 34.4757 27.712C34.4179 27.5579 33.2809 24.4359 33.2424 24.3396C33.3194 24.3396 33.5314 24.3396 33.57 24.3396C33.5892 24.3781 34.4757 26.9026 34.4757 26.9026L34.5142 26.8063Z" fill="black"/>
<path d="M42.7046 25.9773C42.7046 26.9409 41.9145 27.6924 40.9702 27.6924C40.026 27.6924 39.2358 26.9409 39.2358 25.9773C39.2358 25.033 40.026 24.2429 40.9702 24.2429C41.9145 24.2429 42.7046 25.0138 42.7046 25.9773ZM39.602 25.958C39.602 26.7096 40.2187 27.3263 40.9702 27.3263C41.7218 27.3263 42.3385 26.6903 42.3385 25.958C42.3385 25.2065 41.7411 24.5705 40.9702 24.5705C40.1994 24.5898 39.602 25.2065 39.602 25.958Z" fill="black"/>
<path d="M39.1973 25.9774C39.1973 26.941 39.9874 27.7311 40.9702 27.7311C41.953 27.7311 42.7431 26.941 42.7431 25.9774C42.7431 25.0138 41.953 24.2237 40.9702 24.2237C39.9874 24.2045 39.1973 24.9946 39.1973 25.9774ZM39.2744 25.9774C39.2744 25.0524 40.0452 24.2815 40.9702 24.2815C41.9145 24.2815 42.6661 25.0331 42.6661 25.9774C42.6661 26.9024 41.8952 27.654 40.9702 27.654C40.0259 27.654 39.2744 26.9024 39.2744 25.9774Z" fill="black"/>
<path d="M39.5635 25.9581C39.5635 26.7482 40.1994 27.3648 40.9703 27.3648C41.7411 27.3648 42.377 26.7289 42.377 25.9581C42.377 25.1872 41.7604 24.5513 40.9703 24.5513C40.1994 24.5513 39.5635 25.1872 39.5635 25.9581ZM39.6406 25.9581C39.6406 25.2258 40.238 24.6091 40.9703 24.6091C41.7026 24.6091 42.3 25.2065 42.3 25.9581C42.3 26.6904 41.7026 27.307 40.9703 27.307C40.238 27.307 39.6406 26.7096 39.6406 25.9581Z" fill="black"/>
<path d="M44.6894 27.6347H44.3232V24.3008H44.805C45.441 24.3008 46.0191 24.4742 46.0191 25.2258C46.0191 25.7461 45.6915 26.093 45.1904 26.1508L46.2503 27.6347H45.7878L44.7857 26.1701H44.6894V27.6347ZM44.6894 25.8425H44.805C45.229 25.8425 45.6529 25.7654 45.6529 25.2451C45.6529 24.7055 45.2483 24.6477 44.805 24.6477H44.6894V25.8425Z" fill="black"/>
<path d="M44.3232 24.2622H44.2847V27.6732H44.7279C44.7279 27.6732 44.7279 26.2857 44.7279 26.2086C44.7472 26.2086 44.7857 26.2086 44.7857 26.2086C44.7857 26.2279 45.7685 27.6539 45.7685 27.6539L46.2503 27.6732H46.3274C46.3274 27.6732 45.306 26.2471 45.2675 26.17C45.7493 26.1122 46.0769 25.7461 46.0769 25.2258C46.0769 24.5898 45.6722 24.2815 44.8243 24.2815H44.3232V24.2622ZM44.805 24.3393C45.6144 24.3393 45.9805 24.6284 45.9805 25.2258C45.9805 25.7268 45.6722 26.0737 45.1711 26.1122H45.1133C45.1133 26.1122 46.0961 27.4997 46.1732 27.5961C46.0769 27.5961 45.7878 27.5961 45.7878 27.5961C45.7878 27.5768 44.805 26.1508 44.805 26.1508L44.6894 26.1315H44.6508C44.6508 26.1315 44.6508 27.519 44.6508 27.5961C44.593 27.5961 44.4003 27.5961 44.3425 27.5961C44.3425 27.5383 44.3425 24.3971 44.3425 24.3393C44.4003 24.3393 44.805 24.3393 44.805 24.3393Z" fill="black"/>
<path d="M44.6894 24.6091H44.6509V25.881H44.805C45.2097 25.881 45.6915 25.8039 45.6915 25.2451C45.6915 24.6669 45.229 24.6091 44.805 24.6091H44.6894ZM44.805 24.6862C45.229 24.6862 45.6144 24.7248 45.6144 25.2451C45.6144 25.7461 45.2097 25.8039 44.805 25.8039C44.805 25.8039 44.7665 25.8039 44.728 25.8039C44.728 25.7461 44.728 24.744 44.728 24.6862C44.7472 24.6862 44.805 24.6862 44.805 24.6862Z" fill="black"/>
<path d="M49.6037 24.3008H50.1048L48.5438 25.8617L50.1626 27.6347H49.6423L48.274 26.1123L48.1777 26.2086V27.6539H47.8115V24.3201H48.1777V25.7461L49.6037 24.3008Z" fill="black"/>
<path d="M50.1047 24.2622H49.5844C49.5844 24.2622 48.3125 25.5341 48.2162 25.6497C48.2162 25.4956 48.2162 24.2622 48.2162 24.2622H47.7729V27.6732H48.2162V26.2086C48.2162 26.2086 48.2547 26.1893 48.274 26.17C48.3125 26.2279 49.623 27.6732 49.623 27.6732L50.1626 27.6925H50.2396C50.2396 27.6925 48.6401 25.9195 48.5823 25.881C48.6401 25.8424 50.1818 24.3007 50.1818 24.3007H50.1047V24.2622ZM50.0084 24.3393C49.8928 24.4549 48.486 25.8617 48.486 25.8617C48.486 25.8617 49.9698 27.4997 50.0662 27.6154C49.9506 27.6154 49.623 27.6154 49.623 27.6154C49.623 27.5961 48.274 26.093 48.274 26.093L48.2547 26.0737L48.1391 26.1893C48.1391 26.1893 48.1198 27.5576 48.1198 27.6154C48.062 27.6154 47.8693 27.6154 47.8115 27.6154C47.8115 27.5576 47.8115 24.4164 47.8115 24.3586C47.8693 24.3586 48.062 24.3586 48.1198 24.3586C48.1198 24.4164 48.1198 25.8424 48.1198 25.8424C48.1198 25.8424 49.5652 24.3778 49.5844 24.3586C49.6422 24.3393 49.912 24.3393 50.0084 24.3393Z" fill="black"/>
<defs>
<radialGradient id="paint0_radial_1_161" cx="0" cy="0" r="1" gradientUnits="userSpaceOnUse" gradientTransform="translate(37.6521 16.587) scale(5.24153)">
<stop offset="0.005618" stop-color="#FFEFE1"/>
<stop offset="0.0968211" stop-color="#FFEAD8"/>
<stop offset="0.2456" stop-color="#FEDEC1"/>
<stop offset="0.4337" stop-color="#FDCA9E"/>
<stop offset="0.6534" stop-color="#FAAF72"/>
<stop offset="0.8971" stop-color="#F79038"/>
<stop offset="1" stop-color="#F58220"/>
</radialGradient>
</defs>
</svg>
