<svg width="16" height="16" viewBox="0 0 16 16" fill="none" xmlns="http://www.w3.org/2000/svg">
<g clip-path="url(#clip0_1_43)">
<path d="M7.55759 0.18331C7.5574 0.183498 7.55718 0.183654 7.557 0.183873L4.307 3.44962C4.06353 3.69428 4.06443 4.09 4.30912 4.33353C4.55378 4.57703 4.9495 4.57609 5.193 4.33144L7.375 2.13881L7.375 15.375C7.375 15.7202 7.65481 16 8 16C8.34519 16 8.625 15.7202 8.625 15.375L8.625 2.13884L10.807 4.3314C11.0505 4.57606 11.4462 4.577 11.6909 4.3335C11.9356 4.08997 11.9364 3.69422 11.693 3.44959L8.443 0.183841C8.44281 0.183653 8.44259 0.183497 8.4424 0.183278C8.19809 -0.0615031 7.80109 -0.060721 7.55759 0.18331Z" fill="currentColor"/>
</g>
<defs>
<clipPath id="clip0_1_43">
<rect width="16" height="16" fill="currentcolor"/>
</clipPath>
</defs>
</svg>
