<svg width="45" height="45" viewBox="0 0 45 45" fill="none" xmlns="http://www.w3.org/2000/svg">
<g clip-path="url(#clip0_1_156)">
<path d="M44.9 44.9H0V0H44.9V44.9Z" fill="white"/>
<path d="M44.9 24.32V0.0200195H0V44.92H44.9V31.82C44.8 31.82 44.9 24.32 44.9 24.32Z" fill="#006FCF"/>
<path d="M39.4 21.8199H42.8V13.9199H39.1V15.0199L38.4 13.9199H35.2V15.3199L34.6 13.9199H28.7C28.5 13.9199 28.3 14.0199 28.1 14.0199C27.9 14.0199 27.8 14.1199 27.6 14.2199C27.4 14.3199 27.3 14.3199 27.1 14.4199V13.9199H10.2L9.7 15.2199L9.2 13.9199H5.2V15.3199L4.6 13.9199H1.4L0 17.3199V21.8199H2.3L2.7 20.7199H3.5L3.9 21.8199H21.5V20.8199L22.2 21.8199H27.1V21.2199C27.2 21.3199 27.4 21.3199 27.5 21.4199C27.6 21.5199 27.8 21.5199 27.9 21.6199C28.1 21.7199 28.3 21.7199 28.5 21.7199H32.1L32.5 20.6199H33.3L33.7 21.7199H38.6V20.7199L39.4 21.8199ZM44.9 31.8199V24.4199H17.4L16.7 25.4199L16 24.4199H8V32.3199H16L16.7 31.3199L17.4 32.3199H22.4V30.6199H22.2C22.9 30.6199 23.5 30.5199 24 30.3199V32.4199H27.6V31.4199L28.3 32.4199H43.2C43.8 32.2199 44.4 32.1199 44.9 31.8199Z" fill="white"/>
<path d="M43.2 29.92H40.5V31.02H43.1C44.2 31.02 44.9 30.32 44.9 29.32C44.9 28.32 44.3 27.82 43.3 27.82H42.1C41.8 27.82 41.6 27.62 41.6 27.32C41.6 27.02 41.8 26.82 42.1 26.82H44.4L44.9 25.72H42.2C41.1 25.72 40.4 26.42 40.4 27.32C40.4 28.32 41 28.82 42 28.82H43.2C43.5 28.82 43.7 29.02 43.7 29.32C43.8 29.72 43.6 29.92 43.2 29.92ZM38.3 29.92H35.6V31.02H38.2C39.3 31.02 40 30.32 40 29.32C40 28.32 39.4 27.82 38.4 27.82H37.2C36.9 27.82 36.7 27.62 36.7 27.32C36.7 27.02 36.9 26.82 37.2 26.82H39.5L40 25.72H37.3C36.2 25.72 35.5 26.42 35.5 27.32C35.5 28.32 36.1 28.82 37.1 28.82H38.3C38.6 28.82 38.8 29.02 38.8 29.32C38.9 29.72 38.6 29.92 38.3 29.92ZM34.8 26.72V25.62H30.6V30.92H34.8V29.82H31.8V28.72H34.7V27.62H31.8V26.62H34.8V26.72ZM28 26.72C28.5 26.72 28.7 27.02 28.7 27.32C28.7 27.62 28.5 27.92 28 27.92H26.5V26.62L28 26.72ZM26.5 29.02H27.1L28.7 30.92H30.2L28.4 28.92C29.3 28.72 29.8 28.12 29.8 27.32C29.8 26.32 29.1 25.62 28 25.62H25.2V30.92H26.4L26.5 29.02ZM23.3 27.42C23.3 27.82 23.1 28.12 22.6 28.12H21V26.72H22.5C23 26.72 23.3 27.02 23.3 27.42ZM19.8 25.62V30.92H21V29.12H22.6C23.7 29.12 24.5 28.42 24.5 27.32C24.5 26.32 23.8 25.52 22.7 25.52L19.8 25.62ZM18 30.92H19.5L17.4 28.22L19.5 25.62H18L16.7 27.32L15.4 25.62H13.9L16 28.22L13.9 30.82H15.4L16.7 29.12L18 30.92ZM13.5 26.72V25.62H9.3V30.92H13.5V29.82H10.5V28.72H13.4V27.62H10.5V26.62H13.5V26.72ZM37.8 17.32L39.9 20.52H41.4V15.22H40.2V18.72L39.9 18.22L38 15.22H36.4V20.52H37.6V16.92L37.8 17.32ZM32.6 17.22L33 16.12L33.4 17.22L33.9 18.42H32.1L32.6 17.22ZM34.7 20.52H36L33.7 15.22H32.1L29.8 20.52H31.1L31.6 19.42H34.2L34.7 20.52ZM29.1 20.52L29.6 19.42H29.3C28.4 19.42 27.9 18.82 27.9 17.92V17.82C27.9 16.92 28.4 16.32 29.3 16.32H30.6V15.22H29.2C27.6 15.22 26.7 16.32 26.7 17.82V17.92C26.7 19.52 27.6 20.52 29.1 20.52ZM24.6 20.52H25.8V15.32H24.6V20.52ZM22 16.32C22.5 16.32 22.7 16.62 22.7 16.92C22.7 17.22 22.5 17.52 22 17.52H20.5V16.22L22 16.32ZM20.5 18.62H21.1L22.7 20.52H24.2L22.4 18.52C23.3 18.32 23.8 17.72 23.8 16.92C23.8 15.92 23.1 15.22 22 15.22H19.2V20.52H20.4L20.5 18.62ZM18.3 16.32V15.22H14.1V20.52H18.3V19.42H15.3V18.32H18.2V17.22H15.3V16.22H18.3V16.32ZM9.2 20.52H10.3L11.8 16.22V20.52H13V15.22H11L9.8 18.82L8.6 15.22H6.6V20.52H7.8V16.22L9.2 20.52ZM2.7 17.22L3.1 16.12L3.5 17.22L4 18.42H2.2L2.7 17.22ZM4.8 20.52H6.1L3.8 15.22H2.3L0 20.52H1.3L1.8 19.42H4.4L4.8 20.52Z" fill="#006FCF"/>
</g>
<defs>
<clipPath id="clip0_1_156">
<rect width="45" height="45" fill="white"/>
</clipPath>
</defs>
</svg>
