<svg width="88" height="80" viewBox="0 0 88 80" fill="none" xmlns="http://www.w3.org/2000/svg">
<path d="M69.8003 44.8409C70.0623 44.8164 70.306 44.696 70.4848 44.5029C70.6636 44.3099 70.7649 44.0576 70.7693 43.7945V36.2053C70.7649 35.942 70.6634 35.6896 70.4844 35.4965C70.3053 35.3033 70.0613 35.1831 69.7991 35.1588L64.9002 34.6857C64.3731 32.6195 63.5376 30.6445 62.4218 28.8273L65.528 25.0774C65.6944 24.8764 65.7801 24.6206 65.7684 24.3599C65.7568 24.0992 65.6485 23.8521 65.4648 23.6668L60.1646 18.3129C59.9798 18.126 59.7316 18.0151 59.469 18.0021C59.2065 17.9891 58.9485 18.075 58.7462 18.2428L54.9885 21.359C53.1652 20.2547 51.1904 19.4224 49.1266 18.8883L48.6535 13.9887C48.6294 13.7262 48.5094 13.4817 48.3165 13.302C48.1235 13.1224 47.8712 13.02 47.6076 13.0146H40.0074C39.7437 13.0199 39.4913 13.122 39.2982 13.3016C39.1052 13.4812 38.9851 13.7257 38.9609 13.9882L38.4878 18.8762C36.4185 19.3999 34.4401 20.2329 32.6194 21.347L28.8695 18.24C28.6678 18.0731 28.4112 17.9874 28.1497 17.9998C27.8883 18.0121 27.6408 18.1215 27.4557 18.3066L22.0907 23.6619C21.9051 23.8471 21.7953 24.0949 21.783 24.3568C21.7706 24.6187 21.8566 24.8758 22.024 25.0776L25.1369 28.8322C24.0333 30.6531 23.2 32.6245 22.6629 34.6848L17.7598 35.158C17.4984 35.1828 17.2555 35.3035 17.078 35.497C16.9006 35.6904 16.8011 35.9428 16.7988 36.2053V43.7945C16.8012 44.0569 16.9008 44.3091 17.0783 44.5023C17.2557 44.6956 17.4985 44.8162 17.7598 44.8409L22.6539 45.314C23.1803 47.3802 24.0151 49.3552 25.1301 51.1725L22.0227 54.9224C21.8556 55.1242 21.7698 55.3812 21.7822 55.643C21.7947 55.9048 21.9045 56.1525 22.09 56.3375L27.4552 61.6916C27.6405 61.8765 27.8881 61.9857 28.1496 61.9977C28.4111 62.0097 28.6676 61.9238 28.8691 61.7566L32.6265 58.6413C34.4499 59.7456 36.4246 60.5779 38.4883 61.112L38.9614 66.0116C38.9856 66.274 39.1056 66.5184 39.2986 66.698C39.4915 66.8776 39.7438 66.9798 40.0074 66.9851H47.6076C47.8712 66.9799 48.1237 66.8778 48.3167 66.6982C48.5098 66.5186 48.6299 66.2741 48.654 66.0116L49.1271 61.1227C51.1964 60.599 53.1748 59.766 54.9956 58.6519L58.7463 61.7589C58.948 61.9258 59.2046 62.0115 59.4661 61.9991C59.7275 61.9868 59.975 61.8774 60.1601 61.6923L65.5249 56.3377C65.7105 56.1525 65.8202 55.9047 65.8326 55.6428C65.8449 55.3809 65.7589 55.1238 65.5915 54.922L62.4785 51.1674C63.5855 49.3464 64.4224 47.3745 64.9631 45.3132L69.8003 44.8409ZM63.0794 44.1116C62.556 46.4499 61.6152 48.6747 60.3024 50.6792C60.1801 50.8671 60.1211 51.0892 60.134 51.313C60.1469 51.5369 60.231 51.7507 60.374 51.9233L63.3605 55.5252L59.3514 59.5269L55.748 56.539C55.5743 56.395 55.3589 56.3107 55.1337 56.2985C54.9084 56.2864 54.6852 56.347 54.497 56.4714C52.5006 57.7942 50.2737 58.7305 47.9319 59.2319C47.7121 59.284 47.5142 59.4037 47.3661 59.5742C47.218 59.7447 47.1271 59.9573 47.1062 60.1822L46.6533 64.8824H40.9618L40.5087 60.1822C40.4875 59.9584 40.396 59.7471 40.2474 59.5784C40.0988 59.4098 39.9006 59.2925 39.6813 59.2433C37.34 58.7239 35.1123 57.7842 33.1063 56.4698C32.9188 56.3487 32.6977 56.2905 32.4748 56.3035C32.252 56.3164 32.0391 56.4 31.8669 56.542L28.2637 59.5283L24.2546 55.5266L27.2411 51.9244C27.3854 51.7503 27.4698 51.5344 27.4817 51.3086C27.4936 51.0828 27.4324 50.8592 27.3071 50.671C25.9821 48.6783 25.0424 46.4549 24.5368 44.116C24.487 43.8977 24.3696 43.7007 24.2014 43.553C24.0332 43.4053 23.8227 43.3144 23.5998 43.2933L18.9016 42.84V37.1598L23.5998 36.7066C23.8213 36.6854 24.0304 36.5948 24.1974 36.4479C24.3645 36.3009 24.4809 36.1051 24.5303 35.8881C25.0545 33.5497 25.9961 31.3249 27.3099 29.3206C27.4324 29.1328 27.4917 28.9108 27.4791 28.687C27.4664 28.4632 27.3826 28.2493 27.2398 28.0764L24.2539 24.4746L28.2633 20.4736L31.8668 23.4614C32.0404 23.6055 32.2558 23.6898 32.4811 23.702C32.7064 23.7142 32.9297 23.6535 33.1179 23.5291C35.1145 22.206 37.3416 21.2693 39.6837 20.7678C39.9034 20.7157 40.1013 20.596 40.2494 20.4255C40.3975 20.2551 40.4884 20.0424 40.5092 19.8176L40.9618 15.1174H46.6533L47.1062 19.8176C47.1275 20.0413 47.219 20.2526 47.3676 20.4213C47.5162 20.5899 47.7143 20.7072 47.9337 20.7564C50.2748 21.2759 52.5023 22.2156 54.5081 23.53C54.6956 23.651 54.9167 23.7092 55.1395 23.6963C55.3623 23.6833 55.5751 23.5998 55.7473 23.4578L59.3461 20.4754L63.2981 24.4687L60.3081 28.0754C60.1639 28.2494 60.0795 28.4653 60.0676 28.6911C60.0557 28.9168 60.1169 29.1404 60.2421 29.3286C61.5671 31.3213 62.5068 33.5448 63.0125 35.8838C63.0641 36.1028 63.1832 36.3001 63.353 36.4479C63.5227 36.5957 63.7346 36.6864 63.9587 36.7073L68.6666 37.1598V42.841L64.023 43.2942C63.8002 43.3153 63.5895 43.4054 63.4204 43.5519C63.2512 43.6984 63.132 43.8941 63.0794 44.1116Z" fill="#2F80ED"/>
<path d="M43.7799 23.4268C40.503 23.4313 37.3009 24.4072 34.5785 26.231C31.856 28.0549 29.7354 30.6449 28.4845 33.6736C27.2336 36.7024 26.9087 40.034 27.5508 43.2474C28.1928 46.4608 29.7731 49.4117 32.0918 51.7273C34.4106 54.0428 37.3637 55.619 40.578 56.2566C43.7922 56.8942 47.1234 56.5647 50.1504 55.3096C53.1775 54.0545 55.7645 51.9303 57.5846 49.2053C59.4047 46.4804 60.3761 43.277 60.3761 40.0001C60.3681 35.603 58.6163 31.3887 55.5049 28.2817C52.3936 25.1747 48.1769 23.4287 43.7799 23.4268ZM43.7799 54.4706C40.9188 54.4661 38.1234 53.6136 35.7467 52.0208C33.3701 50.428 31.5189 48.1664 30.4272 45.5218C29.3355 42.8773 29.0522 39.9685 29.6131 37.163C30.174 34.3575 31.554 31.7812 33.5787 29.7597C35.6033 27.7383 38.1818 26.3624 40.9882 25.8059C43.7946 25.2494 46.7029 25.5373 49.3458 26.6332C51.9886 27.7291 54.2472 29.5839 55.8362 31.963C57.4253 34.3422 58.2734 37.139 58.2734 40.0001C58.266 43.8396 56.7359 47.5194 54.0187 50.2322C51.3016 52.945 47.6194 54.4693 43.7799 54.4706Z" fill="#FFBD00"/>
<path d="M43.7843 34.9711C44.3095 34.9717 44.8131 35.1807 45.1846 35.5521C45.556 35.9236 45.765 36.4272 45.7656 36.9525C45.7656 37.2313 45.8763 37.4987 46.0735 37.6959C46.2707 37.8931 46.5381 38.0038 46.8169 38.0038C47.0958 38.0038 47.3632 37.8931 47.5604 37.6959C47.7575 37.4987 47.8683 37.2313 47.8683 36.9525C47.8672 36.0839 47.5897 35.2382 47.076 34.5379C46.5623 33.8375 45.839 33.3188 45.0109 33.0569V32.2901C45.0109 32.0113 44.9001 31.7439 44.7029 31.5467C44.5057 31.3495 44.2383 31.2388 43.9595 31.2388C43.6806 31.2388 43.4132 31.3495 43.216 31.5467C43.0189 31.7439 42.9081 32.0113 42.9081 32.2901V32.9641C41.9248 33.1801 41.0559 33.7518 40.4684 34.5693C39.8808 35.3868 39.6159 36.3926 39.7245 37.3935C39.8331 38.3943 40.3076 39.3198 41.0569 39.9923C41.8062 40.6647 42.7775 41.0366 43.7843 41.0367C44.1761 41.0367 44.5592 41.1529 44.885 41.3706C45.2108 41.5883 45.4648 41.8977 45.6148 42.2598C45.7647 42.6218 45.8039 43.0202 45.7275 43.4045C45.651 43.7889 45.4623 44.1419 45.1853 44.419C44.9082 44.6961 44.5551 44.8848 44.1708 44.9612C43.7864 45.0377 43.3881 44.9985 43.026 44.8485C42.664 44.6985 42.3546 44.4446 42.1369 44.1188C41.9191 43.7929 41.8029 43.4099 41.8029 43.018C41.8029 42.7392 41.6922 42.4717 41.495 42.2746C41.2978 42.0774 41.0304 41.9666 40.7516 41.9666C40.4727 41.9666 40.2053 42.0774 40.0081 42.2746C39.811 42.4717 39.7002 42.7392 39.7002 43.018C39.7014 43.9177 39.9992 44.7919 40.5474 45.5053C41.0957 46.2187 41.8638 46.7314 42.7329 46.9642V48.0607C42.7329 48.3396 42.8436 48.607 43.0408 48.8042C43.238 49.0013 43.5054 49.1121 43.7843 49.1121C44.0631 49.1121 44.3305 49.0013 44.5277 48.8042C44.7249 48.607 44.8356 48.3396 44.8356 48.0607V46.9642C45.7936 46.709 46.626 46.1142 47.1777 45.2905C47.7294 44.4668 47.9627 43.4706 47.834 42.4877C47.7053 41.5047 47.2234 40.6021 46.4783 39.9482C45.7331 39.2944 44.7756 38.9339 43.7843 38.9339C43.262 38.929 42.7628 38.7181 42.3952 38.3471C42.0276 37.976 41.8214 37.4748 41.8214 36.9525C41.8214 36.4302 42.0276 35.9291 42.3952 35.558C42.7628 35.187 43.262 34.9761 43.7843 34.9711Z" fill="#FFBD00"/>
<path d="M80.6343 36.4539C80.5357 36.3349 80.412 36.2392 80.2722 36.1735C80.1323 36.1078 79.9797 36.0737 79.8251 36.0737C79.6706 36.0737 79.518 36.1078 79.3781 36.1735C79.2383 36.2392 79.1146 36.3349 79.0159 36.4539L72.3222 44.524C72.1944 44.6836 72.1135 44.8755 72.0883 45.0784C72.0632 45.2812 72.0949 45.4871 72.1799 45.673C72.2632 45.8572 72.3964 46.0144 72.5646 46.1267C72.7327 46.239 72.929 46.3019 73.1311 46.3082H78.4214C77.2167 55.2287 72.7659 63.3921 65.9202 69.2371C59.479 74.7601 51.3859 77.9123 43.7161 77.9123C38.7131 77.9123 33.4827 76.5566 28.5914 74.0059C23.5126 71.3527 19.1079 67.5732 15.714 62.9563C15.635 62.8389 15.5332 62.7385 15.4145 62.6614C15.2958 62.5842 15.1628 62.5318 15.0234 62.5073C14.884 62.4828 14.741 62.4867 14.6032 62.5188C14.4653 62.5509 14.3353 62.6105 14.2211 62.694C14.1068 62.7775 14.0105 62.8832 13.9381 63.0049C13.8657 63.1265 13.8186 63.2615 13.7996 63.4017C13.7806 63.542 13.7901 63.6847 13.8275 63.8211C13.865 63.9576 13.9297 64.0852 14.0176 64.1961C17.6026 69.0714 22.2551 73.0622 27.6192 75.8633C32.8098 78.5698 38.376 80 43.7161 80C51.8803 80 60.4723 76.6783 67.2889 70.8334C74.5823 64.5746 79.3024 55.8389 80.5404 46.3082H86.5178C86.7196 46.3012 86.9155 46.2382 87.0835 46.1261C87.2515 46.0141 87.385 45.8575 87.469 45.6739C87.553 45.4903 87.5843 45.2869 87.5592 45.0865C87.5342 44.8862 87.4538 44.6967 87.3272 44.5394L80.6343 36.4539ZM75.3691 44.2055L79.8244 38.8336L84.28 44.2055H75.3691Z" fill="#2F80ED"/>
<path d="M15.388 34.327C15.3048 34.1427 15.1714 33.9854 15.0032 33.8732C14.835 33.7609 14.6387 33.698 14.4366 33.6918H9.14622C10.3509 24.7712 14.8017 16.6078 21.6474 10.7629C28.0886 5.23987 36.1817 2.08768 43.8515 2.08768C48.8545 2.08768 54.0849 3.44342 58.9762 5.99405C64.055 8.64729 68.4597 12.4268 71.8536 17.0436C71.9326 17.1611 72.0344 17.2614 72.1531 17.3386C72.2718 17.4157 72.4048 17.4681 72.5442 17.4926C72.6836 17.5171 72.8266 17.5132 72.9644 17.4812C73.1023 17.4491 73.2323 17.3895 73.3465 17.306C73.4608 17.2225 73.5571 17.1167 73.6295 16.9951C73.7019 16.8735 73.7491 16.7385 73.7681 16.5982C73.7871 16.458 73.7775 16.3153 73.7401 16.1788C73.7026 16.0423 73.6379 15.9148 73.55 15.8039C69.965 10.9286 65.3125 6.93776 59.9484 4.13663C54.7578 1.43022 49.1916 0 43.8515 0C35.6873 0 27.0953 3.32164 20.2787 9.16657C12.9853 15.4254 8.26518 24.1611 7.02718 33.6918H1.04977C0.847971 33.6988 0.652104 33.7618 0.484111 33.8738C0.316118 33.9859 0.182635 34.1425 0.0986149 34.3261C0.0145942 34.5097 -0.0166456 34.7131 0.00839468 34.9134C0.033435 35.1138 0.113767 35.3032 0.240391 35.4605L6.93413 43.5386C7.03217 43.6582 7.15542 43.7546 7.29508 43.821C7.43473 43.8874 7.58734 43.9221 7.74198 43.9227C7.89661 43.9233 8.04946 43.8896 8.18959 43.8242C8.32972 43.7588 8.45366 43.6632 8.55255 43.5444L15.2463 35.4598C15.3738 35.3033 15.4547 35.1141 15.4798 34.9137C15.5049 34.7134 15.4731 34.5101 15.388 34.327ZM7.74316 41.1665L3.2885 35.7945H12.1985L7.74316 41.1665Z" fill="#2F80ED"/>
</svg>
