<svg width="87" height="100" viewBox="0 0 87 100" fill="none" xmlns="http://www.w3.org/2000/svg">
<path d="M85.8184 13.8281H76.5949C65.5885 13.8281 55.2283 9.8583 46.6338 2.33656L44.3057 0.302493C44.0821 0.107219 43.7954 -0.000262611 43.4987 4.81852e-07C43.202 0.000263574 42.9155 0.108254 42.6923 0.303924L40.3642 2.33574C31.7705 9.85748 21.4101 13.8281 10.4041 13.8281H1.18164C1.02243 13.8304 0.865253 13.8644 0.719305 13.9281C0.573356 13.9918 0.441557 14.084 0.331607 14.1992C0.221656 14.3145 0.135758 14.4505 0.0789299 14.5994C0.0221014 14.7482 -0.00451815 14.9069 0.000625552 15.0662V45.5935C0.000625552 59.0342 3.43156 69.3809 10.8463 78.1548C16.9964 85.4325 25.6369 91.4625 39.7642 98.318L42.9705 99.8772C43.1364 99.958 43.3186 100 43.5032 100C43.6877 100 43.8699 99.958 44.0359 99.8772L47.2467 98.3187C61.3742 91.4628 70.0036 85.4325 76.1541 78.155C83.5684 69.3811 86.9994 59.0342 86.9994 45.5938V15.0662C87.0045 14.9069 86.9779 14.7482 86.9211 14.5994C86.8642 14.4505 86.7783 14.3145 86.6684 14.1992C86.5584 14.084 86.4266 13.9918 86.2807 13.9281C86.1347 13.8644 85.9776 13.8304 85.8184 13.8281ZM84.5487 45.5938C84.5487 58.4219 81.3016 68.2652 74.2822 76.5713C68.3667 83.5711 59.9662 89.415 46.1653 96.1119L43.4941 97.4111L40.8188 96.1115C27.0188 89.4148 18.6306 83.5711 12.7153 76.5711C5.697 68.2652 2.45129 58.4211 2.45129 45.5935V16.2805H10.4041C22.0123 16.2805 32.9299 12.101 41.9783 4.182L43.5 2.85361L45.0208 4.18036C54.0683 12.0996 64.9864 16.2805 76.5949 16.2805H84.5487V45.5938Z" fill="#2F80ED"/>
<path d="M44.2578 9.59575C44.0399 9.42773 43.7719 9.33796 43.4968 9.34089C43.2218 9.34382 42.9557 9.43927 42.7415 9.61189C33.3199 17.039 22.1385 20.981 10.4043 20.981H8.2534C7.57743 20.981 6.94434 21.4656 6.94434 22.1429V45.5936C6.94434 57.2667 9.90842 66.1613 16.1821 73.5854C21.6553 80.0614 29.6353 85.554 42.8187 91.9515L42.9555 92.0128C43.1234 92.0935 43.3074 92.1354 43.4937 92.1354C43.68 92.1354 43.864 92.0935 44.0319 92.0128L44.159 91.9515C57.3421 85.5548 65.3446 80.0614 70.8173 73.5856C77.0913 66.1613 80.056 57.2667 80.056 45.5938V22.1429C80.056 21.4656 79.4229 20.981 78.7469 20.981H76.595C64.8618 20.981 53.6792 17.0231 44.2578 9.59575ZM77.6053 45.5938C77.6053 56.6542 74.8254 65.0455 68.9463 72.0017C63.7641 78.1328 56.1321 83.3926 43.5206 89.5457C30.9092 83.393 23.246 78.134 18.0636 72.0017C12.1853 65.0455 9.395 56.6542 9.395 45.5936V23.4335H10.4043C22.3801 23.4335 33.8022 19.5329 43.5001 12.1422C53.197 19.5329 64.619 23.4335 76.595 23.4335H77.6053V45.5938Z" fill="#2F80ED"/>
<path d="M44.2611 47.4286C46.9961 47.4286 49.6697 46.617 51.9438 45.0964C54.2179 43.5758 55.9904 41.4146 57.037 38.886C58.0837 36.3574 58.3575 33.5749 57.8239 30.8906C57.2904 28.2062 55.9733 25.7404 54.0394 23.8051C52.1054 21.8698 49.6414 20.5518 46.9589 20.0179C44.2765 19.4839 41.496 19.7579 38.9692 20.8053C36.4424 21.8527 34.2826 23.6264 32.7631 25.9021C31.2436 28.1778 30.4326 30.8533 30.4326 33.5903C30.4368 37.2592 31.895 40.7766 34.4875 43.3708C37.0799 45.9651 40.5949 47.4244 44.2611 47.4286ZM44.2611 22.2044C46.5114 22.2044 48.7112 22.8721 50.5823 24.1232C52.4534 25.3743 53.9117 27.1526 54.7729 29.2331C55.634 31.3136 55.8594 33.6029 55.4203 35.8116C54.9813 38.0202 53.8977 40.049 52.3065 41.6413C50.7153 43.2337 48.6879 44.3181 46.4808 44.7574C44.2737 45.1967 41.986 44.9713 39.907 44.1095C37.828 43.2477 36.051 41.7884 34.8008 39.916C33.5506 38.0435 32.8833 35.8422 32.8833 33.5903C32.8867 30.5716 34.0866 27.6776 36.2196 25.5431C38.3526 23.4086 41.2446 22.208 44.2611 22.2046V22.2044Z" fill="#FFBD00"/>
<path d="M44.2612 39.3154C43.7207 39.3148 43.2025 39.0997 42.8204 38.7173C42.4382 38.3348 42.2232 37.8163 42.2226 37.2754C42.2226 36.9502 42.0935 36.6383 41.8638 36.4084C41.634 36.1784 41.3223 36.0492 40.9973 36.0492C40.6723 36.0492 40.3607 36.1784 40.1309 36.4084C39.9011 36.6383 39.772 36.9502 39.772 37.2754C39.7736 38.2985 40.1235 39.2904 40.7641 40.0877C41.4047 40.885 42.2977 41.44 43.2958 41.6612V42.4831C43.2958 42.8083 43.4249 43.1202 43.6547 43.3502C43.8845 43.5801 44.1962 43.7093 44.5212 43.7093C44.8461 43.7093 45.1578 43.5801 45.3876 43.3502C45.6174 43.1202 45.7465 42.8083 45.7465 42.4831V41.5132C46.7469 41.1624 47.5909 40.4686 48.1291 39.5547C48.6672 38.6408 48.8649 37.5659 48.687 36.5201C48.5091 35.4744 47.9672 34.5255 47.1571 33.8413C46.3471 33.1571 45.3212 32.7819 44.2612 32.782C43.858 32.782 43.4639 32.6624 43.1286 32.4382C42.7934 32.2141 42.5321 31.8954 42.3778 31.5227C42.2235 31.1499 42.1832 30.7398 42.2618 30.344C42.3405 29.9483 42.5346 29.5848 42.8197 29.2995C43.1048 29.0142 43.468 28.8199 43.8635 28.7412C44.2589 28.6625 44.6688 28.7029 45.0413 28.8573C45.4138 29.0117 45.7322 29.2732 45.9562 29.6087C46.1802 29.9441 46.2997 30.3385 46.2997 30.742C46.2997 31.0672 46.4288 31.3791 46.6586 31.6091C46.8884 31.839 47.2001 31.9682 47.5251 31.9682C47.8501 31.9682 48.1617 31.839 48.3915 31.6091C48.6213 31.3791 48.7504 31.0672 48.7504 30.742C48.7492 29.8114 48.4597 28.904 47.9217 28.1449C47.3837 27.3858 46.6237 26.8123 45.7465 26.5034V25.5206C45.7465 25.1954 45.6174 24.8835 45.3876 24.6536C45.1578 24.4236 44.8461 24.2944 44.5212 24.2944C44.1962 24.2944 43.8845 24.4236 43.6547 24.6536C43.4249 24.8835 43.2958 25.1954 43.2958 25.5206V26.3555C42.2152 26.5935 41.2605 27.2226 40.6151 28.1219C39.9696 29.0213 39.6787 30.1275 39.7984 31.2283C39.9181 32.3291 40.4399 33.3468 41.2635 34.0862C42.0872 34.8256 43.1547 35.2345 44.2612 35.2344C44.7983 35.2398 45.3117 35.4571 45.6896 35.8391C46.0675 36.2211 46.2795 36.737 46.2795 37.2745C46.2795 37.8121 46.0675 38.3279 45.6896 38.7099C45.3117 39.0919 44.7983 39.3092 44.2612 39.3146V39.3154Z" fill="#FFBD00"/>
</svg>
