<svg width="70" height="80" viewBox="0 0 70 80" fill="none" xmlns="http://www.w3.org/2000/svg">
<path d="M68.4612 13.4941H48.3538V11.4057H56.2302C56.7626 11.4057 57.1891 11.048 57.1891 10.5156V5.41568C57.1878 3.98177 56.6183 2.60681 55.6055 1.59182C54.5926 0.57682 53.2188 0.00448419 51.7849 0.000107963H19.7313C18.3604 -0.00874366 17.042 0.527018 16.0658 1.48968C15.0897 2.45233 14.5356 3.76314 14.5254 5.13408L14.4799 13.4941H0.93697C0.680004 13.5047 0.43757 13.6161 0.262248 13.8043C0.0869252 13.9924 -0.00715011 14.2421 0.000424373 14.4992V68.3815C0.000424373 68.9139 0.404601 69.3976 0.93697 69.3976H24.477L22.0338 78.0723H17.7622C17.5065 78.0723 17.2614 78.1738 17.0806 78.3546C16.8999 78.5354 16.7983 78.7805 16.7983 79.0361C16.7983 79.2918 16.8999 79.5369 17.0806 79.7177C17.2614 79.8985 17.5065 80 17.7622 80H51.6362C51.8918 80 52.137 79.8985 52.3177 79.7177C52.4985 79.5369 52.6 79.2918 52.6 79.0361C52.6 78.7805 52.4985 78.5354 52.3177 78.3546C52.137 78.1738 51.8918 78.0723 51.6362 78.0723H47.3645L44.9213 69.3976H68.4612C68.9934 69.3976 69.3979 68.9139 69.3979 68.3815V14.4992C69.4055 14.2421 69.3113 13.9924 69.136 13.8043C68.9606 13.6161 68.7182 13.5047 68.4612 13.4941ZM48.3538 5.42982C48.3538 3.50934 49.8423 1.92782 51.7612 1.92782H51.7833C52.7089 1.93241 53.5948 2.30389 54.2468 2.96079C54.8988 3.61768 55.2637 4.50636 55.2614 5.43191V9.47801H48.3538V5.42982ZM16.4531 5.15994C16.4607 4.29709 16.81 3.47245 17.4245 2.86664C18.0389 2.26082 18.8685 1.92323 19.7313 1.92782H47.6293C46.8049 2.89167 46.4261 4.14099 46.4261 5.43191V29.0256C45.6016 29.0897 44.7888 29.26 44.0079 29.5323C43.8127 29.3417 43.5503 29.2357 43.2775 29.237H19.3206C19.0649 29.237 18.8198 29.3386 18.639 29.5193C18.4583 29.7001 18.3567 29.9452 18.3567 30.2009C18.3567 30.4565 18.4583 30.7017 18.639 30.8824C18.8198 31.0632 19.0649 31.1647 19.3206 31.1647H40.8627C40.0685 31.7688 39.3535 32.4704 38.7345 33.2531H19.3206C19.0649 33.2531 18.8198 33.3546 18.639 33.5354C18.4583 33.7161 18.3567 33.9613 18.3567 34.2169C18.3567 34.4726 18.4583 34.7177 18.639 34.8985C18.8198 35.0792 19.0649 35.1808 19.3206 35.1808H37.557C37.2454 35.853 36.9952 36.5519 36.8092 37.2691H19.3206C19.0649 37.2691 18.8198 37.3707 18.639 37.5514C18.4583 37.7322 18.3567 37.9774 18.3567 38.233C18.3567 38.4886 18.4583 38.7338 18.639 38.9145C18.8198 39.0953 19.0649 39.1968 19.3206 39.1968H36.5236C36.5119 39.5181 36.5045 39.6367 36.5045 39.8463C36.5044 41.0462 36.702 42.2379 37.0895 43.3735C29.2788 43.3735 19.3469 43.3751 16.246 43.3747L16.4531 5.15994ZM56.3698 39.8715C56.3698 41.6455 55.8438 43.3796 54.8583 44.8545C53.8727 46.3295 52.4719 47.4791 50.833 48.1579C49.1941 48.8368 47.3907 49.0144 45.6509 48.6683C43.911 48.3223 42.3129 47.468 41.0585 46.2137C39.8042 44.9593 38.95 43.3612 38.6039 41.6213C38.2578 39.8815 38.4354 38.0781 39.1143 36.4392C39.7931 34.8003 40.9427 33.3995 42.4177 32.414C43.8927 31.4284 45.6268 30.9024 47.4007 30.9024C49.7786 30.9052 52.0583 31.8511 53.7397 33.5325C55.4211 35.214 56.367 37.4936 56.3698 39.8715ZM45.3623 78.0723H24.0361L26.4791 69.3976H42.9192L45.3623 78.0723ZM67.4702 67.4699H1.92813V58.1526H67.4702V67.4699ZM67.4702 56.2249H1.92813V15.4218H14.4695L14.3137 44.3226C14.3122 44.5822 14.4129 44.832 14.5941 45.0179C14.6834 45.1086 14.7897 45.1808 14.907 45.2304C15.0242 45.2801 15.1501 45.3061 15.2774 45.307C15.2774 45.307 28.5093 45.3114 37.9678 45.3114C38.9234 46.9684 40.2983 48.3449 41.9543 49.3025C43.6103 50.2601 45.4891 50.7651 47.402 50.7668C53.41 50.7668 58.3329 45.8791 58.3329 39.8706C58.3329 34.1599 53.8163 29.4653 48.3544 29.0132V15.4218H67.4702V56.2249Z" fill="#2F80ED"/>
<path d="M31.2043 22.9486C32.969 22.9485 34.694 22.4252 36.1613 21.4447C37.6285 20.4642 38.7721 19.0706 39.4473 17.4402C40.1226 15.8098 40.2992 14.0158 39.9549 12.285C39.6105 10.5542 38.7607 8.96444 37.5128 7.71665C36.2649 6.46886 34.675 5.61913 32.9442 5.27491C31.2134 4.93069 29.4194 5.10743 27.7891 5.7828C26.1587 6.45817 24.7652 7.60182 23.7849 9.06914C22.8045 10.5365 22.2812 12.2615 22.2813 14.0262C22.2837 16.392 23.2246 18.6601 24.8975 20.3328C26.5704 22.0056 28.8386 22.9463 31.2043 22.9486ZM31.2043 7.03139C32.5877 7.03148 33.9401 7.44181 35.0903 8.21047C36.2405 8.97913 37.137 10.0716 37.6663 11.3498C38.1957 12.6279 38.3342 14.0343 38.0642 15.3912C37.7942 16.748 37.128 17.9943 36.1497 18.9725C35.1715 19.9507 33.9251 20.6169 32.5683 20.8867C31.2114 21.1566 29.805 21.018 28.5269 20.4886C27.2488 19.9592 26.1564 19.0626 25.3878 17.9123C24.6192 16.762 24.209 15.4097 24.209 14.0262C24.211 12.1716 24.9487 10.3936 26.2602 9.08226C27.5716 7.77091 29.3497 7.03334 31.2043 7.03139Z" fill="#FFBD00"/>
<path d="M31.2043 17.0314C30.9652 17.0312 30.7361 16.9361 30.5671 16.7671C30.3981 16.5981 30.303 16.3689 30.3027 16.1299C30.3027 15.8743 30.2012 15.6291 30.0204 15.4483C29.8397 15.2676 29.5945 15.166 29.3389 15.166C29.0833 15.166 28.8381 15.2676 28.6573 15.4483C28.4766 15.6291 28.375 15.8743 28.375 16.1299C28.3758 16.6738 28.5333 17.206 28.8286 17.6628C29.1239 18.1196 29.5446 18.4816 30.0402 18.7056V19.1166C30.0402 19.3722 30.1418 19.6173 30.3226 19.7981C30.5033 19.9789 30.7485 20.0804 31.0041 20.0804C31.2597 20.0804 31.5049 19.9789 31.6856 19.7981C31.8664 19.6173 31.968 19.3722 31.968 19.1166V18.8515C32.6262 18.6675 33.1955 18.2512 33.5705 17.6797C33.9455 17.1083 34.1008 16.4203 34.0076 15.7432C33.9144 15.0661 33.5791 14.4456 33.0637 13.9967C32.5483 13.5478 31.8878 13.3007 31.2043 13.3013C31.026 13.3013 30.8517 13.2484 30.7034 13.1494C30.5551 13.0503 30.4396 12.9095 30.3714 12.7448C30.3031 12.58 30.2853 12.3988 30.3201 12.2239C30.3548 12.049 30.4407 11.8884 30.5668 11.7623C30.6929 11.6362 30.8535 11.5504 31.0284 11.5156C31.2033 11.4808 31.3845 11.4986 31.5493 11.5669C31.714 11.6351 31.8548 11.7507 31.9538 11.8989C32.0529 12.0472 32.1058 12.2215 32.1058 12.3998C32.1058 12.6554 32.2073 12.9006 32.3881 13.0813C32.5688 13.2621 32.814 13.3636 33.0696 13.3636C33.3253 13.3636 33.5704 13.2621 33.7512 13.0813C33.9319 12.9006 34.0335 12.6554 34.0335 12.3998C34.0326 11.8118 33.8488 11.2386 33.5074 10.7599C33.1661 10.2811 32.6842 9.92045 32.1286 9.72797V9.31737C32.1286 9.06174 32.027 8.81658 31.8463 8.63582C31.6655 8.45506 31.4204 8.35352 31.1647 8.35352C30.9091 8.35352 30.664 8.45506 30.4832 8.63582C30.3024 8.81658 30.2009 9.06174 30.2009 9.31737V9.75705C29.5821 9.99143 29.0651 10.4354 28.7399 11.0118C28.4147 11.5881 28.302 12.2602 28.4214 12.911C28.5407 13.5619 28.8846 14.1503 29.3931 14.5737C29.9016 14.9972 30.5425 15.2288 31.2043 15.2284C31.4434 15.2284 31.6727 15.3233 31.8417 15.4924C32.0108 15.6615 32.1058 15.8908 32.1058 16.1299C32.1058 16.369 32.0108 16.5983 31.8417 16.7674C31.6727 16.9364 31.4434 17.0314 31.2043 17.0314Z" fill="#FFBD00"/>
<path d="M19.3203 27.1489H43.2772C43.5328 27.1489 43.778 27.0474 43.9588 26.8666C44.1395 26.6858 44.2411 26.4407 44.2411 26.185C44.2411 25.9294 44.1395 25.6843 43.9588 25.5035C43.778 25.3227 43.5328 25.2212 43.2772 25.2212H19.3203C19.0647 25.2212 18.8195 25.3227 18.6388 25.5035C18.458 25.6843 18.3564 25.9294 18.3564 26.185C18.3564 26.4407 18.458 26.6858 18.6388 26.8666C18.8195 27.0474 19.0647 27.1489 19.3203 27.1489Z" fill="#2F80ED"/>
<path d="M45.7417 42.7668C45.831 42.8571 45.9373 42.9288 46.0544 42.9778C46.1716 43.0268 46.2973 43.052 46.4243 43.0521H46.4262C46.5528 43.0523 46.6781 43.0274 46.7951 42.979C46.912 42.9307 47.0183 42.8597 47.1078 42.7702L51.5435 38.3347C51.6349 38.2457 51.7078 38.1393 51.7579 38.0219C51.8079 37.9044 51.8342 37.7782 51.835 37.6505C51.8359 37.5228 51.8114 37.3963 51.7629 37.2781C51.7144 37.16 51.643 37.0527 51.5527 36.9624C51.4624 36.8722 51.3551 36.8007 51.237 36.7523C51.1188 36.7038 50.9923 36.6793 50.8646 36.6802C50.7369 36.6811 50.6107 36.7073 50.4932 36.7574C50.3758 36.8074 50.2694 36.8803 50.1804 36.9718L46.4299 40.7228L44.6256 38.9007C44.4449 38.7228 44.2015 38.6232 43.948 38.6235C43.6944 38.6239 43.4512 38.7241 43.2711 38.9024C43.0909 39.0808 42.9883 39.323 42.9854 39.5765C42.9825 39.83 43.0797 40.0744 43.2558 40.2568L45.7417 42.7668Z" fill="#2F80ED"/>
</svg>
