<svg width="109" height="100" viewBox="0 0 109 100" fill="none" xmlns="http://www.w3.org/2000/svg">
<path d="M106.76 97.1086H98.3081V26.2093C98.3081 25.4723 97.8123 24.8232 97.0752 24.8232H88.5471C88.1853 24.8339 87.8417 24.9842 87.5882 25.2426C87.3347 25.5009 87.191 25.8474 87.1872 26.2093V97.1086H82.9613V41.7149C82.9478 41.3564 82.7947 41.0175 82.5347 40.7704C82.2747 40.5233 81.9284 40.3876 81.5697 40.3924H73.0416C72.3045 40.3924 71.6181 40.978 71.6181 41.7149V97.1086H67.3922V57.2206C67.3912 57.0497 67.3557 56.8807 67.2877 56.7238C67.2197 56.567 67.1207 56.4255 66.9967 56.3079C66.8726 56.1903 66.726 56.0989 66.5658 56.0394C66.4055 55.9799 66.2349 55.9534 66.0641 55.9615H57.536C57.3685 55.9544 57.2013 55.982 57.045 56.0427C56.8887 56.1033 56.7467 56.1957 56.6279 56.314C56.509 56.4323 56.416 56.574 56.3547 56.73C56.2933 56.886 56.2649 57.0531 56.2714 57.2206V97.1086H51.823V67.5577C51.8313 67.3846 51.805 67.2116 51.7457 67.0488C51.6863 66.8861 51.5951 66.7367 51.4773 66.6096C51.3595 66.4826 51.2176 66.3802 51.0598 66.3086C50.9021 66.237 50.7316 66.1976 50.5584 66.1927H42.0303C41.6739 66.1999 41.3347 66.3472 41.0861 66.6026C40.8375 66.8581 40.6996 67.2012 40.7022 67.5577V97.1086H36.4763V77.8947C36.4763 77.1578 35.7899 76.6463 35.0528 76.6463H26.5247C25.7876 76.6463 25.1331 77.1578 25.1331 77.8947V97.1086H20.9071V83.0632C20.9036 82.8884 20.8656 82.716 20.7953 82.5559C20.7249 82.3958 20.6237 82.2511 20.4974 82.1302C20.371 82.0093 20.2221 81.9146 20.0591 81.8513C19.896 81.7881 19.7221 81.7577 19.5473 81.7619H11.0192C10.2821 81.7619 9.78632 82.3263 9.78632 83.0632V97.1086H1.3345C0.980568 97.1086 0.641133 97.2492 0.390866 97.4995C0.140599 97.7497 0 98.0892 0 98.4431C0 98.797 0.140599 99.1365 0.390866 99.3867C0.641133 99.637 0.980568 99.7776 1.3345 99.7776H10.4373C11.2448 99.7776 9.78632 99.7776 11 99.7776H19.579C19.7869 99.7472 19.579 99.7776 20.1291 99.7776H25.9429C26.2981 99.7776 26.2891 99.7776 26.5 99.7776H35C35.208 99.7472 35.0567 99.7776 35.6349 99.7776H41.4484C41.96 99.7776 41.5 99.7776 42.1824 99.7776H50.5C50.7781 99.7776 50.6094 99.7776 51.1404 99.7776H56.954C57.3648 99.7776 57.1348 99.7776 57.6102 99.7776H65.9452C66.2979 99.7776 66.4206 99.7776 66.646 99.7776H72.4595C72.8003 99.7776 72.9383 99.7776 73.2911 99.7776H81.5C81.8101 99.7776 81.6951 99.7776 82.1515 99.7776H87.9657C88.4505 99.7776 88.3355 99.7776 88.7572 99.7776H97.0386C97.353 99.7776 97.2379 99.7776 97.6577 99.7776H106.76C107.114 99.7776 107.453 99.637 107.704 99.3867C107.954 99.1365 108.094 98.797 108.094 98.4431C108.094 98.0892 107.954 97.7497 107.704 97.4995C107.453 97.2492 107.114 97.1086 106.76 97.1086ZM95.6391 27.4922V61.0771H89.8562V27.4922H95.6391ZM89.8562 63.7461H95.6391V97.1086H89.8562V63.7461ZM80.2923 43.0614V68.8617H74.2871V43.0614H80.2923ZM74.2871 71.5307H80.2923V97.1086H74.2871V71.5307ZM64.7232 58.6305V76.6463H58.9404V58.6305H64.7232ZM58.9404 79.3153H64.7232V97.1086H58.9404V79.3153ZM49.154 68.8617V81.7619H43.3712V68.8617H49.154ZM43.3712 84.4309H49.154V97.1086H43.3712V84.4309ZM33.8073 79.3153V86.8774H27.8021V79.3153H33.8073ZM27.8021 89.5464H33.8073V97.1086H27.8021V89.5464ZM18.2381 84.4309V89.5464H12.4553V84.4309H18.2381ZM12.4553 92.2154H18.2381V97.1086H12.4553V92.2154Z" fill="#2F80ED"/>
<path d="M28.0856 41.8801C32.2271 41.8801 36.2757 40.652 39.7192 38.3511C43.1628 36.0502 45.8468 32.7798 47.4317 28.9535C49.0166 25.1272 49.4313 20.9168 48.6233 16.8549C47.8153 12.7929 45.821 9.06173 42.8924 6.13321C39.9639 3.20469 36.2327 1.21034 32.1708 0.402367C28.1088 -0.40561 23.8985 0.00907313 20.0722 1.59398C16.2459 3.17888 12.9755 5.86282 10.6745 9.3064C8.37362 12.75 7.14551 16.7985 7.14551 20.9401C7.15175 26.4918 9.35993 31.8144 13.2856 35.74C17.2113 39.6657 22.5338 41.8739 28.0856 41.8801ZM28.0856 2.66812C31.6992 2.66812 35.2318 3.7397 38.2364 5.74735C41.2411 7.755 43.5829 10.6085 44.9658 13.9471C46.3487 17.2857 46.7106 20.9595 46.0056 24.5037C45.3006 28.0479 43.5604 31.3035 41.0052 33.8588C38.4499 36.414 35.1943 38.1542 31.6501 38.8592C28.1058 39.5642 24.4321 39.2023 21.0935 37.8194C17.7549 36.4366 14.9014 34.0947 12.8937 31.09C10.8861 28.0854 9.81451 24.5529 9.81451 20.9392C9.82022 16.0952 11.7471 11.4513 15.1723 8.02621C18.5976 4.6011 23.2416 2.67448 28.0856 2.66901V2.66812Z" fill="#FFBD00"/>
<path d="M28.0854 30.4093C27.0931 30.4082 26.1417 30.0135 25.44 29.3118C24.7384 28.6102 24.3437 27.6588 24.3425 26.6665C24.3425 26.3126 24.2019 25.9731 23.9517 25.7229C23.7014 25.4726 23.362 25.332 23.008 25.332C22.6541 25.332 22.3147 25.4726 22.0644 25.7229C21.8141 25.9731 21.6735 26.3126 21.6735 26.6665C21.6756 28.1628 22.2002 29.6115 23.1567 30.7622C24.1133 31.9129 25.4416 32.6934 26.9123 32.9689V34.6097C26.9123 34.9636 27.0529 35.303 27.3032 35.5533C27.5535 35.8036 27.8929 35.9442 28.2468 35.9442C28.6008 35.9442 28.9402 35.8036 29.1905 35.5533C29.4407 35.303 29.5813 34.9636 29.5813 34.6097V32.9004C31.1079 32.534 32.447 31.6202 33.3447 30.3323C34.2425 29.0444 34.6365 27.4719 34.452 25.9129C34.2676 24.3538 33.5176 22.9166 32.3441 21.8737C31.1706 20.8308 29.6553 20.2548 28.0854 20.2547C27.1327 20.255 26.2157 19.8918 25.5216 19.2392C24.8275 18.5866 24.4085 17.6938 24.35 16.7429C24.2916 15.792 24.5981 14.8546 25.2071 14.122C25.8161 13.3893 26.6816 12.9166 27.6272 12.8002C27.7942 12.824 27.9643 12.8142 28.1274 12.7713C29.112 12.7832 30.0524 13.1825 30.7449 13.8825C31.4374 14.5826 31.8264 15.5271 31.8277 16.5119C31.8277 16.8658 31.9683 17.2052 32.2186 17.4555C32.4689 17.7058 32.8083 17.8464 33.1622 17.8464C33.5162 17.8464 33.8556 17.7058 34.1059 17.4555C34.3561 17.2052 34.4967 16.8658 34.4967 16.5119C34.4946 14.9944 33.955 13.5267 32.9738 12.3692C31.9926 11.2116 30.6331 10.439 29.1365 10.1883V8.58694C29.1365 8.23301 28.9959 7.89357 28.7456 7.64331C28.4954 7.39304 28.1559 7.25244 27.802 7.25244C27.4481 7.25244 27.1086 7.39304 26.8584 7.64331C26.6081 7.89357 26.4675 8.23301 26.4675 8.58694V10.3073C24.9585 10.7006 23.6446 11.6304 22.7717 12.9225C21.8987 14.2147 21.5266 15.7807 21.7249 17.3274C21.9233 18.8741 22.6785 20.2956 23.8492 21.3256C25.02 22.3557 26.526 22.9238 28.0854 22.9237C29.078 22.9237 30.03 23.318 30.7319 24.0199C31.4339 24.7218 31.8282 25.6738 31.8282 26.6665C31.8282 27.6592 31.4339 28.6112 30.7319 29.3131C30.03 30.015 29.078 30.4093 28.0854 30.4093Z" fill="#FFBD00"/>
<path d="M60.6161 24.8233H67.1636L25.2737 66.7488C25.0232 67.0024 24.8828 67.3445 24.8828 67.701C24.8828 68.0574 25.0232 68.3995 25.2737 68.6531C25.5227 68.9064 25.862 69.0504 26.2172 69.0535C26.5786 69.0559 26.9268 68.9172 27.1876 68.6669L69.1713 26.7121V33.3934C69.1713 33.7474 69.3119 34.0868 69.5622 34.3371C69.8125 34.5873 70.1519 34.7279 70.5058 34.7279C70.8598 34.7279 71.1992 34.5873 71.4495 34.3371C71.6997 34.0868 71.8403 33.7474 71.8403 33.3934V23.5573C71.831 23.4022 71.7951 23.25 71.734 23.1071C71.6676 22.8897 71.5518 22.6906 71.3955 22.5255C71.0439 22.1739 70.5325 22.1543 70.0848 22.1543H60.6161C60.2622 22.1543 59.9227 22.2949 59.6725 22.5452C59.4222 22.7954 59.2816 23.1349 59.2816 23.4888C59.2816 23.8427 59.4222 24.1822 59.6725 24.4324C59.9227 24.6827 60.2622 24.8233 60.6161 24.8233Z" fill="#2F80ED"/>
</svg>
