<svg width="74" height="24" viewBox="0 0 74 24" fill="none" xmlns="http://www.w3.org/2000/svg">
<path d="M31.9795 23.5051H25.9795L29.7527 0.371094H35.7527L31.9795 23.5051Z" fill="#0066B3"/>
<path d="M20.9072 0.371094L15.1546 16.268L14.4742 12.8659L12.433 2.47418C12.433 2.47418 12.1856 0.371094 9.58763 0.371094H0.123711L0 0.742227C0 0.742227 2.90722 1.36078 6.30928 3.40202L11.567 23.5051H17.8144L27.4021 0.371094H20.9072Z" fill="#0066B3"/>
<path d="M68.2885 23.5051H73.7937L68.9689 0.371094H64.1442C61.9174 0.371094 61.3607 2.10305 61.3607 2.10305L52.3916 23.5051H58.639L59.8761 20.0412H67.5462L68.2885 23.5051ZM61.67 15.2783L64.8246 6.61852L66.6184 15.2783H61.67Z" fill="#0066B3"/>
<path d="M52.8249 5.93815L53.6909 0.989692C53.6909 0.989692 51.0311 0 48.2476 0C45.2785 0 38.1651 1.29897 38.1651 7.6701C38.1651 13.6701 46.5157 13.732 46.5157 16.8866C46.5157 20.0412 39.0311 19.4845 36.5569 17.5052L35.6909 22.701C35.6909 22.701 38.3507 24 42.495 24C46.5775 24 52.8249 21.8969 52.8249 16.0825C52.8249 10.0825 44.4126 9.52577 44.4126 6.86598C44.4126 4.14433 50.2889 4.51547 52.8249 5.93815Z" fill="#0066B3"/>
<path d="M14.4742 12.8659L12.433 2.47418C12.433 2.47418 12.1856 0.371094 9.58763 0.371094H0.123711L0 0.742227C0 0.742227 4.57732 1.67006 8.90722 5.25769C13.1134 8.5979 14.4742 12.8659 14.4742 12.8659Z" fill="#FAA634"/>
</svg>
