<svg width="70" height="50" viewBox="0 0 70 50" fill="none" xmlns="http://www.w3.org/2000/svg">
<g clip-path="url(#clip0_1_294)">
<path opacity="0.53" d="M39.1758 26.7694C37.5105 24.1466 34.7628 22.1899 30.3914 22.1482C26.7278 22.1066 23.9801 23.3556 22.065 25.4372L21.7736 28.2265H20.15C19.5671 29.4338 19.1092 30.766 18.8594 32.1815C21.4822 33.6803 23.1475 36.3031 23.1475 39.5504C23.1475 41.6736 22.4397 43.7969 21.1908 45.4621C23.1891 48.0849 26.1866 49.5004 29.7253 49.5004C34.0967 49.5004 37.0525 47.5854 38.8844 44.8793C37.4689 42.7144 36.6362 39.8002 36.6362 36.2615C36.5946 32.6811 37.4272 29.3089 39.1758 26.7694ZM29.9335 44.1715C28.2266 44.1715 27.0609 42.9226 26.5613 40.8826C26.2699 39.5088 26.2282 38.0516 26.2282 36.6362C26.2282 34.055 26.3948 30.6411 27.3523 28.9759C28.06 27.8102 29.1841 27.3522 30.0584 27.3522C31.8902 27.3522 32.8477 28.851 33.2224 30.4746C33.5971 32.0983 33.6804 34.9709 33.6804 36.1366C33.6804 39.8834 33.1391 44.1715 29.9335 44.1715Z" fill="#828282"/>
<path opacity="0.53" d="M48.543 22.2314C44.2133 22.1898 41.1325 23.9383 39.2175 26.7277C40.9244 29.3921 41.4656 32.7227 41.4656 35.4288C41.4656 38.6761 40.7162 42.1732 38.8428 44.8792C40.8411 47.9184 44.0051 49.5836 47.8353 49.5836C56.578 49.5836 59.6171 42.0483 59.6171 35.512C59.5755 30.1831 57.4106 22.3563 48.543 22.2314ZM48.0851 44.2548C46.3782 44.2548 45.2125 43.0058 44.7129 40.9658C44.4215 39.592 44.3798 38.1349 44.3798 36.7194C44.3798 34.1382 44.5464 30.7244 45.5039 29.0591C46.2116 27.8934 47.3357 27.4354 48.21 27.4354C50.0418 27.4354 50.9993 28.9342 51.374 30.5578C51.7487 32.1815 51.8319 35.0541 51.8319 36.2198C51.8319 39.9667 51.2907 44.2548 48.0851 44.2548Z" fill="#828282"/>
<path opacity="0.53" d="M39.1759 26.7693C37.4274 29.3088 36.5947 32.681 36.5947 36.3446C36.5947 39.8834 37.4274 42.756 38.8429 44.9625C40.6747 42.2564 41.4657 38.7593 41.4657 35.512C41.424 32.7227 40.8828 29.3921 39.1759 26.7693Z" fill="#828282"/>
<path opacity="0.53" d="M18.8177 32.1815C17.2356 31.2656 15.2789 30.7661 13.1141 30.7661C11.6986 30.7661 9.99167 31.0158 8.82598 31.4738C8.57619 31.5987 8.28476 31.7236 8.03497 31.8901L8.40966 28.1849H20.1082C20.6078 27.1441 21.2739 26.1865 22.0233 25.3955L22.3147 22.7311H2.87261L1.41549 36.9276L7.95171 37.7186C8.40966 37.0525 9.03414 36.0533 11.1574 36.0533C13.8634 36.0533 15.154 37.7602 15.154 40.1332C15.154 42.1732 14.03 44.2132 11.2823 44.2132C9.70025 44.2132 8.45129 43.5054 7.99334 42.0067C7.78518 41.3822 7.78518 40.7577 7.78518 40.0916L0 40.9242C0.41632 42.9226 0.791008 44.7544 2.49792 46.5029C5.45379 49.5004 9.82515 49.5004 11.2406 49.5004C13.4471 49.5004 17.5271 49.2923 20.3997 46.378C20.6911 46.0866 20.9409 45.7952 21.149 45.5038C19.4421 43.2556 18.443 40.1332 18.443 36.2615C18.443 34.846 18.5679 33.4721 18.8177 32.1815Z" fill="#828282"/>
<path opacity="0.53" d="M21.732 28.2265L22.0235 25.4371C21.2741 26.2698 20.608 27.1857 20.1084 28.2265H21.732Z" fill="#828282"/>
<path opacity="0.53" d="M18.8176 32.1815C18.5678 33.4721 18.4429 34.8043 18.4429 36.2198C18.4429 40.0916 19.442 43.214 21.1489 45.4621C22.3979 43.7968 23.1057 41.6736 23.1057 39.5504C23.1057 36.3031 21.4404 33.6803 18.8176 32.1815Z" fill="#828282"/>
<path opacity="0.53" d="M0.791016 20.1082V15.7369H3.3722V4.87091H0.791016V0.20813H14.6128V4.87091H12.0316V15.7369H14.6128V20.1082H0.791016Z" fill="#828282"/>
<path opacity="0.53" d="M27.1442 20.1083V15.7369H29.1425V11.199C29.1425 9.82518 28.185 9.2007 26.8944 9.2007C25.3123 9.2007 24.105 10.3664 24.105 11.9484V15.6953H26.1866V20.025H15.3623V15.7369H17.319V9.2007H15.3623V4.87097H23.8969V7.86847C24.0218 7.74358 24.1883 7.57705 24.2715 7.45215C25.8536 5.66198 27.6021 5.0375 29.9751 5.0375C33.2641 5.0375 35.9701 6.36972 35.9701 10.0333V15.7785H37.7187V20.1083H27.1442Z" fill="#828282"/>
<path opacity="0.53" d="M54.954 11.2823L49.1255 11.9068C49.0423 10.2831 48.7092 8.57622 46.7525 8.57622C44.2546 8.57622 44.0464 10.6578 44.0464 12.6978V12.7394C44.0464 14.7378 44.2546 16.861 46.7525 16.861C48.0847 16.861 49.2504 16.1116 49.2504 14.488H49.4586H55.0789L54.954 14.9875C53.9965 19.7336 49.7084 20.483 46.6276 20.483C41.7983 20.483 37.0522 18.1099 37.0522 12.7394C37.0522 7.36889 41.7983 4.99587 46.6276 4.99587C46.6692 4.95424 54.2046 4.49629 54.954 11.2823Z" fill="#828282"/>
<path opacity="0.53" d="M56.9944 20.1498C58.3509 20.1498 59.4507 19.05 59.4507 17.6935C59.4507 16.3369 58.3509 15.2372 56.9944 15.2372C55.6378 15.2372 54.5381 16.3369 54.5381 17.6935C54.5381 19.05 55.6378 20.1498 56.9944 20.1498Z" fill="#828282"/>
</g>
<defs>
<clipPath id="clip0_1_294">
<rect width="69.7752" height="50" fill="white"/>
</clipPath>
</defs>
</svg>
