<svg width="100" height="30" viewBox="0 0 100 30" fill="none" xmlns="http://www.w3.org/2000/svg">
<g clip-path="url(#clip0_1_312)">
<path fill-rule="evenodd" clip-rule="evenodd" d="M5.2967 24.7892C6.62347 24.7892 7.69927 25.8623 7.69927 27.1867C7.69927 28.5112 6.62347 29.5849 5.2967 29.5849C3.96968 29.5849 2.89404 28.5112 2.89404 27.1867C2.89404 25.8623 3.96968 24.7892 5.2967 24.7892Z" fill="#B7B7B7"/>
<path fill-rule="evenodd" clip-rule="evenodd" d="M14.3746 24.7892C15.7016 24.7892 16.7773 25.8623 16.7773 27.1867C16.7773 28.5112 15.7016 29.5849 14.3746 29.5849C13.0478 29.5849 11.9722 28.5112 11.9722 27.1867C11.9722 25.8623 13.0478 24.7892 14.3746 24.7892Z" fill="#B7B7B7"/>
<path fill-rule="evenodd" clip-rule="evenodd" d="M11.2891 23.4778H17.1916C18.471 14.7999 22.1046 6.88886 27.4249 0.415161C19.9302 6.22474 14.2288 14.235 11.2891 23.4778Z" fill="#B7B7B7"/>
<path fill-rule="evenodd" clip-rule="evenodd" d="M4.48262 23.4778H8.37155C6.92312 14.5368 4.2835 9.22678 4.2835 9.22678C4.2835 9.22678 5.96181 9.22678 7.73323 9.22678C8.46163 9.22678 8.62536 9.80032 8.7943 10.1839C9.07131 10.8125 9.87327 12.9236 10.4067 14.4278C12.3437 11.5487 14.5884 8.89411 17.0944 6.51123H2.90448C1.44352 6.51123 0.315476 7.7956 0.504027 9.24435L2.08225 21.3696C2.23915 22.5755 3.26653 23.4778 4.48262 23.4778Z" fill="#B7B7B7"/>
<path d="M39.0071 7.93492C39.1829 6.83617 39.9838 6.50269 40.9494 6.50269C41.8619 6.50269 42.4755 6.50269 43.364 6.50269L43.2257 7.48018C42.4012 7.48018 41.4289 7.48018 41.1197 7.48018C40.597 7.47262 40.2786 7.50273 40.1962 8.01809L40.1656 8.20005C40.0957 8.63964 40.2697 8.73062 40.751 8.73062H41.7472C42.9838 8.73062 43.0961 9.58679 42.998 10.2006L42.9388 10.5721C42.7379 11.8302 41.8158 12.065 40.9653 12.065C39.892 12.065 39.1476 12.065 38.5337 12.065L38.6976 11.0875C38.6976 11.0875 40.0824 11.0875 40.8812 11.0875C41.2421 11.0875 41.6625 11.0344 41.7306 10.61L41.7775 10.3146C41.8283 9.99628 41.758 9.79153 41.2943 9.79153H40.3325C38.8122 9.79153 38.8664 8.80647 38.9439 8.32138L39.0071 7.93492Z" fill="#B7B7B7"/>
<path d="M46.6058 6.51782H47.8082L47.428 8.89728H49.5837L49.964 6.51782H51.1663L50.2802 12.0651H49.0779L49.4287 9.86746H47.273L46.9222 12.0651H45.7197L46.6058 6.51782Z" fill="#B7B7B7"/>
<path d="M56.5366 6.44946C58.0222 6.44946 59.0216 6.69953 58.6062 9.29879C58.2154 11.7467 57.1854 12.0651 55.6394 12.0651C54.0935 12.0651 53.1531 11.8225 53.5563 9.29879C53.9715 6.69953 55.0936 6.44946 56.5366 6.44946ZM55.7956 11.0874C56.809 11.0874 57.1656 10.7919 57.404 9.29887C57.6798 7.57108 57.3337 7.42721 56.3804 7.42721C55.4528 7.42721 55.0409 7.53308 54.7588 9.29887C54.5165 10.8144 54.722 11.0874 55.7956 11.0874Z" fill="#B7B7B7"/>
<path d="M61.8678 6.48962H64.5733C65.3634 6.48962 66.2815 6.70934 66.0431 8.20236C65.7733 9.89215 64.7303 9.99078 64.0142 9.99078C63.4882 9.99078 62.523 9.99078 62.523 9.99078L62.1679 12.0651H60.9653L61.8678 6.48962ZM64.0696 9.05121C64.4476 9.05121 64.7245 8.87673 64.8309 8.21001C64.9264 7.5581 64.6294 7.42945 64.3288 7.42945H62.9201L62.6612 9.05121H64.0696Z" fill="#B7B7B7"/>
<path d="M68.9423 6.48962H71.6476C72.4379 6.48962 73.3559 6.70934 73.1175 8.20236C72.8475 9.89215 71.8046 9.99078 71.0883 9.99078C70.5626 9.99078 69.5974 9.99078 69.5974 9.99078L69.2421 12.0651H68.0396L68.9423 6.48962ZM71.144 9.05121C71.5218 9.05121 71.7987 8.87673 71.9052 8.21001C72.0006 7.5581 71.7035 7.42945 71.4032 7.42945H69.9948L69.7355 9.05121H71.144Z" fill="#B7B7B7"/>
<path d="M75.6543 7.64421C75.808 6.68201 76.6126 6.48499 77.2041 6.49264H79.9742L79.8094 7.49285H77.3275C76.881 7.49285 76.8459 7.71264 76.8132 7.91714L76.6752 8.7812H79.2221L79.0557 9.80419H76.5116L76.3736 10.668C76.3093 11.0698 76.5941 11.0624 76.8432 11.0624H79.2395L79.0748 12.0626H76.4C75.8379 12.0854 74.963 11.9717 75.1264 10.9488L75.6543 7.64421Z" fill="#B7B7B7"/>
<path d="M82.8246 6.51782H85.573C86.5605 6.51782 87.2265 6.91925 87.0144 8.24554C86.7954 9.61706 86.1162 9.78389 85.7481 9.88252L86.5935 12.0652H85.2366L84.5325 9.96601H83.4843L83.141 12.0652H81.9385L82.8246 6.51782ZM85.0607 9.0261C85.4728 9.0261 85.6959 8.91999 85.8035 8.24554C85.9041 7.61657 85.6889 7.45756 85.311 7.45756H83.8853L83.6348 9.0261H85.0607Z" fill="#B7B7B7"/>
<path d="M30.8796 19.969L31.3166 23.4326H33.5412C33.4972 22.0808 32.2177 11.0542 32.2177 11.0542C32.2177 11.0542 31.429 11.0525 31.0944 11.0525C29.7831 11.0525 28.6684 11.4509 27.5324 13.3742C25.0142 17.6373 22.3877 22.2686 21.729 23.4326H24C24.412 22.6933 24.4376 22.4883 24.752 21.9882C25.7069 20.4698 26.9056 19.969 28.3935 19.969C28.6935 19.969 30.8796 19.969 30.8796 19.969ZM30.1784 13.2309L30.7395 18.6767H26.6157C26.6157 18.6767 29.5085 13.9825 29.7116 13.636C29.9146 13.2894 30.1784 13.2309 30.1784 13.2309Z" fill="#B7B7B7"/>
<path d="M77.3994 14.1969L77.4183 14.1608H75.0246L71.61 21.2468L70.7733 14.1608H68.4863C68.6546 15.118 69.9026 23.43 69.9026 23.43C69.9026 23.43 70.424 23.43 71.2403 23.43C72.2095 23.43 72.6428 23.43 72.6428 23.43C72.6428 23.43 76.8266 15.3025 77.3994 14.1969Z" fill="#B7B7B7"/>
<path d="M99.285 12.1359C99.285 12.8243 98.7446 13.3646 98.0414 13.3646C97.3458 13.3646 96.7905 12.8243 96.7905 12.1359C96.7905 11.4623 97.3458 10.922 98.0414 10.922C98.7446 10.9219 99.285 11.4623 99.285 12.1359ZM97.1015 12.1359C97.1015 12.6763 97.5011 13.1056 98.0489 13.1056C98.5819 13.1056 98.974 12.6763 98.974 12.1433C98.974 11.6029 98.5818 11.1661 98.0414 11.1661C97.5011 11.1661 97.1015 11.6029 97.1015 12.1359ZM97.8491 12.7725H97.5677V11.5584C97.6788 11.5362 97.8342 11.5214 98.034 11.5214C98.2637 11.5214 98.3671 11.5584 98.4561 11.6103C98.5227 11.6621 98.5744 11.7583 98.5744 11.8767C98.5744 12.0099 98.4707 12.1136 98.3228 12.158V12.1728C98.4412 12.2172 98.5078 12.3061 98.5448 12.469C98.5819 12.6539 98.604 12.728 98.6338 12.7724H98.3303C98.2933 12.7279 98.2709 12.6171 98.2339 12.4764C98.2118 12.343 98.1377 12.2838 97.9824 12.2838H97.8492V12.7725H97.8491ZM97.8566 12.0841H97.9898C98.1451 12.0841 98.2709 12.0322 98.2709 11.9065C98.2709 11.7954 98.1896 11.7214 98.0119 11.7214C97.9379 11.7214 97.8861 11.7288 97.8566 11.7363V12.0841Z" fill="#B7B7B7"/>
<path d="M95.2982 11.022H93.1342L92.671 14.1609H90.3578C87.7417 14.1609 86.6399 15.2898 86.1472 18.4755C85.8467 20.3683 86.0466 21.7401 86.7412 22.5536C87.2378 23.1352 88.0011 23.4301 89.01 23.4301H93.3687L95.2982 11.022ZM91.477 21.8218H89.6079C89.0762 21.8218 88.7353 21.6997 88.5028 21.4256C88.1317 20.9879 88.0701 20.1627 88.3031 18.7498C88.626 16.6891 89.2876 15.7696 90.4472 15.7696H92.4566L91.477 21.8218Z" fill="#B7B7B7"/>
<path d="M84.849 14.9064C84.4243 14.4145 83.7249 14.1545 82.8261 14.1545H80.965C80.965 14.1584 80.9649 14.1624 80.9649 14.1663C78.5541 14.2487 77.5146 15.4088 77.0403 18.4757C76.7398 20.3685 76.9397 21.7402 77.6343 22.5538C78.1309 23.1354 78.8941 23.4303 79.9031 23.4303H83.9649L84.2754 21.822H80.5009C79.9693 21.822 79.6283 21.6998 79.3958 21.4257C79.1256 21.1071 79.0129 20.7959 79.065 19.9891C80.5819 19.9892 83.1428 19.9887 83.1428 19.9887L83.3957 19.9499C83.8265 19.8839 84.978 19.4936 85.3075 17.2657C85.4605 16.2301 85.3063 15.4364 84.849 14.9064ZM83.081 17.3225C82.9719 18.1195 82.7124 18.6482 81.8001 18.6482L79.1965 18.6516C79.2297 18.4697 79.315 18.1052 79.3544 17.9428C79.7166 16.4477 80.3448 15.7697 81.3401 15.7697H82.4133C82.6676 15.7904 82.8461 15.8643 82.966 15.9994C83.1415 16.1971 83.1454 16.7846 83.081 17.3225Z" fill="#B7B7B7"/>
<path d="M60.0887 14.0814C59.9306 14.0629 59.7392 14.0533 59.5126 14.0533C59.0371 14.0533 58.5967 14.1229 58.1911 14.262C57.7852 14.4011 57.4548 14.5462 57.1999 14.6967C56.9648 14.8357 56.6748 15.0246 56.3312 15.262L56.5054 14.1372H54.3503L52.8999 23.4639H55.0617L55.9011 18.0411C56.0254 17.2377 56.5755 16.5558 57.3444 16.2919C57.3485 16.2905 57.3524 16.2891 57.3565 16.2877C57.7514 16.1543 58.2089 16.083 58.727 16.0725C59.0688 15.2059 59.5146 14.5593 60.0887 14.0814Z" fill="#B7B7B7"/>
<path d="M67.6475 19.0888C67.9599 17.1232 67.793 15.7946 67.1379 15.027C66.4375 14.2063 65.2371 14.0958 64.1552 14.0958C61.4999 14.0958 59.8384 14.4011 59.1588 18.632C58.8498 20.5327 59.0066 21.817 59.6379 22.5593C60.3296 23.3725 61.5628 23.4821 62.6777 23.4821C65.261 23.4821 67.0027 23.1763 67.6475 19.0888ZM61.4608 21.3601C61.1284 20.9703 61.0934 20.3114 61.328 18.8418C61.7548 16.1949 62.2835 15.7952 63.8805 15.7952C64.5571 15.7952 65.0352 15.8645 65.3283 16.2083C65.68 16.6218 65.722 17.3705 65.478 18.8794C65.1144 21.1585 64.5684 21.7826 62.938 21.7826C62.1449 21.7825 61.7167 21.6601 61.4608 21.3601Z" fill="#B7B7B7"/>
<path d="M42.5438 15.0138C42.0472 14.4322 41.284 14.1373 40.2751 14.1373H35.9164L33.9868 26.5455H36.1509L36.614 23.4066H38.9271C41.5432 23.4066 42.6451 22.2777 43.1377 19.092C43.4383 17.1991 43.2383 15.8274 42.5438 15.0138ZM40.982 18.8176C40.6591 20.8784 39.9975 21.7979 38.8379 21.7979H36.8285L37.808 15.7456H39.6772C40.2088 15.7456 40.5498 15.8677 40.7822 16.1418C41.1534 16.5795 41.215 17.4048 40.982 18.8176Z" fill="#B7B7B7"/>
<path d="M51.7211 15.0138C51.2245 14.4322 50.4612 14.1373 49.4523 14.1373H45.0937L43.1641 26.5455H45.3281L45.7912 23.4066H48.1044C50.7205 23.4066 51.8223 22.2777 52.315 19.092C52.6155 17.1991 52.4156 15.8274 51.7211 15.0138ZM50.1592 18.8176C49.8363 20.8784 49.1748 21.7979 48.0151 21.7979H46.0058L46.9853 15.7456H48.8544C49.3861 15.7456 49.727 15.8677 49.9595 16.1418C50.3306 16.5795 50.3922 17.4048 50.1592 18.8176Z" fill="#B7B7B7"/>
</g>
<defs>
<clipPath id="clip0_1_312">
<rect width="99.6053" height="30" fill="white"/>
</clipPath>
</defs>
</svg>
